<svg width="137" height="142" viewBox="0 0 137 142" fill="none" xmlns="http://www.w3.org/2000/svg">
<g filter="url(#filter0_d_134_220)">
<mask id="path-1-inside-1_134_220" fill="white">
<path fill-rule="evenodd" clip-rule="evenodd" d="M68.4644 44.8541C57.4187 44.8541 48.4644 53.8084 48.4644 64.8541C48.4644 72.8041 53.1028 79.6706 59.8211 82.8951C60.5078 83.2247 60.8512 83.3896 61.0076 83.479C61.7861 83.9242 62.1323 84.2424 62.6414 84.9807C62.7437 85.129 62.8643 85.334 63.1055 85.7441C64.0199 87.2985 64.477 88.0757 64.9263 88.5256C66.8795 90.4816 70.0492 90.4816 72.0024 88.5256C72.4517 88.0757 72.9088 87.2985 73.8232 85.7441C74.0644 85.334 74.185 85.129 74.2873 84.9807C74.7964 84.2424 75.1426 83.9242 75.9212 83.479C76.0775 83.3896 76.4209 83.2247 77.1077 82.8951C83.8259 79.6706 88.4644 72.8041 88.4644 64.8541C88.4644 53.8084 79.51 44.8541 68.4644 44.8541Z"/>
</mask>
<path fill-rule="evenodd" clip-rule="evenodd" d="M68.4644 44.8541C57.4187 44.8541 48.4644 53.8084 48.4644 64.8541C48.4644 72.8041 53.1028 79.6706 59.8211 82.8951C60.5078 83.2247 60.8512 83.3896 61.0076 83.479C61.7861 83.9242 62.1323 84.2424 62.6414 84.9807C62.7437 85.129 62.8643 85.334 63.1055 85.7441C64.0199 87.2985 64.477 88.0757 64.9263 88.5256C66.8795 90.4816 70.0492 90.4816 72.0024 88.5256C72.4517 88.0757 72.9088 87.2985 73.8232 85.7441C74.0644 85.334 74.185 85.129 74.2873 84.9807C74.7964 84.2424 75.1426 83.9242 75.9212 83.479C76.0775 83.3896 76.4209 83.2247 77.1077 82.8951C83.8259 79.6706 88.4644 72.8041 88.4644 64.8541C88.4644 53.8084 79.51 44.8541 68.4644 44.8541Z" fill="#FE7138"/>
<path d="M74.2873 84.9807L75.5221 85.8323L74.2873 84.9807ZM77.1077 82.8951L77.7567 84.2474L77.1077 82.8951ZM75.9212 83.479L75.1765 82.1769L75.9212 83.479ZM64.9263 88.5256L63.8649 89.5854L64.9263 88.5256ZM72.0024 88.5256L73.0638 89.5854L72.0024 88.5256ZM59.8211 82.8951L60.4701 81.5428L59.8211 82.8951ZM61.0076 83.479L60.2629 84.7811L61.0076 83.479ZM62.6414 84.9807L61.4066 85.8323L62.6414 84.9807ZM49.9644 64.8541C49.9644 54.6368 58.2471 46.3541 68.4644 46.3541V43.3541C56.5902 43.3541 46.9644 52.98 46.9644 64.8541H49.9644ZM60.4701 81.5428C54.2522 78.5585 49.9644 72.2056 49.9644 64.8541H46.9644C46.9644 73.4025 51.9534 80.7828 59.172 84.2474L60.4701 81.5428ZM86.9644 64.8541C86.9644 72.2056 82.6765 78.5585 76.4586 81.5428L77.7567 84.2474C84.9753 80.7828 89.9644 73.4025 89.9644 64.8541H86.9644ZM68.4644 46.3541C78.6816 46.3541 86.9644 54.6368 86.9644 64.8541H89.9644C89.9644 52.98 80.3385 43.3541 68.4644 43.3541V46.3541ZM75.1161 86.5046C75.3724 86.0688 75.4587 85.9243 75.5221 85.8323L73.0524 84.1291C72.9114 84.3337 72.7564 84.5992 72.5303 84.9835L75.1161 86.5046ZM76.4586 81.5428C75.8108 81.8537 75.394 82.0525 75.1765 82.1769L76.6658 84.7811C76.761 84.7266 77.031 84.5957 77.7567 84.2474L76.4586 81.5428ZM75.5221 85.8323C75.7447 85.5095 75.886 85.3458 76.0183 85.2243C76.1505 85.1028 76.3254 84.9757 76.6658 84.7811L75.1765 82.1769C74.7383 82.4274 74.3509 82.6821 73.9881 83.0156C73.6253 83.349 73.339 83.7136 73.0524 84.1291L75.5221 85.8323ZM61.8126 86.5046C62.2638 87.2716 62.6234 87.8834 62.927 88.3577C63.2279 88.8277 63.5239 89.244 63.8649 89.5854L65.9877 87.4657C65.8794 87.3572 65.7223 87.1599 65.4537 86.7403C65.1878 86.3249 64.8616 85.7709 64.3984 84.9835L61.8126 86.5046ZM72.5303 84.9835C72.0671 85.7709 71.7409 86.3249 71.475 86.7403C71.2065 87.1599 71.0493 87.3572 70.941 87.4657L73.0638 89.5854C73.4048 89.244 73.7009 88.8277 74.0017 88.3577C74.3053 87.8834 74.6649 87.2716 75.1161 86.5046L72.5303 84.9835ZM63.8649 89.5854C66.404 92.1283 70.5247 92.1283 73.0638 89.5854L70.941 87.4657C69.5738 88.8349 67.3549 88.8349 65.9877 87.4657L63.8649 89.5854ZM59.172 84.2474C59.8977 84.5957 60.1677 84.7266 60.2629 84.7811L61.7522 82.1769C61.5347 82.0525 61.1179 81.8537 60.4701 81.5428L59.172 84.2474ZM64.3984 84.9835C64.1723 84.5992 64.0174 84.3337 63.8763 84.1291L61.4066 85.8323C61.47 85.9242 61.5563 86.0688 61.8126 86.5046L64.3984 84.9835ZM60.2629 84.7811C60.6033 84.9757 60.7782 85.1028 60.9105 85.2243C61.0427 85.3458 61.184 85.5095 61.4066 85.8323L63.8763 84.1291C63.5897 83.7136 63.3034 83.349 62.9406 83.0156C62.5778 82.6821 62.1904 82.4274 61.7522 82.1769L60.2629 84.7811Z" fill="white" mask="url(#path-1-inside-1_134_220)"/>
</g>
<g clip-path="url(#clip0_134_220)">
<path d="M70.6636 63.4024L74.6886 62.3241C74.9014 62.2626 75.1245 62.2442 75.3445 62.2699C75.5646 62.2957 75.7774 62.365 75.9703 62.474C76.1633 62.5829 76.3326 62.7292 76.4683 62.9044C76.6041 63.0795 76.7035 63.28 76.7609 63.494C76.8182 63.708 76.8323 63.9314 76.8023 64.1509C76.7723 64.3705 76.6989 64.5818 76.5862 64.7726C76.4736 64.9635 76.324 65.1299 76.1462 65.2622C75.9685 65.3945 75.7662 65.4901 75.5511 65.5433L63.4769 68.7791L59.7686 64.5958L62.1827 63.9491L64.2244 65.1274L66.6386 64.4808L63.5194 59.2774L65.9344 58.6299L70.6636 63.4024Z" stroke="white" stroke-width="2" stroke-linecap="round" stroke-linejoin="round"/>
<path d="M60.9644 72.3541H75.9644" stroke="white" stroke-width="2" stroke-linecap="round" stroke-linejoin="round"/>
</g>
<defs>
<filter id="filter0_d_134_220" x="0.464355" y="0.854095" width="136" height="141.138" filterUnits="userSpaceOnUse" color-interpolation-filters="sRGB">
<feFlood flood-opacity="0" result="BackgroundImageFix"/>
<feColorMatrix in="SourceAlpha" type="matrix" values="0 0 0 0 0 0 0 0 0 0 0 0 0 0 0 0 0 0 127 0" result="hardAlpha"/>
<feOffset dy="4"/>
<feGaussianBlur stdDeviation="24"/>
<feComposite in2="hardAlpha" operator="out"/>
<feColorMatrix type="matrix" values="0 0 0 0 0 0 0 0 0 0 0 0 0 0 0 0 0 0 0.2 0"/>
<feBlend mode="normal" in2="BackgroundImageFix" result="effect1_dropShadow_134_220"/>
<feBlend mode="normal" in="SourceGraphic" in2="effect1_dropShadow_134_220" result="shape"/>
</filter>
<clipPath id="clip0_134_220">
<rect width="20" height="20" fill="white" transform="translate(58.4644 54.8541)"/>
</clipPath>
</defs>
</svg>
