<svg width="21" height="20" viewBox="0 0 21 20" fill="none" xmlns="http://www.w3.org/2000/svg">
<g clip-path="url(#clip0_166_348)">
<path d="M4.66675 14.1667C4.66675 14.6087 4.84234 15.0326 5.1549 15.3452C5.46746 15.6577 5.89139 15.8333 6.33341 15.8333C6.77544 15.8333 7.19936 15.6577 7.51193 15.3452C7.82449 15.0326 8.00008 14.6087 8.00008 14.1667C8.00008 13.7246 7.82449 13.3007 7.51193 12.9882C7.19936 12.6756 6.77544 12.5 6.33341 12.5C5.89139 12.5 5.46746 12.6756 5.1549 12.9882C4.84234 13.3007 4.66675 13.7246 4.66675 14.1667Z" stroke="black" stroke-width="1.5" stroke-linecap="round" stroke-linejoin="round"/>
<path d="M13 14.1667C13 14.6087 13.1756 15.0326 13.4882 15.3452C13.8007 15.6577 14.2246 15.8333 14.6667 15.8333C15.1087 15.8333 15.5326 15.6577 15.8452 15.3452C16.1577 15.0326 16.3333 14.6087 16.3333 14.1667C16.3333 13.7246 16.1577 13.3007 15.8452 12.9882C15.5326 12.6756 15.1087 12.5 14.6667 12.5C14.2246 12.5 13.8007 12.6756 13.4882 12.9882C13.1756 13.3007 13 13.7246 13 14.1667Z" stroke="black" stroke-width="1.5" stroke-linecap="round" stroke-linejoin="round"/>
<path d="M4.66667 14.1667H3V9.16667M3 9.16667L4.66667 5H12.1667L15.5 9.16667M3 9.16667H15.5M15.5 9.16667H16.3333C16.7754 9.16667 17.1993 9.34226 17.5118 9.65482C17.8244 9.96738 18 10.3913 18 10.8333V14.1667H16.3333M13 14.1667H8M10.5 9.16667V5" stroke="black" stroke-width="1.5" stroke-linecap="round" stroke-linejoin="round"/>
</g>
<defs>
<clipPath id="clip0_166_348">
<rect width="20" height="20" fill="white" transform="translate(0.5)"/>
</clipPath>
</defs>
</svg>
