<svg width="51" height="50" viewBox="0 0 51 50" fill="none" xmlns="http://www.w3.org/2000/svg">
<circle cx="16.7099" cy="16.7099" r="15.9013" transform="matrix(-0.634077 0.77327 0.77327 0.634077 23.3074 1.61572)" fill="#0E131F" stroke="white" stroke-width="1.61708"/>
<g clip-path="url(#clip0_420_7317)">
<path d="M32.4112 26.4436C32.569 26.8624 32.5539 27.3267 32.3694 27.7344C32.1849 28.142 31.846 28.4597 31.4272 28.6175C31.0085 28.7753 30.5442 28.7603 30.1365 28.5758C29.7289 28.3913 29.4112 28.0524 29.2534 27.6336C29.0956 27.2149 29.1106 26.7506 29.2951 26.3429C29.4796 25.9352 29.8185 25.6175 30.2373 25.4597C30.656 25.3019 31.1203 25.3169 31.528 25.5015C31.9357 25.686 32.2534 26.0249 32.4112 26.4436Z" stroke="white" stroke-width="1.61374" stroke-linecap="round" stroke-linejoin="round"/>
<path d="M24.5171 29.4182C24.6749 29.837 24.6599 30.3013 24.4754 30.709C24.2909 31.1166 23.952 31.4343 23.5332 31.5921C23.1145 31.7499 22.6502 31.7349 22.2425 31.5504C21.8348 31.3659 21.5171 31.027 21.3593 30.6082C21.2015 30.1895 21.2165 29.7252 21.4011 29.3175C21.5856 28.9098 21.9245 28.5921 22.3432 28.4343C22.762 28.2765 23.2263 28.2916 23.6339 28.4761C24.0416 28.6606 24.3593 28.9995 24.5171 29.4182Z" stroke="white" stroke-width="1.61374" stroke-linecap="round" stroke-linejoin="round"/>
<path d="M32.4114 26.4437L33.9903 25.8487L32.2054 21.112M32.2054 21.112L29.139 17.7598L22.034 20.4372L20.3637 25.5744M32.2054 21.112L20.3637 25.5744M20.3637 25.5744L19.5742 25.8719C19.1555 26.0297 18.8166 26.3474 18.6321 26.7551C18.4475 27.1628 18.4325 27.6271 18.5903 28.0458L19.7803 31.2036L21.3592 30.6086M24.517 29.4186L29.2537 27.6337M25.1004 23.7895L23.6129 19.8422" stroke="white" stroke-width="1.61374" stroke-linecap="round" stroke-linejoin="round"/>
</g>
<defs>
<clipPath id="clip0_420_7317">
<rect width="20.2474" height="20.2474" fill="white" transform="matrix(-0.935762 0.352632 0.352632 0.935762 31.8949 12.4187)"/>
</clipPath>
</defs>
</svg>
