<?xml version="1.0" encoding="utf-8"?>
<svg width="87" height="35" viewBox="0 0 87 35" fill="none" xmlns="http://www.w3.org/2000/svg">
  <path d="M81.6169 18.008H3.88818" stroke="#FE7138" stroke-width="1.5" stroke-linecap="round" stroke-dasharray="2.35 3.14"/>
  <circle cx="83.151" cy="17.2581" r="3.13777" fill="#FE7138"/>
  <circle cx="3.13777" cy="17.258" r="3.13777" fill="#FE7138"/>
  <circle cx="43.1445" cy="17.2578" r="17.2577" fill="#FE7138"/>
  <defs>
    <clipPath id="clip-1">
      <rect x="-25.46681" y="22.86811" transform="rotate(159.35161) scale(1,-1)" width="20.2474" height="20.2474" id="clip-1" stroke="none" stroke-width="1" stroke-linecap="butt" stroke-linejoin="miter"/>
    </clipPath>
  </defs>
  <g transform="matrix(5.149114, -1.867376, -2.542029, -5.656107, -6.299424, -29.608906)" style="transform-origin: 48.7354px 47.0405px;">
    <g clip-path="url(#clip-1)" fill="none" transform="matrix(-0.218064, 0.010731, -0.005958, -0.156064, 23.436865, 21.503405)" style="transform-origin: 25.463px 25.421px;">
      <path d="M32.4112,26.4436c0.1578,0.4188 0.1427,0.8831 -0.0418,1.2908c-0.1845,0.4076 -0.5234,0.7253 -0.9422,0.8831c-0.4187,0.1578 -0.883,0.1428 -1.2907,-0.0417c-0.4076,-0.1845 -0.7253,-0.5234 -0.8831,-0.9422c-0.1578,-0.4187 -0.1428,-0.883 0.0417,-1.2907c0.1845,-0.4077 0.5234,-0.7254 0.9422,-0.8832c0.4187,-0.1578 0.883,-0.1428 1.2907,0.0418c0.4077,0.1845 0.7254,0.5234 0.8832,0.9421z" stroke="#ffffff" stroke-width="1.61374" stroke-linecap="round" stroke-linejoin="round"/>
      <path d="M24.5171,29.4182c0.1578,0.4188 0.1428,0.8831 -0.0417,1.2908c-0.1845,0.4076 -0.5234,0.7253 -0.9422,0.8831c-0.4187,0.1578 -0.883,0.1428 -1.2907,-0.0417c-0.4077,-0.1845 -0.7254,-0.5234 -0.8832,-0.9422c-0.1578,-0.4187 -0.1428,-0.883 0.0418,-1.2907c0.1845,-0.4077 0.5234,-0.7254 0.9421,-0.8832c0.4188,-0.1578 0.8831,-0.1427 1.2907,0.0418c0.4077,0.1845 0.7254,0.5234 0.8832,0.9421z" stroke="#ffffff" stroke-width="1.61374" stroke-linecap="round" stroke-linejoin="round"/>
      <path d="M32.4114,26.4437l1.5789,-0.595l-1.7849,-4.7367M32.2054,21.112l-3.0664,-3.3522l-7.105,2.6774l-1.6703,5.1372M32.2054,21.112l-11.8417,4.4624M20.3637,25.5744l-0.7895,0.2975c-0.4187,0.1578 -0.7576,0.4755 -0.9421,0.8832c-0.1846,0.4077 -0.1996,0.872 -0.0418,1.2907l1.19,3.1578l1.5789,-0.595M24.517,29.4186l4.7367,-1.7849M25.1004,23.7895l-1.4875,-3.9473" stroke="#ffffff" stroke-width="1.61374" stroke-linecap="round" stroke-linejoin="round"/>
    </g>
  </g>
</svg>