<svg version="1.1" xmlns="http://www.w3.org/2000/svg" xmlns:xlink="http://www.w3.org/1999/xlink" width="70" height="70" viewBox="0,0,256,256"><defs><clipPath id="clip-1"><rect x="-25.46681" y="22.86811" transform="rotate(159.35161) scale(1,-1)" width="20.2474" height="20.2474" id="clip-1" stroke="none" stroke-width="1" stroke-linecap="butt" stroke-linejoin="miter"></rect></clipPath></defs><g fill="none" fill-rule="nonzero" stroke="none" stroke-width="none" stroke-linecap="none" stroke-linejoin="none" stroke-miterlimit="10" stroke-dasharray="" stroke-dashoffset="0" font-family="none" font-weight="none" font-size="none" text-anchor="none" style="mix-blend-mode: normal"><g transform="translate(256.00003,0.00005) rotate(90) scale(1,1.02005) skewX(0)"><g><g transform="translate(290.55391,47.72234) rotate(110) scale(5.01961,5.01961)"><circle cx="3.1806" cy="35.7573" transform="rotate(129.35156) scale(1,-1)" r="15.9013" fill="#0e131f" stroke="#ffffff" stroke-width="1.61708" stroke-linecap="butt" stroke-linejoin="miter"></circle><g clip-path="url(#clip-1)" fill="none"><path d="M32.4112,26.4436c0.1578,0.4188 0.1427,0.8831 -0.0418,1.2908c-0.1845,0.4076 -0.5234,0.7253 -0.9422,0.8831c-0.4187,0.1578 -0.883,0.1428 -1.2907,-0.0417c-0.4076,-0.1845 -0.7253,-0.5234 -0.8831,-0.9422c-0.1578,-0.4187 -0.1428,-0.883 0.0417,-1.2907c0.1845,-0.4077 0.5234,-0.7254 0.9422,-0.8832c0.4187,-0.1578 0.883,-0.1428 1.2907,0.0418c0.4077,0.1845 0.7254,0.5234 0.8832,0.9421z" stroke="#ffffff" stroke-width="1.61374" stroke-linecap="round" stroke-linejoin="round"></path><path d="M24.5171,29.4182c0.1578,0.4188 0.1428,0.8831 -0.0417,1.2908c-0.1845,0.4076 -0.5234,0.7253 -0.9422,0.8831c-0.4187,0.1578 -0.883,0.1428 -1.2907,-0.0417c-0.4077,-0.1845 -0.7254,-0.5234 -0.8832,-0.9422c-0.1578,-0.4187 -0.1428,-0.883 0.0418,-1.2907c0.1845,-0.4077 0.5234,-0.7254 0.9421,-0.8832c0.4188,-0.1578 0.8831,-0.1427 1.2907,0.0418c0.4077,0.1845 0.7254,0.5234 0.8832,0.9421z" stroke="#ffffff" stroke-width="1.61374" stroke-linecap="round" stroke-linejoin="round"></path><path d="M32.4114,26.4437l1.5789,-0.595l-1.7849,-4.7367M32.2054,21.112l-3.0664,-3.3522l-7.105,2.6774l-1.6703,5.1372M32.2054,21.112l-11.8417,4.4624M20.3637,25.5744l-0.7895,0.2975c-0.4187,0.1578 -0.7576,0.4755 -0.9421,0.8832c-0.1846,0.4077 -0.1996,0.872 -0.0418,1.2907l1.19,3.1578l1.5789,-0.595M24.517,29.4186l4.7367,-1.7849M25.1004,23.7895l-1.4875,-3.9473" stroke="#ffffff" stroke-width="1.61374" stroke-linecap="round" stroke-linejoin="round"></path></g></g></g></g></g></svg>