<svg width="25" height="25" viewBox="0 0 20 20" fill="none" xmlns="http://www.w3.org/2000/svg">
<path d="M4.16675 10.8333C4.16675 11.5994 4.31763 12.3579 4.61078 13.0657C4.90394 13.7734 5.33362 14.4164 5.87529 14.9581C6.41697 15.4998 7.06003 15.9295 7.76776 16.2226C8.47549 16.5158 9.23404 16.6667 10.0001 16.6667C10.7661 16.6667 11.5247 16.5158 12.2324 16.2226C12.9401 15.9295 13.5832 15.4998 14.1249 14.9581C14.6665 14.4164 15.0962 13.7734 15.3894 13.0657C15.6825 12.3579 15.8334 11.5994 15.8334 10.8333C15.8334 10.0673 15.6825 9.30875 15.3894 8.60101C15.0962 7.89328 14.6665 7.25022 14.1249 6.70854C13.5832 6.16687 12.9401 5.73719 12.2324 5.44404C11.5247 5.15088 10.7661 5 10.0001 5C9.23404 5 8.47549 5.15088 7.76776 5.44404C7.06003 5.73719 6.41697 6.16687 5.87529 6.70854C5.33362 7.25022 4.90394 7.89328 4.61078 8.60101C4.31763 9.30875 4.16675 10.0673 4.16675 10.8333Z" stroke="#454953" stroke-width="1.5" stroke-linecap="round" stroke-linejoin="round"/>
<path d="M10 8.33331V10.8333H11.6667" stroke="#454953" stroke-width="1.5" stroke-linecap="round" stroke-linejoin="round"/>
<path d="M5.83341 3.33331L3.54175 4.99998" stroke="#454953" stroke-width="1.5" stroke-linecap="round" stroke-linejoin="round"/>
<path d="M14.1667 3.33331L16.4584 4.99998" stroke="#454953" stroke-width="1.5" stroke-linecap="round" stroke-linejoin="round"/>
</svg>
