<?xml version="1.0" encoding="utf-8"?>
<!-- Generator: Adobe Illustrator 28.1.0, SVG Export Plug-In . SVG Version: 6.00 Build 0)  -->
<svg version="1.1" id="Layer_1" xmlns="http://www.w3.org/2000/svg" xmlns:xlink="http://www.w3.org/1999/xlink" x="0px" y="0px"
	 viewBox="0 0 1080 1080" style="enable-background:new 0 0 1080 1080;" xml:space="preserve">
<style type="text/css">
	.st0{fill:#F3713D;}
</style>
<path class="st0" d="M-1524.9-1207.8"/>
<path class="st0" d="M961.6,177.6c-44.1,4.7-88.1,9.3-132.2,14c-41.2,4.3-83.1,6.8-123.9,13.6c-68.4,11.5-106,87-77.7,150.4
	c3.2,6.8,6.8,9.3,14.3,8.2c38.7-4.7,77.7-8.6,116.8-13.3c17.6-2.1,34.7-4.3,53.4-6.4c-0.4,3.9-0.4,5.4-0.7,6.8
	c-10.7,25.1-21.5,50.1-33.3,74.9c-2.1,4.3-7.9,7.5-12.5,9.3c-49.8,19-99.9,37.6-150.1,55.9c-8.2,2.9-10.4,7.2-10.7,15.4
	c-2.5,48-5.7,95.6-23.3,141.1c-5.7,14.3-15,27.6-24.7,39.8c-6.1,7.9-9.5,10.5-16.8,10.5s-10.7-2.6-16.8-10.5
	c-9.7-12.2-19-25.4-24.7-39.8c-17.6-45.5-20.8-93.1-23.3-141.1c-0.4-8.2-2.5-12.5-10.7-15.4c-50.1-18.3-100.3-36.9-150.1-55.9
	c-4.7-1.8-10.4-5-12.5-9.3c-11.8-24.7-22.6-49.8-33.3-74.9c-0.4-1.4-0.4-2.9-0.7-6.8c18.6,2.1,35.8,4.3,53.4,6.4
	c39,4.7,78.1,8.6,116.8,13.3c7.5,1.1,11.1-1.4,14.3-8.2c28.3-63.4-9.3-139-77.7-150.4c-40.8-6.8-82.7-9.3-123.9-13.6
	c-44.1-4.7-88.1-9.3-132.2-14c-4.3-0.4-8.2,0.2-14.7-0.2c14,24.7,26.5,47.8,39.4,70.7c58.4,104.6,116.8,209.5,175.2,314.1
	c57,102.1,114.3,203.8,171.2,305.5c11.4,20.3,28.2,34.7,50.1,34.7c0.1,0,0.2,0,0.4,0c0.1,0,0.2,0,0.4,0c21.9,0,38.7-14.4,50.1-34.7
	c57-101.7,114.3-203.4,171.2-305.5c58.4-104.6,116.8-209.5,175.2-314.1c12.9-22.9,25.4-46,39.4-70.7
	C969.8,177.8,965.9,177.3,961.6,177.6z"/>
</svg>
