<svg width="87" height="35" viewBox="0 0 87 35" fill="none" xmlns="http://www.w3.org/2000/svg">
<path d="M81.6169 18.008H3.88818" stroke="#FE7138" stroke-width="1.5" stroke-linecap="round" stroke-dasharray="2.35 3.14"/>
<circle cx="83.151" cy="17.2581" r="3.13777" fill="#FE7138"/>
<circle cx="3.13777" cy="17.258" r="3.13777" fill="#FE7138"/>
<circle cx="43.1445" cy="17.2578" r="17.2577" fill="#FE7138"/>
<g clip-path="url(#clip0_134_1236)">
<path d="M43.0689 24.5414L42.2651 24.7679C42.1843 24.7906 42.0991 24.7927 42.0173 24.7741C41.9355 24.7554 41.8597 24.7165 41.7968 24.6609C41.7339 24.6054 41.6859 24.5349 41.6573 24.456C41.6286 24.3772 41.6202 24.2924 41.6328 24.2094L42.3691 19.3654L39.428 20.1239L38.7259 21.7158C38.5946 22.0285 38.4646 22.1881 38.0509 22.3046L37.5097 22.4571C37.4248 22.484 37.3347 22.49 37.2469 22.4747C37.1592 22.4593 37.0765 22.4231 37.0057 22.3689C36.9066 22.2923 36.7896 22.1479 36.7924 21.8942L36.7869 19.5815C36.7869 19.5642 36.7879 19.5467 36.7895 19.5293C36.7894 19.5277 36.7889 19.5262 36.7882 19.5248C36.7775 19.5108 36.7677 19.4963 36.7587 19.4813L35.5517 17.4924C35.422 17.2809 35.4477 17.1003 35.4923 16.9857C35.5223 16.9087 35.5699 16.8398 35.6313 16.7846C35.6928 16.7294 35.7663 16.6893 35.846 16.6677L36.4174 16.5067C36.7263 16.4197 37.0652 16.4738 37.3046 16.6479L38.7063 17.6236L41.6328 16.7521L38.4788 13.0123C38.4247 12.9481 38.3876 12.8715 38.3708 12.7892C38.354 12.707 38.358 12.6219 38.3826 12.5417C38.4072 12.4615 38.4515 12.3887 38.5114 12.33C38.5714 12.2713 38.6451 12.2286 38.7258 12.2057L39.5384 11.9768C39.6524 11.9471 39.7717 11.9435 39.8873 11.9662C40.0029 11.989 40.1118 12.0375 40.2061 12.1081L45.2755 15.6342L47.0071 15.0968C47.1329 15.0539 47.4861 14.9518 47.568 14.9287C49.2369 14.4595 50.3861 14.7205 50.6418 15.6282C50.7223 15.9139 50.7574 16.4757 50.0886 17.0279C49.6939 17.3542 49.1208 17.6245 48.3852 17.8318C48.3043 17.8546 47.9506 17.9516 47.8191 17.9812L46.0618 18.4261L43.5694 24.0826C43.5257 24.1917 43.458 24.2896 43.3714 24.369C43.2847 24.4484 43.1814 24.5073 43.0689 24.5414Z" fill="white"/>
</g>
<defs>
<clipPath id="clip0_134_1236">
<rect width="18.8266" height="18.8266" fill="white" transform="translate(31.5312 11.5339) rotate(-15.7345)"/>
</clipPath>
</defs>
</svg>
