5<svg width="25" height="26" viewBox="0 0 25 26" fill="none" xmlns="http://www.w3.org/2000/svg">
<g clip-path="url(#clip0_420_8953)">
<path d="M24.9868 13.2338C24.9868 12.2095 24.9017 11.4621 24.7177 10.687H12.749V15.3099H19.7743C19.6328 16.4588 18.8679 18.1889 17.1682 19.3515L17.1443 19.5063L20.9286 22.3711L21.1908 22.3966C23.5987 20.2236 24.9868 17.0262 24.9868 13.2338Z" fill="#4285F4"/>
<path d="M12.749 25.4142C16.1908 25.4142 19.0803 24.3069 21.1908 22.3969L17.1682 19.3517C16.0917 20.0853 14.6469 20.5974 12.749 20.5974C9.37795 20.5974 6.51682 18.4244 5.49691 15.4209L5.34741 15.4333L1.41247 18.4092L1.36101 18.549C3.45728 22.6182 7.76318 25.4142 12.749 25.4142Z" fill="#34A853"/>
<path d="M5.49691 15.4209C5.22779 14.6458 5.07205 13.8153 5.07205 12.9572C5.07205 12.099 5.22779 11.2685 5.48275 10.4934L5.47562 10.3284L1.49136 7.30469L1.361 7.36528C0.497031 9.05392 0.00128174 10.9502 0.00128174 12.9572C0.00128174 14.9641 0.497031 16.8603 1.361 18.549L5.49691 15.4209Z" fill="#FBBC05"/>
<path d="M12.749 5.3167C15.1427 5.3167 16.7574 6.3271 17.6781 7.17147L21.2757 3.73884C19.0662 1.73187 16.1908 0.5 12.749 0.5C7.76318 0.5 3.45728 3.2959 1.36101 7.36517L5.48275 10.4933C6.51682 7.48979 9.37795 5.3167 12.749 5.3167Z" fill="#EB4335"/>
</g>
<defs>
<clipPath id="clip0_420_8953">
<rect width="25" height="25" fill="white" transform="translate(0 0.5)"/>
</clipPath>
</defs>
</svg>
