<svg width="137" height="142" viewBox="0 0 137 142" fill="none" xmlns="http://www.w3.org/2000/svg">
<g filter="url(#filter0_d_134_246)">
<mask id="path-1-inside-1_134_246" fill="white">
<path fill-rule="evenodd" clip-rule="evenodd" d="M68.541 44.5876C57.4953 44.5876 48.541 53.542 48.541 64.5876C48.541 72.5376 53.1795 79.4042 59.8977 82.6287C60.5845 82.9583 60.9279 83.1231 61.0842 83.2125C61.8628 83.6578 62.2089 83.9759 62.7181 84.7143C62.8204 84.8625 62.941 85.0676 63.1822 85.4776C64.0965 87.032 64.5537 87.8092 65.0029 88.2591C66.9561 90.2151 70.1259 90.2151 72.0791 88.2591C72.5283 87.8092 72.9855 87.032 73.8999 85.4776C74.1411 85.0676 74.2617 84.8625 74.3639 84.7143C74.8731 83.9759 75.2193 83.6578 75.9978 83.2125C76.1542 83.1231 76.4975 82.9583 77.1843 82.6287C83.9025 79.4042 88.541 72.5376 88.541 64.5876C88.541 53.542 79.5867 44.5876 68.541 44.5876Z"/>
</mask>
<path fill-rule="evenodd" clip-rule="evenodd" d="M68.541 44.5876C57.4953 44.5876 48.541 53.542 48.541 64.5876C48.541 72.5376 53.1795 79.4042 59.8977 82.6287C60.5845 82.9583 60.9279 83.1231 61.0842 83.2125C61.8628 83.6578 62.2089 83.9759 62.7181 84.7143C62.8204 84.8625 62.941 85.0676 63.1822 85.4776C64.0965 87.032 64.5537 87.8092 65.0029 88.2591C66.9561 90.2151 70.1259 90.2151 72.0791 88.2591C72.5283 87.8092 72.9855 87.032 73.8999 85.4776C74.1411 85.0676 74.2617 84.8625 74.3639 84.7143C74.8731 83.9759 75.2193 83.6578 75.9978 83.2125C76.1542 83.1231 76.4975 82.9583 77.1843 82.6287C83.9025 79.4042 88.541 72.5376 88.541 64.5876C88.541 53.542 79.5867 44.5876 68.541 44.5876Z" fill="#FE7138"/>
<path d="M74.3639 84.7143L75.5988 85.5658L74.3639 84.7143ZM77.1843 82.6287L77.8334 83.981L77.1843 82.6287ZM75.9978 83.2125L75.2531 81.9104L75.9978 83.2125ZM65.0029 88.2591L63.9415 89.319L65.0029 88.2591ZM72.0791 88.2591L73.1405 89.319L72.0791 88.2591ZM59.8977 82.6287L60.5468 81.2764L59.8977 82.6287ZM61.0842 83.2125L60.3395 84.5146L61.0842 83.2125ZM62.7181 84.7143L61.4833 85.5658L62.7181 84.7143ZM50.041 64.5876C50.041 54.3704 58.3237 46.0876 68.541 46.0876V43.0876C56.6669 43.0876 47.041 52.7135 47.041 64.5876H50.041ZM60.5468 81.2764C54.3289 78.292 50.041 71.9391 50.041 64.5876H47.041C47.041 73.1361 52.0301 80.5163 59.2487 83.981L60.5468 81.2764ZM87.041 64.5876C87.041 71.9391 82.7531 78.292 76.5353 81.2764L77.8334 83.981C85.0519 80.5163 90.041 73.1361 90.041 64.5876H87.041ZM68.541 46.0876C78.7583 46.0876 87.041 54.3704 87.041 64.5876H90.041C90.041 52.7135 80.4151 43.0876 68.541 43.0876V46.0876ZM75.1928 86.2382C75.4491 85.8023 75.5353 85.6578 75.5988 85.5658L73.1291 83.8627C72.988 84.0672 72.833 84.3328 72.607 84.7171L75.1928 86.2382ZM76.5353 81.2764C75.8874 81.5873 75.4706 81.786 75.2531 81.9104L76.7425 84.5146C76.8377 84.4602 77.1076 84.3293 77.8334 83.981L76.5353 81.2764ZM75.5988 85.5658C75.8214 85.243 75.9627 85.0794 76.0949 84.9579C76.2271 84.8363 76.4021 84.7093 76.7425 84.5146L75.2531 81.9104C74.815 82.161 74.4276 82.4156 74.0648 82.7491C73.702 83.0826 73.4156 83.4472 73.1291 83.8627L75.5988 85.5658ZM61.8893 86.2382C62.3405 87.0052 62.7 87.617 63.0036 88.0912C63.3045 88.5613 63.6005 88.9775 63.9415 89.319L66.0644 87.1992C65.9561 87.0908 65.7989 86.8935 65.5303 86.4739C65.2644 86.0585 64.9382 85.5044 64.4751 84.7171L61.8893 86.2382ZM72.607 84.7171C72.1438 85.5044 71.8176 86.0585 71.5517 86.4739C71.2831 86.8935 71.1259 87.0908 71.0177 87.1992L73.1405 89.319C73.4815 88.9775 73.7775 88.5613 74.0784 88.0912C74.382 87.617 74.7416 87.0052 75.1928 86.2382L72.607 84.7171ZM63.9415 89.319C66.4807 91.8618 70.6013 91.8618 73.1405 89.319L71.0177 87.1992C69.6504 88.5684 67.4316 88.5684 66.0644 87.1992L63.9415 89.319ZM59.2487 83.981C59.9744 84.3293 60.2443 84.4602 60.3395 84.5146L61.8289 81.9104C61.6114 81.786 61.1946 81.5873 60.5468 81.2764L59.2487 83.981ZM64.4751 84.7171C64.249 84.3328 64.094 84.0672 63.9529 83.8627L61.4833 85.5658C61.5467 85.6578 61.6329 85.8023 61.8893 86.2382L64.4751 84.7171ZM60.3395 84.5146C60.6799 84.7093 60.8549 84.8363 60.9871 84.9579C61.1193 85.0794 61.2607 85.243 61.4833 85.5658L63.9529 83.8627C63.6664 83.4472 63.38 83.0826 63.0172 82.7491C62.6544 82.4156 62.267 82.161 61.8289 81.9104L60.3395 84.5146Z" fill="white" mask="url(#path-1-inside-1_134_246)"/>
</g>
<g clip-path="url(#clip0_134_246)">
<path d="M61.041 72.0876H76.041" stroke="white" stroke-width="2" stroke-linecap="round" stroke-linejoin="round"/>
<path d="M62.7076 72.0876V60.421L69.3743 57.0876V72.0876" stroke="white" stroke-width="2" stroke-linecap="round" stroke-linejoin="round"/>
<path d="M74.3744 72.0876V63.7543L69.3744 60.421" stroke="white" stroke-width="2" stroke-linecap="round" stroke-linejoin="round"/>
<path d="M66.041 62.0876V62.096" stroke="white" stroke-width="2" stroke-linecap="round" stroke-linejoin="round"/>
<path d="M66.041 64.5876V64.596" stroke="white" stroke-width="2" stroke-linecap="round" stroke-linejoin="round"/>
<path d="M66.041 67.0876V67.096" stroke="white" stroke-width="2" stroke-linecap="round" stroke-linejoin="round"/>
<path d="M66.041 69.5876V69.596" stroke="white" stroke-width="2" stroke-linecap="round" stroke-linejoin="round"/>
</g>
<defs>
<filter id="filter0_d_134_246" x="0.541016" y="0.587646" width="136" height="141.138" filterUnits="userSpaceOnUse" color-interpolation-filters="sRGB">
<feFlood flood-opacity="0" result="BackgroundImageFix"/>
<feColorMatrix in="SourceAlpha" type="matrix" values="0 0 0 0 0 0 0 0 0 0 0 0 0 0 0 0 0 0 127 0" result="hardAlpha"/>
<feOffset dy="4"/>
<feGaussianBlur stdDeviation="24"/>
<feComposite in2="hardAlpha" operator="out"/>
<feColorMatrix type="matrix" values="0 0 0 0 0 0 0 0 0 0 0 0 0 0 0 0 0 0 0.2 0"/>
<feBlend mode="normal" in2="BackgroundImageFix" result="effect1_dropShadow_134_246"/>
<feBlend mode="normal" in="SourceGraphic" in2="effect1_dropShadow_134_246" result="shape"/>
</filter>
<clipPath id="clip0_134_246">
<rect width="20" height="20" fill="white" transform="translate(58.541 54.5876)"/>
</clipPath>
</defs>
</svg>
