<svg width="25" height="24" viewBox="0 0 25 24" fill="none" xmlns="http://www.w3.org/2000/svg">
<path d="M16.9737 0H7.27314C3.33077 0 0.123413 3.20735 0.123413 7.14973V16.8503C0.123413 20.7926 3.33077 24 7.27314 24H16.9737C20.9161 24 24.1234 20.7926 24.1234 16.8503V7.14973C24.1234 3.20735 20.916 0 16.9737 0ZM21.709 16.8503C21.709 19.4655 19.5889 21.5856 16.9737 21.5856H7.27314C4.65791 21.5856 2.53781 19.4655 2.53781 16.8503V7.14973C2.53781 4.53446 4.65791 2.4144 7.27314 2.4144H16.9737C19.5889 2.4144 21.709 4.53446 21.709 7.14973V16.8503Z" fill="#0E131F"/>
<path d="M12.1234 5.79297C8.70071 5.79297 5.91614 8.57754 5.91614 12.0002C5.91614 15.4228 8.70071 18.2074 12.1234 18.2074C15.5461 18.2074 18.3306 15.4229 18.3306 12.0002C18.3306 8.57749 15.5461 5.79297 12.1234 5.79297ZM12.1234 15.7931C10.0286 15.7931 8.33054 14.095 8.33054 12.0002C8.33054 9.90547 10.0287 8.20737 12.1234 8.20737C14.2181 8.20737 15.9162 9.90547 15.9162 12.0002C15.9162 14.0949 14.2181 15.7931 12.1234 15.7931Z" fill="#0E131F"/>
<path d="M18.3426 7.32625C19.164 7.32625 19.8299 6.66034 19.8299 5.8389C19.8299 5.01747 19.164 4.35156 18.3426 4.35156C17.5211 4.35156 16.8552 5.01747 16.8552 5.8389C16.8552 6.66034 17.5211 7.32625 18.3426 7.32625Z" fill="#0E131F"/>
</svg>
