<svg width="20" height="20" viewBox="0 0 20 20" fill="none" xmlns="http://www.w3.org/2000/svg">
<g clip-path="url(#clip0_420_7360)">
<path d="M4.16666 10.8332C4.16666 10.3911 4.34226 9.96722 4.65482 9.65466C4.96738 9.3421 5.3913 9.1665 5.83333 9.1665H14.1667C14.6087 9.1665 15.0326 9.3421 15.3452 9.65466C15.6577 9.96722 15.8333 10.3911 15.8333 10.8332V15.8332C15.8333 16.2752 15.6577 16.6991 15.3452 17.0117C15.0326 17.3242 14.6087 17.4998 14.1667 17.4998H5.83333C5.3913 17.4998 4.96738 17.3242 4.65482 17.0117C4.34226 16.6991 4.16666 16.2752 4.16666 15.8332V10.8332Z" stroke="#6E7179" stroke-width="1.5" stroke-linecap="round" stroke-linejoin="round"/>
<path d="M9.16667 13.3333C9.16667 13.5543 9.25447 13.7663 9.41075 13.9226C9.56703 14.0789 9.77899 14.1667 10 14.1667C10.221 14.1667 10.433 14.0789 10.5893 13.9226C10.7455 13.7663 10.8333 13.5543 10.8333 13.3333C10.8333 13.1123 10.7455 12.9004 10.5893 12.7441C10.433 12.5878 10.221 12.5 10 12.5C9.77899 12.5 9.56703 12.5878 9.41075 12.7441C9.25447 12.9004 9.16667 13.1123 9.16667 13.3333Z" stroke="#6E7179" stroke-width="1.5" stroke-linecap="round" stroke-linejoin="round"/>
<path d="M6.66666 9.16667V5.83333C6.66666 4.94928 7.01785 4.10143 7.64297 3.47631C8.2681 2.85119 9.11594 2.5 10 2.5C10.8841 2.5 11.7319 2.85119 12.357 3.47631C12.9821 4.10143 13.3333 4.94928 13.3333 5.83333V9.16667" stroke="#6E7179" stroke-width="1.5" stroke-linecap="round" stroke-linejoin="round"/>
</g>
<defs>
<clipPath id="clip0_420_7360">
<rect width="20" height="20" fill="white"/>
</clipPath>
</defs>
</svg>
