<svg width="543" height="553" viewBox="0 0 543 553" fill="none" xmlns="http://www.w3.org/2000/svg">
<path d="M410.491 476.41C416.061 469.762 435.825 455.711 470.323 452.692C513.445 448.919 545.248 415.499 540.397 389.626C535.545 363.753 497.813 348.66 484.338 330.872C470.862 313.084 428.279 337.34 394.32 312.545C360.361 287.75 318.317 151.915 269.265 148.681C249.623 147.385 178.44 138.716 146.398 106.437C114.427 74.2314 9.44317 16.7471 2 0" stroke="#FE7138" stroke-width="3.23417" stroke-dasharray="12.94 12.94"/>
<g filter="url(#filter0_d_420_7288)">
<mask id="path-2-inside-1_420_7288" fill="white">
<path fill-rule="evenodd" clip-rule="evenodd" d="M400.892 291.897C388.984 291.897 379.331 301.551 379.331 313.459C379.331 322.029 384.331 329.432 391.574 332.908C392.314 333.263 392.684 333.441 392.853 333.537C393.692 334.017 394.066 334.36 394.615 335.156C394.725 335.316 394.855 335.537 395.115 335.979C396.1 337.655 396.593 338.492 397.077 338.977C399.183 341.086 402.6 341.086 404.706 338.977C405.19 338.492 405.683 337.655 406.669 335.979C406.929 335.537 407.059 335.316 407.169 335.156C407.718 334.36 408.091 334.017 408.93 333.537C409.099 333.441 409.469 333.263 410.209 332.908C417.452 329.432 422.453 322.029 422.453 313.459C422.453 301.551 412.8 291.897 400.892 291.897Z"/>
</mask>
<path fill-rule="evenodd" clip-rule="evenodd" d="M400.892 291.897C388.984 291.897 379.331 301.551 379.331 313.459C379.331 322.029 384.331 329.432 391.574 332.908C392.314 333.263 392.684 333.441 392.853 333.537C393.692 334.017 394.066 334.36 394.615 335.156C394.725 335.316 394.855 335.537 395.115 335.979C396.1 337.655 396.593 338.492 397.077 338.977C399.183 341.086 402.6 341.086 404.706 338.977C405.19 338.492 405.683 337.655 406.669 335.979C406.929 335.537 407.059 335.316 407.169 335.156C407.718 334.36 408.091 334.017 408.93 333.537C409.099 333.441 409.469 333.263 410.209 332.908C417.452 329.432 422.453 322.029 422.453 313.459C422.453 301.551 412.8 291.897 400.892 291.897Z" fill="#FE7138"/>
<path d="M407.169 335.156L405.838 334.238L407.169 335.156ZM410.209 332.908L410.909 334.366L410.209 332.908ZM408.93 333.537L408.128 332.133L408.93 333.537ZM397.077 338.977L398.222 337.835L397.077 338.977ZM404.706 338.977L403.562 337.835L404.706 338.977ZM391.574 332.908L392.274 331.45L391.574 332.908ZM392.853 333.537L392.05 334.941L392.853 333.537ZM394.615 335.156L393.283 336.074L394.615 335.156ZM380.948 313.459C380.948 302.444 389.877 293.515 400.892 293.515V290.28C388.091 290.28 377.713 300.658 377.713 313.459H380.948ZM392.274 331.45C385.57 328.233 380.948 321.384 380.948 313.459H377.713C377.713 322.674 383.092 330.631 390.874 334.366L392.274 331.45ZM420.836 313.459C420.836 321.384 416.213 328.233 409.51 331.45L410.909 334.366C418.691 330.631 424.07 322.674 424.07 313.459H420.836ZM400.892 293.515C411.906 293.515 420.836 302.444 420.836 313.459H424.07C424.07 300.658 413.693 290.28 400.892 290.28V293.515ZM408.063 336.799C408.339 336.329 408.432 336.173 408.5 336.074L405.838 334.238C405.686 334.459 405.519 334.745 405.275 335.159L408.063 336.799ZM409.51 331.45C408.811 331.785 408.362 331.999 408.128 332.133L409.733 334.941C409.836 334.882 410.127 334.741 410.909 334.366L409.51 331.45ZM408.5 336.074C408.74 335.726 408.893 335.55 409.035 335.419C409.178 335.288 409.366 335.151 409.733 334.941L408.128 332.133C407.655 332.404 407.238 332.678 406.846 333.038C406.455 333.397 406.147 333.79 405.838 334.238L408.5 336.074ZM393.721 336.799C394.207 337.626 394.595 338.285 394.922 338.797C395.246 339.303 395.565 339.752 395.933 340.12L398.222 337.835C398.105 337.718 397.936 337.505 397.646 337.053C397.359 336.605 397.008 336.008 396.509 335.159L393.721 336.799ZM405.275 335.159C404.776 336.008 404.424 336.605 404.137 337.053C403.848 337.505 403.678 337.718 403.562 337.835L405.85 340.12C406.218 339.752 406.537 339.303 406.861 338.797C407.189 338.285 407.576 337.626 408.063 336.799L405.275 335.159ZM395.933 340.12C398.67 342.861 403.113 342.861 405.85 340.12L403.562 337.835C402.088 339.311 399.696 339.311 398.222 337.835L395.933 340.12ZM390.874 334.366C391.657 334.741 391.948 334.882 392.05 334.941L393.656 332.134C393.421 331.999 392.972 331.785 392.274 331.45L390.874 334.366ZM396.509 335.159C396.265 334.745 396.098 334.459 395.946 334.238L393.283 336.074C393.352 336.174 393.445 336.329 393.721 336.799L396.509 335.159ZM392.05 334.941C392.417 335.151 392.606 335.288 392.748 335.419C392.891 335.55 393.043 335.726 393.283 336.074L395.946 334.238C395.637 333.79 395.328 333.397 394.937 333.038C394.546 332.678 394.128 332.404 393.656 332.134L392.05 334.941Z" fill="white" mask="url(#path-2-inside-1_420_7288)"/>
</g>
<g clip-path="url(#clip0_420_7288)">
<path d="M403.263 311.894L407.602 310.731C407.831 310.665 408.072 310.645 408.309 310.673C408.546 310.7 408.775 310.775 408.984 310.893C409.192 311.01 409.374 311.168 409.52 311.357C409.667 311.545 409.774 311.762 409.836 311.992C409.898 312.223 409.913 312.464 409.88 312.7C409.848 312.937 409.769 313.165 409.647 313.371C409.526 313.576 409.365 313.756 409.173 313.898C408.982 314.041 408.763 314.144 408.532 314.201L395.515 317.69L391.517 313.18L394.12 312.483L396.321 313.753L398.923 313.056L395.561 307.447L398.164 306.749L403.263 311.894Z" stroke="white" stroke-width="1.61374" stroke-linecap="round" stroke-linejoin="round"/>
<path d="M392.806 321.543H408.977" stroke="white" stroke-width="1.61374" stroke-linecap="round" stroke-linejoin="round"/>
</g>
<g filter="url(#filter1_d_420_7288)">
<mask id="path-6-inside-2_420_7288" fill="white">
<path fill-rule="evenodd" clip-rule="evenodd" d="M413.944 447.338C402.036 447.338 392.383 456.992 392.383 468.9C392.383 477.47 397.383 484.873 404.626 488.349C405.366 488.704 405.737 488.882 405.905 488.978C406.744 489.458 407.118 489.801 407.667 490.597C407.777 490.757 407.907 490.978 408.167 491.42C409.153 493.096 409.645 493.934 410.13 494.419C412.235 496.527 415.653 496.527 417.758 494.419C418.243 493.934 418.735 493.096 419.721 491.42C419.981 490.978 420.111 490.757 420.222 490.597C420.77 489.801 421.144 489.458 421.983 488.978C422.151 488.882 422.522 488.704 423.262 488.349C430.505 484.873 435.505 477.47 435.505 468.9C435.505 456.992 425.852 447.338 413.944 447.338Z"/>
</mask>
<path fill-rule="evenodd" clip-rule="evenodd" d="M413.944 447.338C402.036 447.338 392.383 456.992 392.383 468.9C392.383 477.47 397.383 484.873 404.626 488.349C405.366 488.704 405.737 488.882 405.905 488.978C406.744 489.458 407.118 489.801 407.667 490.597C407.777 490.757 407.907 490.978 408.167 491.42C409.153 493.096 409.645 493.934 410.13 494.419C412.235 496.527 415.653 496.527 417.758 494.419C418.243 493.934 418.735 493.096 419.721 491.42C419.981 490.978 420.111 490.757 420.222 490.597C420.77 489.801 421.144 489.458 421.983 488.978C422.151 488.882 422.522 488.704 423.262 488.349C430.505 484.873 435.505 477.47 435.505 468.9C435.505 456.992 425.852 447.338 413.944 447.338Z" fill="#FE7138"/>
<path d="M420.222 490.597L418.89 489.679L420.222 490.597ZM421.983 488.978L422.786 490.382L421.983 488.978ZM410.13 494.419L408.986 495.561L410.13 494.419ZM405.905 488.978L405.102 490.382L405.905 488.978ZM407.667 490.597L408.998 489.679L407.667 490.597ZM394 468.9C394 457.885 402.929 448.955 413.944 448.955V445.721C401.143 445.721 390.766 456.099 390.766 468.9H394ZM405.326 486.891C398.623 483.674 394 476.825 394 468.9H390.766C390.766 478.115 396.144 486.071 403.926 489.807L405.326 486.891ZM433.888 468.9C433.888 476.825 429.266 483.674 422.562 486.891L423.962 489.807C431.744 486.072 437.122 478.115 437.122 468.9H433.888ZM413.944 448.955C424.959 448.955 433.888 457.885 433.888 468.9H437.122C437.122 456.099 426.745 445.721 413.944 445.721V448.955ZM421.115 492.24C421.391 491.77 421.484 491.614 421.553 491.515L418.89 489.679C418.738 489.9 418.571 490.186 418.327 490.6L421.115 492.24ZM422.562 486.891C421.864 487.226 421.415 487.44 421.18 487.574L422.786 490.382C422.888 490.323 423.179 490.182 423.962 489.807L422.562 486.891ZM421.553 491.515C421.793 491.167 421.945 490.991 422.088 490.86C422.23 490.729 422.419 490.592 422.786 490.382L421.18 487.574C420.708 487.845 420.29 488.119 419.899 488.479C419.508 488.838 419.199 489.231 418.89 489.679L421.553 491.515ZM406.773 492.24C407.259 493.067 407.647 493.726 407.974 494.238C408.299 494.745 408.618 495.193 408.986 495.561L411.274 493.276C411.157 493.159 410.988 492.947 410.698 492.494C410.412 492.046 410.06 491.449 409.561 490.6L406.773 492.24ZM418.327 490.6C417.828 491.449 417.476 492.046 417.19 492.494C416.9 492.947 416.731 493.159 416.614 493.276L418.902 495.561C419.27 495.193 419.589 494.745 419.914 494.238C420.241 493.726 420.629 493.067 421.115 492.24L418.327 490.6ZM408.986 495.561C411.723 498.303 416.165 498.303 418.902 495.561L416.614 493.276C415.14 494.752 412.748 494.752 411.274 493.276L408.986 495.561ZM403.926 489.807C404.709 490.182 405 490.323 405.102 490.382L406.708 487.574C406.473 487.44 406.024 487.226 405.326 486.891L403.926 489.807ZM409.561 490.6C409.317 490.186 409.15 489.9 408.998 489.679L406.335 491.515C406.404 491.614 406.497 491.77 406.773 492.24L409.561 490.6ZM405.102 490.382C405.469 490.592 405.658 490.729 405.8 490.86C405.943 490.991 406.095 491.167 406.335 491.515L408.998 489.679C408.689 489.231 408.38 488.838 407.989 488.479C407.598 488.119 407.18 487.845 406.708 487.574L405.102 490.382Z" fill="white" mask="url(#path-6-inside-2_420_7288)"/>
</g>
<g clip-path="url(#clip1_420_7288)">
<path d="M405.859 476.985H422.029" stroke="white" stroke-width="1.61374" stroke-linecap="round" stroke-linejoin="round"/>
<path d="M407.655 476.985V464.408L414.842 460.814V476.985" stroke="white" stroke-width="1.61374" stroke-linecap="round" stroke-linejoin="round"/>
<path d="M420.233 476.985V468.001L414.842 464.408" stroke="white" stroke-width="1.61374" stroke-linecap="round" stroke-linejoin="round"/>
<path d="M411.249 466.204V466.214" stroke="white" stroke-width="1.61374" stroke-linecap="round" stroke-linejoin="round"/>
<path d="M411.249 468.899V468.909" stroke="white" stroke-width="1.61374" stroke-linecap="round" stroke-linejoin="round"/>
<path d="M411.249 471.595V471.604" stroke="white" stroke-width="1.61374" stroke-linecap="round" stroke-linejoin="round"/>
<path d="M411.249 474.29V474.3" stroke="white" stroke-width="1.61374" stroke-linecap="round" stroke-linejoin="round"/>
</g>
<circle cx="16.7099" cy="16.7099" r="15.9013" transform="matrix(0.543056 0.839697 0.839697 -0.543056 241.345 143.582)" fill="#0E131F" stroke="white" stroke-width="1.61708"/>
<g clip-path="url(#clip2_420_7288)">
<path d="M267.613 151.14L269.119 153.749C269.319 154.095 269.373 154.506 269.27 154.892C269.166 155.277 268.914 155.606 268.568 155.806C268.222 156.006 267.811 156.06 267.425 155.956C267.039 155.853 266.711 155.601 266.511 155.255L265.005 152.646L258.934 152.673L257.805 150.717L263.122 149.386L261.616 146.777L259.559 146.226L258.43 144.27L261.791 144.068L263.647 141.258L264.776 143.214L264.225 145.271L265.731 147.88L269.543 143.94L270.672 145.897L267.613 151.14Z" stroke="white" stroke-width="1.61708" stroke-linecap="round" stroke-linejoin="round"/>
</g>
<circle cx="16.7099" cy="16.7099" r="15.9013" transform="matrix(-0.634077 0.77327 0.77327 0.634077 513.307 410.616)" fill="#0E131F" stroke="white" stroke-width="1.61708"/>
<g clip-path="url(#clip3_420_7288)">
<path d="M522.411 435.444C522.569 435.863 522.554 436.327 522.369 436.735C522.185 437.143 521.846 437.46 521.427 437.618C521.009 437.776 520.544 437.761 520.137 437.576C519.729 437.392 519.411 437.053 519.253 436.634C519.096 436.215 519.111 435.751 519.295 435.343C519.48 434.936 519.819 434.618 520.237 434.46C520.656 434.302 521.12 434.317 521.528 434.502C521.936 434.686 522.253 435.025 522.411 435.444Z" stroke="white" stroke-width="1.61374" stroke-linecap="round" stroke-linejoin="round"/>
<path d="M514.517 438.419C514.675 438.837 514.66 439.302 514.475 439.709C514.291 440.117 513.952 440.435 513.533 440.593C513.114 440.75 512.65 440.735 512.242 440.551C511.835 440.366 511.517 440.027 511.359 439.609C511.202 439.19 511.217 438.726 511.401 438.318C511.586 437.91 511.924 437.593 512.343 437.435C512.762 437.277 513.226 437.292 513.634 437.477C514.042 437.661 514.359 438 514.517 438.419Z" stroke="white" stroke-width="1.61374" stroke-linecap="round" stroke-linejoin="round"/>
<path d="M522.411 435.444L523.99 434.849L522.205 430.112M522.205 430.112L519.139 426.76L512.034 429.437L510.364 434.575M522.205 430.112L510.364 434.575M510.364 434.575L509.574 434.872C509.155 435.03 508.817 435.348 508.632 435.755C508.448 436.163 508.433 436.627 508.59 437.046L509.78 440.204L511.359 439.609M514.517 438.419L519.254 436.634M515.1 432.79L513.613 428.842" stroke="white" stroke-width="1.61374" stroke-linecap="round" stroke-linejoin="round"/>
</g>
<defs>
<filter id="filter0_d_420_7288" x="327.584" y="244.463" width="146.616" height="152.155" filterUnits="userSpaceOnUse" color-interpolation-filters="sRGB">
<feFlood flood-opacity="0" result="BackgroundImageFix"/>
<feColorMatrix in="SourceAlpha" type="matrix" values="0 0 0 0 0 0 0 0 0 0 0 0 0 0 0 0 0 0 127 0" result="hardAlpha"/>
<feOffset dy="4.31222"/>
<feGaussianBlur stdDeviation="25.8733"/>
<feComposite in2="hardAlpha" operator="out"/>
<feColorMatrix type="matrix" values="0 0 0 0 0 0 0 0 0 0 0 0 0 0 0 0 0 0 0.2 0"/>
<feBlend mode="normal" in2="BackgroundImageFix" result="effect1_dropShadow_420_7288"/>
<feBlend mode="normal" in="SourceGraphic" in2="effect1_dropShadow_420_7288" result="shape"/>
</filter>
<filter id="filter1_d_420_7288" x="340.636" y="399.904" width="146.616" height="152.155" filterUnits="userSpaceOnUse" color-interpolation-filters="sRGB">
<feFlood flood-opacity="0" result="BackgroundImageFix"/>
<feColorMatrix in="SourceAlpha" type="matrix" values="0 0 0 0 0 0 0 0 0 0 0 0 0 0 0 0 0 0 127 0" result="hardAlpha"/>
<feOffset dy="4.31222"/>
<feGaussianBlur stdDeviation="25.8733"/>
<feComposite in2="hardAlpha" operator="out"/>
<feColorMatrix type="matrix" values="0 0 0 0 0 0 0 0 0 0 0 0 0 0 0 0 0 0 0.2 0"/>
<feBlend mode="normal" in2="BackgroundImageFix" result="effect1_dropShadow_420_7288"/>
<feBlend mode="normal" in="SourceGraphic" in2="effect1_dropShadow_420_7288" result="shape"/>
</filter>
<clipPath id="clip0_420_7288">
<rect width="21.5611" height="21.5611" fill="white" transform="translate(390.111 302.678)"/>
</clipPath>
<clipPath id="clip1_420_7288">
<rect width="21.5611" height="21.5611" fill="white" transform="translate(403.163 458.119)"/>
</clipPath>
<clipPath id="clip2_420_7288">
<rect width="18.0716" height="18.0716" fill="white" transform="translate(268.111 136.942) rotate(60)"/>
</clipPath>
<clipPath id="clip3_420_7288">
<rect width="20.2474" height="20.2474" fill="white" transform="matrix(-0.935762 0.352632 0.352632 0.935762 521.895 421.419)"/>
</clipPath>
</defs>
</svg>
