<svg width="105" height="142" viewBox="0 0 105 142" fill="none" xmlns="http://www.w3.org/2000/svg">
  <path fill-rule="evenodd" clip-rule="evenodd" d="M37 44C25.9543 44 17 52.9543 17 64C17 71.95 21.6385 78.8165 28.3567 82.041C29.0435 82.3706 29.3869 82.5355 29.5432 82.6249C30.3218 83.0701 30.6679 83.3883 31.1771 84.1266C31.2793 84.2749 31.3999 84.4799 31.6412 84.89C32.5555 86.4444 33.0127 87.2216 33.4619 87.6715C35.4151 89.6275 38.5849 89.6275 40.5381 87.6715C40.9873 87.2216 41.4445 86.4444 42.3588 84.89C42.6001 84.4799 42.7207 84.2749 42.8229 84.1266C43.3321 83.3883 43.6782 83.0701 44.4568 82.6249C44.6131 82.5355 44.9565 82.3706 45.6433 82.041C52.3615 78.8165 57 71.95 57 64C57 52.9543 48.0457 44 37 44Z" fill="#FE7138" />
  <path d="M42.8229 84.1266L44.0577 84.9782L42.8229 84.1266ZM45.6433 82.041L46.2924 83.3933L45.6433 82.041ZM44.4568 82.6249L43.7121 81.3228L44.4568 82.6249ZM33.4619 87.6715L32.4005 88.7314L33.4619 87.6715ZM40.5381 87.6715L41.5995 88.7314L40.5381 87.6715ZM28.3567 82.041L29.0058 80.6887L28.3567 82.041ZM29.5432 82.6249L28.7985 83.927L29.5432 82.6249ZM31.1771 84.1266L29.9423 84.9782L31.1771 84.1266ZM18.5 64C18.5 53.7827 26.7827 45.5 37 45.5V42.5C25.1259 42.5 15.5 52.1259 15.5 64H18.5ZM29.0058 80.6887C22.7879 77.7044 18.5 71.3515 18.5 64H15.5C15.5 72.5484 20.4891 79.9287 27.7076 83.3933L29.0058 80.6887ZM55.5 64C55.5 71.3515 51.2121 77.7044 44.9942 80.6887L46.2924 83.3933C53.5109 79.9287 58.5 72.5484 58.5 64H55.5ZM37 45.5C47.2173 45.5 55.5 53.7827 55.5 64H58.5C58.5 52.1259 48.8741 42.5 37 42.5V45.5ZM43.6517 85.6505C43.9081 85.2147 43.9943 85.0702 44.0577 84.9782L41.5881 83.275C41.447 83.4796 41.292 83.7451 41.0659 84.1294L43.6517 85.6505ZM44.9942 80.6887C44.3464 80.9996 43.9296 81.1984 43.7121 81.3228L45.2015 83.927C45.2967 83.8725 45.5666 83.7416 46.2924 83.3933L44.9942 80.6887ZM44.0577 84.9782C44.2804 84.6554 44.4217 84.4917 44.5539 84.3702C44.6861 84.2487 44.8611 84.1216 45.2015 83.927L43.7121 81.3228C43.274 81.5733 42.8866 81.828 42.5238 82.1615C42.161 82.4949 41.8746 82.8595 41.5881 83.275L44.0577 84.9782ZM30.3483 85.6505C30.7995 86.4175 31.159 87.0293 31.4626 87.5036C31.7635 87.9736 32.0595 88.3899 32.4005 88.7314L34.5233 86.6116C34.4151 86.5031 34.2579 86.3058 33.9893 85.8862C33.7234 85.4708 33.3972 84.9168 32.9341 84.1294L30.3483 85.6505ZM41.0659 84.1294C40.6028 84.9168 40.2766 85.4708 40.0107 85.8862C39.7421 86.3058 39.5849 86.5031 39.4766 86.6116L41.5995 88.7314C41.9405 88.3899 42.2365 87.9736 42.5374 87.5036C42.841 87.0293 43.2005 86.4175 43.6517 85.6505L41.0659 84.1294ZM32.4005 88.7314C34.9397 91.2742 39.0603 91.2742 41.5995 88.7314L39.4766 86.6116C38.1094 87.9808 35.8906 87.9808 34.5233 86.6116L32.4005 88.7314ZM27.7076 83.3933C28.4334 83.7416 28.7033 83.8725 28.7985 83.927L30.2879 81.3228C30.0704 81.1984 29.6536 80.9996 29.0058 80.6887L27.7076 83.3933ZM32.9341 84.1294C32.708 83.7451 32.553 83.4796 32.4119 83.275L29.9423 84.9782C30.0057 85.0702 30.0919 85.2147 30.3483 85.6505L32.9341 84.1294ZM28.7985 83.927C29.1389 84.1216 29.3139 84.2487 29.4461 84.3702C29.5783 84.4917 29.7196 84.6554 29.9423 84.9782L32.4119 83.275C32.1254 82.8595 31.839 82.4949 31.4762 82.1615C31.1134 81.828 30.726 81.5733 30.2879 81.3228L28.7985 83.927Z" fill="white" />
  <g clip-path="url(#clip0_166_86)">
    <path d="M42.3033 57.8633C43.6803 59.2401 44.4678 61.0984 44.4993 63.0454C44.5309 64.9923 43.8041 66.8751 42.4725 68.2958L42.3033 68.4708L38.7675 72.0058C38.3188 72.4542 37.7165 72.7153 37.0826 72.7362C36.4487 72.757 35.8305 72.5362 35.3533 72.1183L35.2333 72.0058L31.6967 68.47C30.2901 67.0635 29.4999 65.1558 29.4999 63.1667C29.4999 61.1775 30.2901 59.2699 31.6967 57.8633C33.1032 56.4568 35.0108 55.6666 37 55.6666C38.9891 55.6666 40.8968 56.4568 42.3033 57.8633ZM37 60.6667C36.6717 60.6667 36.3466 60.7313 36.0433 60.857C35.74 60.9826 35.4644 61.1668 35.2322 61.3989C35.0001 61.6311 34.8159 61.9066 34.6903 62.21C34.5646 62.5133 34.5 62.8384 34.5 63.1667C34.5 63.495 34.5646 63.8201 34.6903 64.1234C34.8159 64.4267 35.0001 64.7023 35.2322 64.9344C35.4644 65.1666 35.74 65.3507 36.0433 65.4764C36.3466 65.602 36.6717 65.6667 37 65.6667C37.663 65.6667 38.2989 65.4033 38.7678 64.9344C39.2366 64.4656 39.5 63.8297 39.5 63.1667C39.5 62.5036 39.2366 61.8677 38.7678 61.3989C38.2989 60.9301 37.663 60.6667 37 60.6667Z" stroke="white" stroke-width="1.5" stroke-linecap="round" stroke-linejoin="round" />
  </g>
  <defs>
    <clipPath id="clip0_166_86">
      <rect width="20" height="20" fill="white" transform="translate(27 54)" />
    </clipPath>
  </defs>
</svg>
