<svg width="18" height="19" viewBox="0 0 18 19" fill="none" xmlns="http://www.w3.org/2000/svg">
<g clip-path="url(#clip0_134_1198)">
<path d="M13.773 3.977C15.0123 5.21609 15.7211 6.88858 15.7495 8.64081C15.7779 10.393 15.1237 12.0876 13.9253 13.3662L13.773 13.5237L10.5908 16.7052C10.187 17.1088 9.64495 17.3437 9.07441 17.3625C8.50387 17.3813 7.94751 17.1826 7.51804 16.8065L7.41004 16.7052L4.22704 13.523C2.96116 12.2571 2.25 10.5402 2.25 8.75C2.25 6.95977 2.96116 5.24287 4.22704 3.977C5.49292 2.71112 7.20982 1.99995 9.00004 1.99995C10.7903 1.99995 12.5072 2.71112 13.773 3.977ZM9.00004 6.5C8.70457 6.5 8.41199 6.55819 8.139 6.67127C7.86602 6.78434 7.61798 6.95007 7.40905 7.15901C7.20012 7.36794 7.03439 7.61598 6.92131 7.88896C6.80824 8.16194 6.75004 8.45452 6.75004 8.75C6.75004 9.04547 6.80824 9.33805 6.92131 9.61103C7.03439 9.88402 7.20012 10.1321 7.40905 10.341C7.61798 10.5499 7.86602 10.7157 8.139 10.8287C8.41199 10.9418 8.70457 11 9.00004 11C9.59678 11 10.1691 10.7629 10.591 10.341C11.013 9.91903 11.25 9.34673 11.25 8.75C11.25 8.15326 11.013 7.58096 10.591 7.15901C10.1691 6.73705 9.59678 6.5 9.00004 6.5Z" fill="#FE7138"/>
</g>
<defs>
<clipPath id="clip0_134_1198">
<rect width="18" height="18" fill="white" transform="translate(0 0.5)"/>
</clipPath>
</defs>
</svg>
