<svg version="1.1" xmlns="http://www.w3.org/2000/svg" xmlns:xlink="http://www.w3.org/1999/xlink" width="70" height="70" viewBox="0,0,256,256"><defs><clipPath id="clip-1"><rect x="25.26349" y="-17.87344" transform="rotate(60)" width="18.0716" height="18.0716" id="clip0_420_7312" stroke="none" stroke-width="1" stroke-linecap="butt" stroke-linejoin="miter"></rect></clipPath></defs><g fill="none" fill-rule="nonzero" stroke="none" stroke-width="none" stroke-linecap="none" stroke-linejoin="none" stroke-miterlimit="10" stroke-dasharray="" stroke-dashoffset="0" font-family="none" font-weight="none" font-size="none" text-anchor="none" style="mix-blend-mode: normal"><g transform="translate(177.57005,302.05846) rotate(-151) scale(5.22449,5.22449)"><circle cx="33.88302" cy="7.20484" transform="rotate(57.1081) scale(1,-1)" r="15.9013" fill="#0e131f" stroke="#ffffff" stroke-width="1.61708" stroke-linecap="butt" stroke-linejoin="miter"></circle><g clip-path="url(#clip-1)" fill="none"><path d="M27.6134,27.1408l1.506,2.6085c0.1997,0.3459 0.2538,0.7569 0.1504,1.1427c-0.1034,0.3858 -0.3558,0.7147 -0.7017,0.9144c-0.3459,0.1997 -0.7569,0.2539 -1.1427,0.1505c-0.3858,-0.1034 -0.7147,-0.3558 -0.9145,-0.7017l-1.5059,-2.6084l-6.0707,0.027l-1.1295,-1.9563l5.3177,-1.3312l-1.5059,-2.6084l-2.0572,-0.5512l-1.1295,-1.9563l3.3614,-0.2018l1.8554,-2.8102l1.1295,1.9563l-0.5512,2.0572l1.5059,2.6084l3.8118,-3.9396l1.1294,1.9563z" stroke="#ffffff" stroke-width="1.61708" stroke-linecap="round" stroke-linejoin="round"></path></g></g></g></svg>