<svg width="148" height="153" viewBox="0 0 148 153" fill="none" xmlns="http://www.w3.org/2000/svg">
<g filter="url(#filter0_d_420_7291)">
<mask id="path-1-inside-1_420_7291" fill="white">
<path fill-rule="evenodd" clip-rule="evenodd" d="M73.8917 47.8972C61.9838 47.8972 52.3306 57.5505 52.3306 69.4583C52.3306 78.0289 57.3312 85.4316 64.574 88.9077C65.3143 89.263 65.6844 89.4407 65.853 89.537C66.6924 90.017 67.0656 90.3601 67.6145 91.1561C67.7247 91.3159 67.8547 91.5369 68.1148 91.979C69.1003 93.6544 69.5931 94.4921 70.0773 94.9771C72.183 97.086 75.6004 97.086 77.7061 94.9771C78.1903 94.4921 78.6831 93.6544 79.6687 91.9789C79.9287 91.5369 80.0587 91.3159 80.1689 91.1561C80.7179 90.36 81.0911 90.017 81.9305 89.537C82.099 89.4406 82.4691 89.263 83.2095 88.9077C90.4522 85.4315 95.4528 78.0289 95.4528 69.4583C95.4528 57.5505 85.7996 47.8972 73.8917 47.8972Z"/>
</mask>
<path fill-rule="evenodd" clip-rule="evenodd" d="M73.8917 47.8972C61.9838 47.8972 52.3306 57.5505 52.3306 69.4583C52.3306 78.0289 57.3312 85.4316 64.574 88.9077C65.3143 89.263 65.6844 89.4407 65.853 89.537C66.6924 90.017 67.0656 90.3601 67.6145 91.1561C67.7247 91.3159 67.8547 91.5369 68.1148 91.979C69.1003 93.6544 69.5931 94.4921 70.0773 94.9771C72.183 97.086 75.6004 97.086 77.7061 94.9771C78.1903 94.4921 78.6831 93.6544 79.6687 91.9789C79.9287 91.5369 80.0587 91.3159 80.1689 91.1561C80.7179 90.36 81.0911 90.017 81.9305 89.537C82.099 89.4406 82.4691 89.263 83.2095 88.9077C90.4522 85.4315 95.4528 78.0289 95.4528 69.4583C95.4528 57.5505 85.7996 47.8972 73.8917 47.8972Z" fill="#FE7138"/>
<path d="M80.1689 91.1561L78.8377 90.238L80.1689 91.1561ZM83.2095 88.9077L83.9092 90.3655L83.2095 88.9077ZM81.9305 89.537L81.1277 88.1333L81.9305 89.537ZM70.0773 94.9771L71.2216 93.8345L70.0773 94.9771ZM77.7061 94.9771L76.5618 93.8345L77.7061 94.9771ZM64.574 88.9077L65.2737 87.4498L64.574 88.9077ZM65.853 89.537L65.0502 90.9408L65.853 89.537ZM67.6145 91.1561L66.2833 92.0741L67.6145 91.1561ZM53.9477 69.4583C53.9477 58.4436 62.8769 49.5143 73.8917 49.5143V46.2801C61.0907 46.2801 50.7135 56.6574 50.7135 69.4583H53.9477ZM65.2737 87.4498C58.5703 84.2326 53.9477 77.3837 53.9477 69.4583H50.7135C50.7135 78.6741 56.0921 86.6305 63.8743 90.3656L65.2737 87.4498ZM93.8357 69.4583C93.8357 77.3837 89.2131 84.2325 82.5098 87.4498L83.9092 90.3655C91.6913 86.6305 97.0699 78.6741 97.0699 69.4583H93.8357ZM73.8917 49.5143C84.9065 49.5143 93.8357 58.4436 93.8357 69.4583H97.0699C97.0699 56.6574 86.6927 46.2801 73.8917 46.2801V49.5143ZM81.0625 92.7988C81.3388 92.329 81.4318 92.1732 81.5002 92.0741L78.8377 90.238C78.6856 90.4585 78.5186 90.7447 78.2749 91.159L81.0625 92.7988ZM82.5098 87.4498C81.8114 87.785 81.3621 87.9992 81.1277 88.1333L82.7332 90.9408C82.8358 90.8821 83.1269 90.741 83.9092 90.3655L82.5098 87.4498ZM81.5002 92.0741C81.7402 91.7261 81.8925 91.5496 82.0351 91.4186C82.1776 91.2876 82.3662 91.1506 82.7332 90.9408L81.1277 88.1333C80.6553 88.4034 80.2376 88.6779 79.8465 89.0374C79.4554 89.3969 79.1466 89.79 78.8377 90.238L81.5002 92.0741ZM66.7209 92.7988C67.2073 93.6256 67.5949 94.285 67.9221 94.7963C68.2464 95.3029 68.5655 95.7516 68.933 96.1197L71.2216 93.8345C71.105 93.7176 70.9355 93.505 70.646 93.0527C70.3594 92.6049 70.0078 92.0077 69.5086 91.1591L66.7209 92.7988ZM78.2749 91.159C77.7756 92.0077 77.424 92.6049 77.1374 93.0527C76.8479 93.505 76.6785 93.7176 76.5618 93.8345L78.8504 96.1197C79.2179 95.7516 79.537 95.3029 79.8613 94.7963C80.1886 94.285 80.5762 93.6256 81.0625 92.7988L78.2749 91.159ZM68.933 96.1197C71.6704 98.8612 76.113 98.8612 78.8504 96.1197L76.5618 93.8345C75.0878 95.3107 72.6956 95.3107 71.2216 93.8345L68.933 96.1197ZM63.8743 90.3656C64.6566 90.741 64.9476 90.8821 65.0502 90.9408L66.6557 88.1333C66.4213 87.9992 65.972 87.785 65.2737 87.4498L63.8743 90.3656ZM69.5086 91.1591C69.2649 90.7448 69.0978 90.4586 68.9458 90.2381L66.2833 92.0741C66.3517 92.1733 66.4446 92.3291 66.7209 92.7988L69.5086 91.1591ZM65.0502 90.9408C65.4172 91.1507 65.6058 91.2876 65.7484 91.4186C65.8909 91.5497 66.0433 91.7261 66.2833 92.0741L68.9458 90.2381C68.6368 89.7901 68.3281 89.397 67.9369 89.0375C67.5458 88.678 67.1281 88.4034 66.6557 88.1333L65.0502 90.9408Z" fill="white" mask="url(#path-1-inside-1_420_7291)"/>
</g>
<g clip-path="url(#clip0_420_7291)">
<path d="M76.2626 67.8933L80.6018 66.7308C80.8313 66.6645 81.0717 66.6447 81.309 66.6724C81.5463 66.7002 81.7756 66.7749 81.9836 66.8924C82.1917 67.0098 82.3742 67.1675 82.5205 67.3564C82.6669 67.5452 82.7741 67.7613 82.8359 67.992C82.8977 68.2228 82.9129 68.4635 82.8806 68.7002C82.8482 68.9369 82.769 69.1648 82.6476 69.3705C82.5261 69.5762 82.3649 69.7556 82.1733 69.8983C81.9817 70.0409 81.7635 70.1439 81.5316 70.2013L68.515 73.6897L64.5172 69.1798L67.1198 68.4826L69.3209 69.753L71.9235 69.0558L68.5608 63.4463L71.1643 62.7483L76.2626 67.8933Z" stroke="white" stroke-width="1.61374" stroke-linecap="round" stroke-linejoin="round"/>
<path d="M65.8063 77.5435H81.9771" stroke="white" stroke-width="1.61374" stroke-linecap="round" stroke-linejoin="round"/>
</g>
<defs>
<filter id="filter0_d_420_7291" x="0.583874" y="0.462749" width="146.616" height="152.155" filterUnits="userSpaceOnUse" color-interpolation-filters="sRGB">
<feFlood flood-opacity="0" result="BackgroundImageFix"/>
<feColorMatrix in="SourceAlpha" type="matrix" values="0 0 0 0 0 0 0 0 0 0 0 0 0 0 0 0 0 0 127 0" result="hardAlpha"/>
<feOffset dy="4.31222"/>
<feGaussianBlur stdDeviation="25.8733"/>
<feComposite in2="hardAlpha" operator="out"/>
<feColorMatrix type="matrix" values="0 0 0 0 0 0 0 0 0 0 0 0 0 0 0 0 0 0 0.2 0"/>
<feBlend mode="normal" in2="BackgroundImageFix" result="effect1_dropShadow_420_7291"/>
<feBlend mode="normal" in="SourceGraphic" in2="effect1_dropShadow_420_7291" result="shape"/>
</filter>
<clipPath id="clip0_420_7291">
<rect width="21.5611" height="21.5611" fill="white" transform="translate(63.1112 58.6775)"/>
</clipPath>
</defs>
</svg>
