<svg width="25" height="20" viewBox="0 0 25 20" fill="none" xmlns="http://www.w3.org/2000/svg">
<path d="M23.5796 2.443C23.2026 2.6102 22.8149 2.75134 22.4189 2.86595C22.8878 2.33561 23.2453 1.71161 23.4636 1.02879C23.5125 0.875743 23.4618 0.708213 23.336 0.608088C23.2103 0.507917 23.0357 0.495917 22.8974 0.577901C22.0562 1.07679 21.1487 1.43533 20.1972 1.64496C19.2386 0.708353 17.9368 0.175293 16.5909 0.175293C13.75 0.175293 11.4388 2.4865 11.4388 5.3273C11.4388 5.55104 11.4529 5.77355 11.4809 5.99297C7.95568 5.68346 4.67829 3.95073 2.42773 1.19004C2.34753 1.09165 2.22397 1.03859 2.09745 1.04876C1.97089 1.05865 1.85713 1.13004 1.79319 1.23977C1.33672 2.023 1.09541 2.91883 1.09541 3.83031C1.09541 5.07174 1.53861 6.24956 2.32156 7.16995C2.08348 7.0875 1.85249 6.98447 1.63199 6.86208C1.51363 6.79617 1.36916 6.7972 1.25155 6.86461C1.13389 6.93206 1.06011 7.05605 1.05697 7.19161C1.05641 7.21444 1.05641 7.23726 1.05641 7.26042C1.05641 9.11343 2.05372 10.7817 3.57851 11.691C3.4475 11.6779 3.31662 11.659 3.18654 11.6341C3.05243 11.6085 2.91458 11.6555 2.82415 11.7578C2.73359 11.86 2.70359 12.0024 2.74536 12.1325C3.30973 13.8946 4.7628 15.1906 6.51944 15.5858C5.06247 16.4983 3.39635 16.9763 1.64731 16.9763C1.28235 16.9763 0.915318 16.9549 0.556116 16.9124C0.377664 16.8911 0.207039 16.9965 0.146243 17.1662C0.0854461 17.336 0.149899 17.5253 0.30168 17.6226C2.54862 19.0633 5.14671 19.8248 7.81496 19.8248C13.0604 19.8248 16.3418 17.3512 18.1708 15.2762C20.4516 12.6888 21.7597 9.26399 21.7597 5.8801C21.7597 5.73872 21.7575 5.59599 21.7531 5.45368C22.653 4.77573 23.4277 3.95523 24.0581 3.0122C24.1539 2.869 24.1435 2.67967 24.0326 2.54786C23.9219 2.41581 23.7372 2.37316 23.5796 2.443Z" fill="#0E131F"/>
</svg>
