<svg width="25" height="18" viewBox="0 0 25 18" fill="none" xmlns="http://www.w3.org/2000/svg">
<path d="M23.8843 4.20226C23.8843 4.20226 23.6499 2.54754 22.9281 1.82096C22.014 0.864694 20.9921 0.860006 20.5234 0.803755C17.1671 0.56 12.1281 0.56 12.1281 0.56H12.1187C12.1187 0.56 7.07963 0.56 3.72338 0.803755C3.25463 0.860006 2.23276 0.864694 1.3187 1.82096C0.59682 2.54754 0.367133 4.20226 0.367133 4.20226C0.367133 4.20226 0.123383 6.1476 0.123383 8.08826V9.90705C0.123383 11.8477 0.362445 13.7931 0.362445 13.7931C0.362445 13.7931 0.59682 15.4478 1.31401 16.1744C2.22807 17.1306 3.42807 17.0978 3.96245 17.2009C5.88432 17.3837 12.1234 17.44 12.1234 17.44C12.1234 17.44 17.1671 17.4306 20.5234 17.1916C20.9921 17.1353 22.014 17.1306 22.9281 16.1744C23.6499 15.4478 23.8843 13.7931 23.8843 13.7931C23.8843 13.7931 24.1234 11.8524 24.1234 9.90705V8.08826C24.1234 6.1476 23.8843 4.20226 23.8843 4.20226ZM9.6437 12.1149V5.36946L16.1265 8.7539L9.6437 12.1149Z" fill="black"/>
</svg>
