<svg width="66" height="65" viewBox="0 0 66 65" fill="none" xmlns="http://www.w3.org/2000/svg">
<path d="M48.7277 58.6012C49.1245 58.4792 49.2856 58.5033 49.4289 58.4258C57.7315 51.2077 62.6314 42.1766 63.1441 31.0859C63.2805 28.2856 62.6889 25.5081 61.4976 22.8883C58.9928 17.2508 53.3595 14.0478 47.2607 14.7505C44.0801 15.0987 41.0989 15.9881 38.6627 18.1963C38.7182 19.7058 38.8245 21.2063 38.7607 22.6319C38.6455 24.957 37.7997 26.9911 35.9159 28.4739C34.5457 29.6047 33.0239 29.8715 32.0697 29.2007C30.8173 28.3202 30.5678 26.8972 31.0223 25.6127C31.6502 23.8262 32.4988 22.1059 33.416 20.4783C34.0165 19.4301 34.8973 18.4899 35.6767 17.5675C33.8074 11.9758 27.952 10.488 21.8779 14.0151C21.8176 14.8639 21.7661 15.7634 21.6551 16.621C21.1663 19.7974 19.6905 22.4135 16.8341 24.0145C15.7387 24.6256 14.4973 25.0004 13.2956 24.1111C12.3921 23.4313 12.1426 22.0083 12.7047 20.443C13.6315 17.9755 15.3336 16.0532 17.2234 14.3074C17.9041 13.7166 18.5848 13.1258 19.2744 12.5858C16.7004 3.8698 7.63145 -1.03572 0.443445 3.89157C0.378324 3.22198 0.229571 2.67184 0.379007 2.33133C0.570257 1.9311 1.0926 1.62997 1.53131 1.44828C5.70043 -0.120903 9.79689 -0.315341 13.6466 2.25749C16.5421 4.15948 18.7151 6.71201 20.4014 9.76895C20.6337 10.1997 20.8661 10.6304 21.1492 11.0522C21.1581 11.103 21.2685 11.1361 21.4981 11.2529C21.9457 11.1221 22.5037 11.0242 23.0439 10.8248C29.654 8.56563 33.5257 9.77262 37.7846 15.5739C38.3576 15.2639 39.0322 14.9361 39.647 14.5664C43.3212 12.5601 47.2093 11.7736 51.3976 12.4012C58.2141 13.4061 63.345 18.2164 65.0313 25.1498C65.9532 28.917 65.9354 32.6918 65.1896 36.4895C63.3477 45.6655 59.0545 53.3854 51.6122 59.2479C51.2509 59.5731 50.83 59.8565 50.4688 60.1817C50.427 60.2414 50.3941 60.352 50.2954 60.6836C52.0913 60.7878 53.6878 60.3507 55.2932 59.9644C56.8568 59.6379 58.4533 59.2008 60.1602 58.7967C60.2397 60.1448 59.6186 60.7775 58.8098 61.2337C57.8487 61.7165 56.9055 62.3009 55.8999 62.5297C53.1785 63.1116 50.3975 63.6516 47.5808 63.9883C45.3729 64.2183 44.5592 63.1562 45.2111 61.2084C46.6314 57.0829 48.1025 52.9485 49.5735 48.8141C49.8217 48.1419 50.1891 47.5537 50.6223 46.7443C51.7822 47.6934 51.519 48.5777 51.2975 49.4023C50.3584 52.3958 49.5715 55.3625 48.7277 58.6012ZM14.55 22.3196C17.9699 21.2484 19.759 18.6298 19.3587 15.4522C17.2927 17.386 15.3013 19.1495 14.55 22.3196ZM33.0767 27.1907C35.9447 25.9544 37.0086 23.6725 36.1607 20.6257C34.5182 22.59 33.1116 24.4082 33.0767 27.1907Z" fill="#FD804D"/>
</svg>
