<svg width="557" height="455" viewBox="0 0 557 455" fill="none" xmlns="http://www.w3.org/2000/svg">
<path d="M515.631 419.375H510.971V424.937H515.631V419.375Z" fill="#F5F6F6"/>
<path d="M523.823 409.604H519.163V415.166H523.823V409.604Z" fill="#F5F6F6"/>
<path d="M449.793 409.604H445.134V415.166H449.793V409.604Z" fill="#F5F6F6"/>
<path d="M532.09 399.834H527.431V405.396H532.09V399.834Z" fill="#F5F6F6"/>
<path d="M449.793 399.834H445.134V405.396H449.793V399.834Z" fill="#F5F6F6"/>
<path d="M441.601 399.834H436.942V405.396H441.601V399.834Z" fill="#F5F6F6"/>
<path d="M458.061 390.063H453.401V395.625H458.061V390.063Z" fill="#F5F6F6"/>
<path d="M449.793 390.063H445.134V395.625H449.793V390.063Z" fill="#F5F6F6"/>
<path d="M441.601 390.063H436.942V395.625H441.601V390.063Z" fill="#F5F6F6"/>
<path d="M433.409 390.063H428.75V395.625H433.409V390.063Z" fill="#F5F6F6"/>
<path d="M458.061 380.368H453.401V385.93H458.061V380.368Z" fill="#F5F6F6"/>
<path d="M449.793 380.368H445.134V385.93H449.793V380.368Z" fill="#F5F6F6"/>
<path d="M441.601 380.368H436.942V385.93H441.601V380.368Z" fill="#F5F6F6"/>
<path d="M433.409 380.368H428.75V385.93H433.409V380.368Z" fill="#F5F6F6"/>
<path d="M425.142 380.368H420.482V385.93H425.142V380.368Z" fill="#F5F6F6"/>
<path d="M384.032 380.368H379.372V385.93H384.032V380.368Z" fill="#F5F6F6"/>
<path d="M375.839 380.368H371.18V385.93H375.839V380.368Z" fill="#F5F6F6"/>
<path d="M367.572 380.368H362.912V385.93H367.572V380.368Z" fill="#F5F6F6"/>
<path d="M120.907 380.368H116.248V385.93H120.907V380.368Z" fill="#F5F6F6"/>
<path d="M112.715 380.368H108.056V385.93H112.715V380.368Z" fill="#F5F6F6"/>
<path d="M104.448 380.368H99.7886V385.93H104.448V380.368Z" fill="#F5F6F6"/>
<path d="M466.253 370.598H461.593V376.16H466.253V370.598Z" fill="#F5F6F6"/>
<path d="M458.061 370.598H453.401V376.16H458.061V370.598Z" fill="#F5F6F6"/>
<path d="M449.793 370.598H445.134V376.16H449.793V370.598Z" fill="#F5F6F6"/>
<path d="M441.601 370.598H436.942V376.16H441.601V370.598Z" fill="#F5F6F6"/>
<path d="M433.409 370.598H428.75V376.16H433.409V370.598Z" fill="#F5F6F6"/>
<path d="M425.142 370.598H420.482V376.16H425.142V370.598Z" fill="#F5F6F6"/>
<path d="M416.95 370.598H412.29V376.16H416.95V370.598Z" fill="#F5F6F6"/>
<path d="M408.683 370.598H404.023V376.16H408.683V370.598Z" fill="#F5F6F6"/>
<path d="M400.49 370.598H395.831V376.16H400.49V370.598Z" fill="#F5F6F6"/>
<path d="M392.299 370.598H387.639V376.16H392.299V370.598Z" fill="#F5F6F6"/>
<path d="M384.032 370.598H379.372V376.16H384.032V370.598Z" fill="#F5F6F6"/>
<path d="M375.839 370.598H371.18V376.16H375.839V370.598Z" fill="#F5F6F6"/>
<path d="M367.572 370.598H362.912V376.16H367.572V370.598Z" fill="#F5F6F6"/>
<path d="M129.175 370.598H124.515V376.16H129.175V370.598Z" fill="#F5F6F6"/>
<path d="M120.907 370.598H116.248V376.16H120.907V370.598Z" fill="#F5F6F6"/>
<path d="M112.715 370.598H108.056V376.16H112.715V370.598Z" fill="#F5F6F6"/>
<path d="M104.448 370.598H99.7886V376.16H104.448V370.598Z" fill="#F5F6F6"/>
<path d="M96.256 370.598H91.5963V376.16H96.256V370.598Z" fill="#F5F6F6"/>
<path d="M466.253 360.828H461.593V366.39H466.253V360.828Z" fill="#F5F6F6"/>
<path d="M458.061 360.828H453.401V366.39H458.061V360.828Z" fill="#F5F6F6"/>
<path d="M449.793 360.828H445.134V366.39H449.793V360.828Z" fill="#F5F6F6"/>
<path d="M441.601 360.828H436.942V366.39H441.601V360.828Z" fill="#F5F6F6"/>
<path d="M433.409 360.828H428.75V366.39H433.409V360.828Z" fill="#F5F6F6"/>
<path d="M425.142 360.828H420.482V366.39H425.142V360.828Z" fill="#F5F6F6"/>
<path d="M416.95 360.828H412.29V366.39H416.95V360.828Z" fill="#F5F6F6"/>
<path d="M408.683 360.828H404.023V366.39H408.683V360.828Z" fill="#F5F6F6"/>
<path d="M400.49 360.828H395.831V366.39H400.49V360.828Z" fill="#F5F6F6"/>
<path d="M392.299 360.828H387.639V366.39H392.299V360.828Z" fill="#F5F6F6"/>
<path d="M384.032 360.828H379.372V366.39H384.032V360.828Z" fill="#F5F6F6"/>
<path d="M375.839 360.828H371.18V366.39H375.839V360.828Z" fill="#F5F6F6"/>
<path d="M367.572 360.828H362.912V366.39H367.572V360.828Z" fill="#F5F6F6"/>
<path d="M129.175 360.828H124.515V366.39H129.175V360.828Z" fill="#F5F6F6"/>
<path d="M120.907 360.828H116.248V366.39H120.907V360.828Z" fill="#F5F6F6"/>
<path d="M112.715 360.828H108.056V366.39H112.715V360.828Z" fill="#F5F6F6"/>
<path d="M104.448 360.828H99.7886V366.39H104.448V360.828Z" fill="#F5F6F6"/>
<path d="M96.256 360.828H91.5963V366.39H96.256V360.828Z" fill="#F5F6F6"/>
<path d="M458.061 351.058H453.401V356.619H458.061V351.058Z" fill="#F5F6F6"/>
<path d="M449.793 351.058H445.134V356.619H449.793V351.058Z" fill="#F5F6F6"/>
<path d="M441.601 351.058H436.942V356.619H441.601V351.058Z" fill="#F5F6F6"/>
<path d="M433.409 351.058H428.75V356.619H433.409V351.058Z" fill="#F5F6F6"/>
<path d="M425.142 351.058H420.482V356.619H425.142V351.058Z" fill="#F5F6F6"/>
<path d="M416.95 351.058H412.29V356.619H416.95V351.058Z" fill="#F5F6F6"/>
<path d="M408.683 351.058H404.023V356.619H408.683V351.058Z" fill="#F5F6F6"/>
<path d="M400.49 351.058H395.831V356.619H400.49V351.058Z" fill="#F5F6F6"/>
<path d="M392.299 351.058H387.639V356.619H392.299V351.058Z" fill="#F5F6F6"/>
<path d="M384.032 351.058H379.372V356.619H384.032V351.058Z" fill="#F5F6F6"/>
<path d="M375.839 351.058H371.18V356.619H375.839V351.058Z" fill="#F5F6F6"/>
<path d="M367.572 351.058H362.912V356.619H367.572V351.058Z" fill="#F5F6F6"/>
<path d="M170.285 351.058H165.625V356.619H170.285V351.058Z" fill="#F5F6F6"/>
<path d="M137.367 351.058H132.707V356.619H137.367V351.058Z" fill="#F5F6F6"/>
<path d="M129.175 351.058H124.515V356.619H129.175V351.058Z" fill="#F5F6F6"/>
<path d="M120.907 351.058H116.248V356.619H120.907V351.058Z" fill="#F5F6F6"/>
<path d="M112.715 351.058H108.056V356.619H112.715V351.058Z" fill="#F5F6F6"/>
<path d="M104.448 351.058H99.7886V356.619H104.448V351.058Z" fill="#F5F6F6"/>
<path d="M96.256 351.058H91.5963V356.619H96.256V351.058Z" fill="#F5F6F6"/>
<path d="M449.793 341.362H445.134V346.924H449.793V341.362Z" fill="#F5F6F6"/>
<path d="M441.601 341.362H436.942V346.924H441.601V341.362Z" fill="#F5F6F6"/>
<path d="M433.409 341.362H428.75V346.924H433.409V341.362Z" fill="#F5F6F6"/>
<path d="M425.142 341.362H420.482V346.924H425.142V341.362Z" fill="#F5F6F6"/>
<path d="M416.95 341.362H412.29V346.924H416.95V341.362Z" fill="#F5F6F6"/>
<path d="M408.683 341.362H404.023V346.924H408.683V341.362Z" fill="#F5F6F6"/>
<path d="M400.49 341.362H395.831V346.924H400.49V341.362Z" fill="#F5F6F6"/>
<path d="M392.299 341.362H387.639V346.924H392.299V341.362Z" fill="#F5F6F6"/>
<path d="M384.032 341.362H379.372V346.924H384.032V341.362Z" fill="#F5F6F6"/>
<path d="M375.839 341.362H371.18V346.924H375.839V341.362Z" fill="#F5F6F6"/>
<path d="M367.572 341.362H362.912V346.924H367.572V341.362Z" fill="#F5F6F6"/>
<path d="M170.285 341.362H165.625V346.924H170.285V341.362Z" fill="#F5F6F6"/>
<path d="M137.367 341.362H132.707V346.924H137.367V341.362Z" fill="#F5F6F6"/>
<path d="M129.175 341.362H124.515V346.924H129.175V341.362Z" fill="#F5F6F6"/>
<path d="M120.907 341.362H116.248V346.924H120.907V341.362Z" fill="#F5F6F6"/>
<path d="M112.715 341.362H108.056V346.924H112.715V341.362Z" fill="#F5F6F6"/>
<path d="M104.448 341.362H99.7886V346.924H104.448V341.362Z" fill="#F5F6F6"/>
<path d="M96.256 341.362H91.5963V346.924H96.256V341.362Z" fill="#F5F6F6"/>
<path d="M87.989 341.362H83.3293V346.924H87.989V341.362Z" fill="#F5F6F6"/>
<path d="M441.601 331.592H436.942V337.154H441.601V331.592Z" fill="#F5F6F6"/>
<path d="M433.409 331.592H428.75V337.154H433.409V331.592Z" fill="#F5F6F6"/>
<path d="M425.142 331.592H420.482V337.154H425.142V331.592Z" fill="#F5F6F6"/>
<path d="M416.95 331.592H412.29V337.154H416.95V331.592Z" fill="#F5F6F6"/>
<path d="M408.683 331.592H404.023V337.154H408.683V331.592Z" fill="#F5F6F6"/>
<path d="M400.49 331.592H395.831V337.154H400.49V331.592Z" fill="#F5F6F6"/>
<path d="M392.299 331.592H387.639V337.154H392.299V331.592Z" fill="#F5F6F6"/>
<path d="M178.478 331.592H173.818V337.154H178.478V331.592Z" fill="#F5F6F6"/>
<path d="M170.285 331.592H165.625V337.154H170.285V331.592Z" fill="#F5F6F6"/>
<path d="M145.559 331.592H140.899V337.154H145.559V331.592Z" fill="#F5F6F6"/>
<path d="M137.367 331.592H132.707V337.154H137.367V331.592Z" fill="#F5F6F6"/>
<path d="M129.175 331.592H124.515V337.154H129.175V331.592Z" fill="#F5F6F6"/>
<path d="M120.907 331.592H116.248V337.154H120.907V331.592Z" fill="#F5F6F6"/>
<path d="M112.715 331.592H108.056V337.154H112.715V331.592Z" fill="#F5F6F6"/>
<path d="M104.448 331.592H99.7886V337.154H104.448V331.592Z" fill="#F5F6F6"/>
<path d="M96.256 331.592H91.5963V337.154H96.256V331.592Z" fill="#F5F6F6"/>
<path d="M87.989 331.592H83.3293V337.154H87.989V331.592Z" fill="#F5F6F6"/>
<path d="M79.7972 331.592H75.1375V337.154H79.7972V331.592Z" fill="#F5F6F6"/>
<path d="M441.601 321.821H436.942V327.383H441.601V321.821Z" fill="#F5F6F6"/>
<path d="M416.95 321.821H412.29V327.383H416.95V321.821Z" fill="#F5F6F6"/>
<path d="M408.683 321.821H404.023V327.383H408.683V321.821Z" fill="#F5F6F6"/>
<path d="M400.49 321.821H395.831V327.383H400.49V321.821Z" fill="#F5F6F6"/>
<path d="M392.299 321.821H387.639V327.383H392.299V321.821Z" fill="#F5F6F6"/>
<path d="M178.478 321.821H173.818V327.383H178.478V321.821Z" fill="#F5F6F6"/>
<path d="M153.826 321.821H149.167V327.383H153.826V321.821Z" fill="#F5F6F6"/>
<path d="M145.559 321.821H140.899V327.383H145.559V321.821Z" fill="#F5F6F6"/>
<path d="M137.367 321.821H132.707V327.383H137.367V321.821Z" fill="#F5F6F6"/>
<path d="M129.175 321.821H124.515V327.383H129.175V321.821Z" fill="#F5F6F6"/>
<path d="M120.907 321.821H116.248V327.383H120.907V321.821Z" fill="#F5F6F6"/>
<path d="M112.715 321.821H108.056V327.383H112.715V321.821Z" fill="#F5F6F6"/>
<path d="M104.448 321.821H99.7886V327.383H104.448V321.821Z" fill="#F5F6F6"/>
<path d="M96.256 321.821H91.5963V327.383H96.256V321.821Z" fill="#F5F6F6"/>
<path d="M87.989 321.821H83.3293V327.383H87.989V321.821Z" fill="#F5F6F6"/>
<path d="M79.7972 321.821H75.1375V327.383H79.7972V321.821Z" fill="#F5F6F6"/>
<path d="M441.601 312.052H436.942V317.613H441.601V312.052Z" fill="#F5F6F6"/>
<path d="M416.95 312.052H412.29V317.613H416.95V312.052Z" fill="#F5F6F6"/>
<path d="M153.826 312.052H149.167V317.613H153.826V312.052Z" fill="#F5F6F6"/>
<path d="M145.559 312.052H140.899V317.613H145.559V312.052Z" fill="#F5F6F6"/>
<path d="M137.367 312.052H132.707V317.613H137.367V312.052Z" fill="#F5F6F6"/>
<path d="M129.175 312.052H124.515V317.613H129.175V312.052Z" fill="#F5F6F6"/>
<path d="M120.907 312.052H116.248V317.613H120.907V312.052Z" fill="#F5F6F6"/>
<path d="M112.715 312.052H108.056V317.613H112.715V312.052Z" fill="#F5F6F6"/>
<path d="M104.448 312.052H99.7886V317.613H104.448V312.052Z" fill="#F5F6F6"/>
<path d="M96.256 312.052H91.5963V317.613H96.256V312.052Z" fill="#F5F6F6"/>
<path d="M87.989 312.052H83.3293V317.613H87.989V312.052Z" fill="#F5F6F6"/>
<path d="M392.299 302.355H387.639V307.917H392.299V302.355Z" fill="#F5F6F6"/>
<path d="M153.826 302.355H149.167V307.917H153.826V302.355Z" fill="#F5F6F6"/>
<path d="M145.559 302.355H140.899V307.917H145.559V302.355Z" fill="#F5F6F6"/>
<path d="M137.367 302.355H132.707V307.917H137.367V302.355Z" fill="#F5F6F6"/>
<path d="M129.175 302.355H124.515V307.917H129.175V302.355Z" fill="#F5F6F6"/>
<path d="M120.907 302.355H116.248V307.917H120.907V302.355Z" fill="#F5F6F6"/>
<path d="M112.715 302.355H108.056V307.917H112.715V302.355Z" fill="#F5F6F6"/>
<path d="M104.448 302.355H99.7886V307.917H104.448V302.355Z" fill="#F5F6F6"/>
<path d="M96.256 302.355H91.5963V307.917H96.256V302.355Z" fill="#F5F6F6"/>
<path d="M87.989 302.355H83.3293V307.917H87.989V302.355Z" fill="#F5F6F6"/>
<path d="M441.601 292.584H436.942V298.146H441.601V292.584Z" fill="#F5F6F6"/>
<path d="M433.409 292.584H428.75V298.146H433.409V292.584Z" fill="#F5F6F6"/>
<path d="M153.826 292.584H149.167V298.146H153.826V292.584Z" fill="#F5F6F6"/>
<path d="M145.559 292.584H140.899V298.146H145.559V292.584Z" fill="#F5F6F6"/>
<path d="M137.367 292.584H132.707V298.146H137.367V292.584Z" fill="#F5F6F6"/>
<path d="M129.175 292.584H124.515V298.146H129.175V292.584Z" fill="#F5F6F6"/>
<path d="M120.907 292.584H116.248V298.146H120.907V292.584Z" fill="#F5F6F6"/>
<path d="M112.715 292.584H108.056V298.146H112.715V292.584Z" fill="#F5F6F6"/>
<path d="M104.448 292.584H99.7886V298.146H104.448V292.584Z" fill="#F5F6F6"/>
<path d="M96.256 292.584H91.5963V298.146H96.256V292.584Z" fill="#F5F6F6"/>
<path d="M87.989 292.584H83.3293V298.146H87.989V292.584Z" fill="#F5F6F6"/>
<path d="M79.7972 292.584H75.1375V298.146H79.7972V292.584Z" fill="#F5F6F6"/>
<path d="M441.601 282.815H436.942V288.377H441.601V282.815Z" fill="#F5F6F6"/>
<path d="M433.409 282.815H428.75V288.377H433.409V282.815Z" fill="#F5F6F6"/>
<path d="M425.142 282.815H420.482V288.377H425.142V282.815Z" fill="#F5F6F6"/>
<path d="M416.95 282.815H412.29V288.377H416.95V282.815Z" fill="#F5F6F6"/>
<path d="M334.728 282.815H330.069V288.377H334.728V282.815Z" fill="#F5F6F6"/>
<path d="M153.826 282.815H149.167V288.377H153.826V282.815Z" fill="#F5F6F6"/>
<path d="M145.559 282.815H140.899V288.377H145.559V282.815Z" fill="#F5F6F6"/>
<path d="M137.367 282.815H132.707V288.377H137.367V282.815Z" fill="#F5F6F6"/>
<path d="M129.175 282.815H124.515V288.377H129.175V282.815Z" fill="#F5F6F6"/>
<path d="M120.907 282.815H116.248V288.377H120.907V282.815Z" fill="#F5F6F6"/>
<path d="M112.715 282.815H108.056V288.377H112.715V282.815Z" fill="#F5F6F6"/>
<path d="M104.448 282.815H99.7886V288.377H104.448V282.815Z" fill="#F5F6F6"/>
<path d="M96.256 282.815H91.5963V288.377H96.256V282.815Z" fill="#F5F6F6"/>
<path d="M87.989 282.815H83.3293V288.377H87.989V282.815Z" fill="#F5F6F6"/>
<path d="M79.7972 282.815H75.1375V288.377H79.7972V282.815Z" fill="#F5F6F6"/>
<path d="M367.572 273.044H362.912V278.606H367.572V273.044Z" fill="#F5F6F6"/>
<path d="M359.38 273.044H354.721V278.606H359.38V273.044Z" fill="#F5F6F6"/>
<path d="M351.188 273.044H346.529V278.606H351.188V273.044Z" fill="#F5F6F6"/>
<path d="M326.461 273.044H321.802V278.606H326.461V273.044Z" fill="#F5F6F6"/>
<path d="M162.018 273.044H157.359V278.606H162.018V273.044Z" fill="#F5F6F6"/>
<path d="M153.826 273.044H149.167V278.606H153.826V273.044Z" fill="#F5F6F6"/>
<path d="M145.559 273.044H140.899V278.606H145.559V273.044Z" fill="#F5F6F6"/>
<path d="M137.367 273.044H132.707V278.606H137.367V273.044Z" fill="#F5F6F6"/>
<path d="M129.175 273.044H124.515V278.606H129.175V273.044Z" fill="#F5F6F6"/>
<path d="M120.907 273.044H116.248V278.606H120.907V273.044Z" fill="#F5F6F6"/>
<path d="M112.715 273.044H108.056V278.606H112.715V273.044Z" fill="#F5F6F6"/>
<path d="M104.448 273.044H99.7886V278.606H104.448V273.044Z" fill="#F5F6F6"/>
<path d="M96.256 273.044H91.5963V278.606H96.256V273.044Z" fill="#F5F6F6"/>
<path d="M87.989 273.044H83.3293V278.606H87.989V273.044Z" fill="#F5F6F6"/>
<path d="M79.7972 273.044H75.1375V278.606H79.7972V273.044Z" fill="#F5F6F6"/>
<path d="M367.572 263.35H362.912V268.911H367.572V263.35Z" fill="#F5F6F6"/>
<path d="M359.38 263.35H354.721V268.911H359.38V263.35Z" fill="#F5F6F6"/>
<path d="M326.461 263.35H321.802V268.911H326.461V263.35Z" fill="#F5F6F6"/>
<path d="M318.269 263.35H313.609V268.911H318.269V263.35Z" fill="#F5F6F6"/>
<path d="M170.285 263.35H165.625V268.911H170.285V263.35Z" fill="#F5F6F6"/>
<path d="M162.018 263.35H157.359V268.911H162.018V263.35Z" fill="#F5F6F6"/>
<path d="M153.826 263.35H149.167V268.911H153.826V263.35Z" fill="#F5F6F6"/>
<path d="M145.559 263.35H140.899V268.911H145.559V263.35Z" fill="#F5F6F6"/>
<path d="M137.367 263.35H132.707V268.911H137.367V263.35Z" fill="#F5F6F6"/>
<path d="M129.175 263.35H124.515V268.911H129.175V263.35Z" fill="#F5F6F6"/>
<path d="M120.907 263.35H116.248V268.911H120.907V263.35Z" fill="#F5F6F6"/>
<path d="M112.715 263.35H108.056V268.911H112.715V263.35Z" fill="#F5F6F6"/>
<path d="M104.448 263.35H99.7886V268.911H104.448V263.35Z" fill="#F5F6F6"/>
<path d="M96.256 263.35H91.5963V268.911H96.256V263.35Z" fill="#F5F6F6"/>
<path d="M87.989 263.35H83.3293V268.911H87.989V263.35Z" fill="#F5F6F6"/>
<path d="M79.7972 263.35H75.1375V268.911H79.7972V263.35Z" fill="#F5F6F6"/>
<path d="M367.572 253.579H362.912V259.14H367.572V253.579Z" fill="#F5F6F6"/>
<path d="M326.461 253.579H321.802V259.14H326.461V253.579Z" fill="#F5F6F6"/>
<path d="M170.285 253.579H165.625V259.14H170.285V253.579Z" fill="#F5F6F6"/>
<path d="M162.018 253.579H157.359V259.14H162.018V253.579Z" fill="#F5F6F6"/>
<path d="M153.826 253.579H149.167V259.14H153.826V253.579Z" fill="#F5F6F6"/>
<path d="M145.559 253.579H140.899V259.14H145.559V253.579Z" fill="#F5F6F6"/>
<path d="M137.367 253.579H132.707V259.14H137.367V253.579Z" fill="#F5F6F6"/>
<path d="M129.175 253.579H124.515V259.14H129.175V253.579Z" fill="#F5F6F6"/>
<path d="M120.907 253.579H116.248V259.14H120.907V253.579Z" fill="#F5F6F6"/>
<path d="M112.715 253.579H108.056V259.14H112.715V253.579Z" fill="#F5F6F6"/>
<path d="M104.448 253.579H99.7886V259.14H104.448V253.579Z" fill="#F5F6F6"/>
<path d="M96.256 253.579H91.5963V259.14H96.256V253.579Z" fill="#F5F6F6"/>
<path d="M87.989 253.579H83.3293V259.14H87.989V253.579Z" fill="#F5F6F6"/>
<path d="M79.7972 253.579H75.1375V259.14H79.7972V253.579Z" fill="#F5F6F6"/>
<path d="M71.6044 253.579H66.9447V259.14H71.6044V253.579Z" fill="#F5F6F6"/>
<path d="M63.3373 253.579H58.6776V259.14H63.3373V253.579Z" fill="#F5F6F6"/>
<path d="M392.299 243.809H387.639V249.37H392.299V243.809Z" fill="#F5F6F6"/>
<path d="M268.891 243.809H264.231V249.37H268.891V243.809Z" fill="#F5F6F6"/>
<path d="M178.478 243.809H173.818V249.37H178.478V243.809Z" fill="#F5F6F6"/>
<path d="M170.285 243.809H165.625V249.37H170.285V243.809Z" fill="#F5F6F6"/>
<path d="M162.018 243.809H157.359V249.37H162.018V243.809Z" fill="#F5F6F6"/>
<path d="M153.826 243.809H149.167V249.37H153.826V243.809Z" fill="#F5F6F6"/>
<path d="M145.559 243.809H140.899V249.37H145.559V243.809Z" fill="#F5F6F6"/>
<path d="M137.367 243.809H132.707V249.37H137.367V243.809Z" fill="#F5F6F6"/>
<path d="M129.175 243.809H124.515V249.37H129.175V243.809Z" fill="#F5F6F6"/>
<path d="M120.907 243.809H116.248V249.37H120.907V243.809Z" fill="#F5F6F6"/>
<path d="M112.715 243.809H108.056V249.37H112.715V243.809Z" fill="#F5F6F6"/>
<path d="M104.448 243.809H99.7886V249.37H104.448V243.809Z" fill="#F5F6F6"/>
<path d="M96.256 243.809H91.5963V249.37H96.256V243.809Z" fill="#F5F6F6"/>
<path d="M87.989 243.809H83.3293V249.37H87.989V243.809Z" fill="#F5F6F6"/>
<path d="M79.7972 243.809H75.1375V249.37H79.7972V243.809Z" fill="#F5F6F6"/>
<path d="M71.6044 243.809H66.9447V249.37H71.6044V243.809Z" fill="#F5F6F6"/>
<path d="M63.3373 243.809H58.6776V249.37H63.3373V243.809Z" fill="#F5F6F6"/>
<path d="M55.1456 243.809H50.4858V249.37H55.1456V243.809Z" fill="#F5F6F6"/>
<path d="M46.8781 243.809H42.2184V249.37H46.8781V243.809Z" fill="#F5F6F6"/>
<path d="M38.6862 243.809H34.0265V249.37H38.6862V243.809Z" fill="#F5F6F6"/>
<path d="M30.4934 243.809H25.8337V249.37H30.4934V243.809Z" fill="#F5F6F6"/>
<path d="M22.2265 243.809H17.5668V249.37H22.2265V243.809Z" fill="#F5F6F6"/>
<path d="M14.0342 243.809H9.37451V249.37H14.0342V243.809Z" fill="#F5F6F6"/>
<path d="M342.92 234.038H338.261V239.6H342.92V234.038Z" fill="#F5F6F6"/>
<path d="M334.728 234.038H330.069V239.6H334.728V234.038Z" fill="#F5F6F6"/>
<path d="M260.699 234.038H256.039V239.6H260.699V234.038Z" fill="#F5F6F6"/>
<path d="M162.018 234.038H157.359V239.6H162.018V234.038Z" fill="#F5F6F6"/>
<path d="M153.826 234.038H149.167V239.6H153.826V234.038Z" fill="#F5F6F6"/>
<path d="M145.559 234.038H140.899V239.6H145.559V234.038Z" fill="#F5F6F6"/>
<path d="M137.367 234.038H132.707V239.6H137.367V234.038Z" fill="#F5F6F6"/>
<path d="M129.175 234.038H124.515V239.6H129.175V234.038Z" fill="#F5F6F6"/>
<path d="M120.907 234.038H116.248V239.6H120.907V234.038Z" fill="#F5F6F6"/>
<path d="M112.715 234.038H108.056V239.6H112.715V234.038Z" fill="#F5F6F6"/>
<path d="M104.448 234.038H99.7886V239.6H104.448V234.038Z" fill="#F5F6F6"/>
<path d="M96.256 234.038H91.5963V239.6H96.256V234.038Z" fill="#F5F6F6"/>
<path d="M87.989 234.038H83.3293V239.6H87.989V234.038Z" fill="#F5F6F6"/>
<path d="M79.7972 234.038H75.1375V239.6H79.7972V234.038Z" fill="#F5F6F6"/>
<path d="M71.6044 234.038H66.9447V239.6H71.6044V234.038Z" fill="#F5F6F6"/>
<path d="M63.3373 234.038H58.6776V239.6H63.3373V234.038Z" fill="#F5F6F6"/>
<path d="M55.1456 234.038H50.4858V239.6H55.1456V234.038Z" fill="#F5F6F6"/>
<path d="M46.8781 234.038H42.2184V239.6H46.8781V234.038Z" fill="#F5F6F6"/>
<path d="M38.6862 234.038H34.0265V239.6H38.6862V234.038Z" fill="#F5F6F6"/>
<path d="M30.4934 234.038H25.8337V239.6H30.4934V234.038Z" fill="#F5F6F6"/>
<path d="M22.2265 234.038H17.5668V239.6H22.2265V234.038Z" fill="#F5F6F6"/>
<path d="M14.0342 234.038H9.37451V239.6H14.0342V234.038Z" fill="#F5F6F6"/>
<path d="M5.76715 234.038H1.10742V239.6H5.76715V234.038Z" fill="#F5F6F6"/>
<path d="M342.92 224.268H338.261V229.829H342.92V224.268Z" fill="#F5F6F6"/>
<path d="M334.728 224.268H330.069V229.829H334.728V224.268Z" fill="#F5F6F6"/>
<path d="M326.461 224.268H321.802V229.829H326.461V224.268Z" fill="#F5F6F6"/>
<path d="M318.269 224.268H313.609V229.829H318.269V224.268Z" fill="#F5F6F6"/>
<path d="M260.699 224.268H256.039V229.829H260.699V224.268Z" fill="#F5F6F6"/>
<path d="M178.478 224.268H173.818V229.829H178.478V224.268Z" fill="#F5F6F6"/>
<path d="M170.285 224.268H165.625V229.829H170.285V224.268Z" fill="#F5F6F6"/>
<path d="M153.826 224.268H149.167V229.829H153.826V224.268Z" fill="#F5F6F6"/>
<path d="M145.559 224.268H140.899V229.829H145.559V224.268Z" fill="#F5F6F6"/>
<path d="M137.367 224.268H132.707V229.829H137.367V224.268Z" fill="#F5F6F6"/>
<path d="M129.175 224.268H124.515V229.829H129.175V224.268Z" fill="#F5F6F6"/>
<path d="M120.907 224.268H116.248V229.829H120.907V224.268Z" fill="#F5F6F6"/>
<path d="M112.715 224.268H108.056V229.829H112.715V224.268Z" fill="#F5F6F6"/>
<path d="M104.448 224.268H99.7886V229.829H104.448V224.268Z" fill="#F5F6F6"/>
<path d="M96.256 224.268H91.5963V229.829H96.256V224.268Z" fill="#F5F6F6"/>
<path d="M87.989 224.268H83.3293V229.829H87.989V224.268Z" fill="#F5F6F6"/>
<path d="M79.7972 224.268H75.1375V229.829H79.7972V224.268Z" fill="#F5F6F6"/>
<path d="M71.6044 224.268H66.9447V229.829H71.6044V224.268Z" fill="#F5F6F6"/>
<path d="M63.3373 224.268H58.6776V229.829H63.3373V224.268Z" fill="#F5F6F6"/>
<path d="M55.1456 224.268H50.4858V229.829H55.1456V224.268Z" fill="#F5F6F6"/>
<path d="M46.8781 224.268H42.2184V229.829H46.8781V224.268Z" fill="#F5F6F6"/>
<path d="M38.6862 224.268H34.0265V229.829H38.6862V224.268Z" fill="#F5F6F6"/>
<path d="M30.4934 224.268H25.8337V229.829H30.4934V224.268Z" fill="#F5F6F6"/>
<path d="M22.2265 224.268H17.5668V229.829H22.2265V224.268Z" fill="#F5F6F6"/>
<path d="M14.0342 224.268H9.37451V229.829H14.0342V224.268Z" fill="#F5F6F6"/>
<path d="M5.76715 224.268H1.10742V229.829H5.76715V224.268Z" fill="#F5F6F6"/>
<path d="M334.728 214.573H330.069V220.134H334.728V214.573Z" fill="#F5F6F6"/>
<path d="M326.461 214.573H321.802V220.134H326.461V214.573Z" fill="#F5F6F6"/>
<path d="M318.269 214.573H313.609V220.134H318.269V214.573Z" fill="#F5F6F6"/>
<path d="M310.077 214.573H305.417V220.134H310.077V214.573Z" fill="#F5F6F6"/>
<path d="M268.891 214.573H264.231V220.134H268.891V214.573Z" fill="#F5F6F6"/>
<path d="M260.699 214.573H256.039V220.134H260.699V214.573Z" fill="#F5F6F6"/>
<path d="M252.507 214.573H247.847V220.134H252.507V214.573Z" fill="#F5F6F6"/>
<path d="M186.67 214.573H182.01V220.134H186.67V214.573Z" fill="#F5F6F6"/>
<path d="M178.478 214.573H173.818V220.134H178.478V214.573Z" fill="#F5F6F6"/>
<path d="M170.285 214.573H165.625V220.134H170.285V214.573Z" fill="#F5F6F6"/>
<path d="M153.826 214.573H149.167V220.134H153.826V214.573Z" fill="#F5F6F6"/>
<path d="M145.559 214.573H140.899V220.134H145.559V214.573Z" fill="#F5F6F6"/>
<path d="M137.367 214.573H132.707V220.134H137.367V214.573Z" fill="#F5F6F6"/>
<path d="M129.175 214.573H124.515V220.134H129.175V214.573Z" fill="#F5F6F6"/>
<path d="M120.907 214.573H116.248V220.134H120.907V214.573Z" fill="#F5F6F6"/>
<path d="M112.715 214.573H108.056V220.134H112.715V214.573Z" fill="#F5F6F6"/>
<path d="M104.448 214.573H99.7886V220.134H104.448V214.573Z" fill="#F5F6F6"/>
<path d="M96.256 214.573H91.5963V220.134H96.256V214.573Z" fill="#F5F6F6"/>
<path d="M87.989 214.573H83.3293V220.134H87.989V214.573Z" fill="#F5F6F6"/>
<path d="M79.7972 214.573H75.1375V220.134H79.7972V214.573Z" fill="#F5F6F6"/>
<path d="M71.6044 214.573H66.9447V220.134H71.6044V214.573Z" fill="#F5F6F6"/>
<path d="M63.3373 214.573H58.6776V220.134H63.3373V214.573Z" fill="#F5F6F6"/>
<path d="M55.1456 214.573H50.4858V220.134H55.1456V214.573Z" fill="#F5F6F6"/>
<path d="M46.8781 214.573H42.2184V220.134H46.8781V214.573Z" fill="#F5F6F6"/>
<path d="M38.6862 214.573H34.0265V220.134H38.6862V214.573Z" fill="#F5F6F6"/>
<path d="M30.4934 214.573H25.8337V220.134H30.4934V214.573Z" fill="#F5F6F6"/>
<path d="M22.2265 214.573H17.5668V220.134H22.2265V214.573Z" fill="#F5F6F6"/>
<path d="M14.0342 214.573H9.37451V220.134H14.0342V214.573Z" fill="#F5F6F6"/>
<path d="M5.76715 214.573H1.10742V220.134H5.76715V214.573Z" fill="#F5F6F6"/>
<path d="M334.728 204.802H330.069V210.363H334.728V204.802Z" fill="#F5F6F6"/>
<path d="M326.461 204.802H321.802V210.363H326.461V204.802Z" fill="#F5F6F6"/>
<path d="M318.269 204.802H313.609V210.363H318.269V204.802Z" fill="#F5F6F6"/>
<path d="M310.077 204.802H305.417V210.363H310.077V204.802Z" fill="#F5F6F6"/>
<path d="M285.35 204.802H280.691V210.363H285.35V204.802Z" fill="#F5F6F6"/>
<path d="M277.159 204.802H272.499V210.363H277.159V204.802Z" fill="#F5F6F6"/>
<path d="M268.891 204.802H264.231V210.363H268.891V204.802Z" fill="#F5F6F6"/>
<path d="M260.699 204.802H256.039V210.363H260.699V204.802Z" fill="#F5F6F6"/>
<path d="M252.507 204.802H247.847V210.363H252.507V204.802Z" fill="#F5F6F6"/>
<path d="M203.129 204.802H198.469V210.363H203.129V204.802Z" fill="#F5F6F6"/>
<path d="M194.936 204.802H190.277V210.363H194.936V204.802Z" fill="#F5F6F6"/>
<path d="M186.67 204.802H182.01V210.363H186.67V204.802Z" fill="#F5F6F6"/>
<path d="M178.478 204.802H173.818V210.363H178.478V204.802Z" fill="#F5F6F6"/>
<path d="M170.285 204.802H165.625V210.363H170.285V204.802Z" fill="#F5F6F6"/>
<path d="M162.018 204.802H157.359V210.363H162.018V204.802Z" fill="#F5F6F6"/>
<path d="M145.559 204.802H140.899V210.363H145.559V204.802Z" fill="#F5F6F6"/>
<path d="M137.367 204.802H132.707V210.363H137.367V204.802Z" fill="#F5F6F6"/>
<path d="M129.175 204.802H124.515V210.363H129.175V204.802Z" fill="#F5F6F6"/>
<path d="M120.907 204.802H116.248V210.363H120.907V204.802Z" fill="#F5F6F6"/>
<path d="M112.715 204.802H108.056V210.363H112.715V204.802Z" fill="#F5F6F6"/>
<path d="M104.448 204.802H99.7886V210.363H104.448V204.802Z" fill="#F5F6F6"/>
<path d="M96.256 204.802H91.5963V210.363H96.256V204.802Z" fill="#F5F6F6"/>
<path d="M87.989 204.802H83.3293V210.363H87.989V204.802Z" fill="#F5F6F6"/>
<path d="M79.7972 204.802H75.1375V210.363H79.7972V204.802Z" fill="#F5F6F6"/>
<path d="M71.6044 204.802H66.9447V210.363H71.6044V204.802Z" fill="#F5F6F6"/>
<path d="M63.3373 204.802H58.6776V210.363H63.3373V204.802Z" fill="#F5F6F6"/>
<path d="M55.1456 204.802H50.4858V210.363H55.1456V204.802Z" fill="#F5F6F6"/>
<path d="M46.8781 204.802H42.2184V210.363H46.8781V204.802Z" fill="#F5F6F6"/>
<path d="M38.6862 204.802H34.0265V210.363H38.6862V204.802Z" fill="#F5F6F6"/>
<path d="M30.4934 204.802H25.8337V210.363H30.4934V204.802Z" fill="#F5F6F6"/>
<path d="M22.2265 204.802H17.5668V210.363H22.2265V204.802Z" fill="#F5F6F6"/>
<path d="M14.0342 204.802H9.37451V210.363H14.0342V204.802Z" fill="#F5F6F6"/>
<path d="M5.76715 204.802H1.10742V210.363H5.76715V204.802Z" fill="#F5F6F6"/>
<path d="M367.572 195.033H362.912V200.594H367.572V195.033Z" fill="#F5F6F6"/>
<path d="M359.38 195.033H354.721V200.594H359.38V195.033Z" fill="#F5F6F6"/>
<path d="M351.188 195.033H346.529V200.594H351.188V195.033Z" fill="#F5F6F6"/>
<path d="M342.92 195.033H338.261V200.594H342.92V195.033Z" fill="#F5F6F6"/>
<path d="M334.728 195.033H330.069V200.594H334.728V195.033Z" fill="#F5F6F6"/>
<path d="M326.461 195.033H321.802V200.594H326.461V195.033Z" fill="#F5F6F6"/>
<path d="M318.269 195.033H313.609V200.594H318.269V195.033Z" fill="#F5F6F6"/>
<path d="M310.077 195.033H305.417V200.594H310.077V195.033Z" fill="#F5F6F6"/>
<path d="M301.81 195.033H297.15V200.594H301.81V195.033Z" fill="#F5F6F6"/>
<path d="M293.617 195.033H288.958V200.594H293.617V195.033Z" fill="#F5F6F6"/>
<path d="M285.35 195.033H280.691V200.594H285.35V195.033Z" fill="#F5F6F6"/>
<path d="M277.159 195.033H272.499V200.594H277.159V195.033Z" fill="#F5F6F6"/>
<path d="M268.891 195.033H264.231V200.594H268.891V195.033Z" fill="#F5F6F6"/>
<path d="M260.699 195.033H256.039V200.594H260.699V195.033Z" fill="#F5F6F6"/>
<path d="M252.507 195.033H247.847V200.594H252.507V195.033Z" fill="#F5F6F6"/>
<path d="M244.24 195.033H239.58V200.594H244.24V195.033Z" fill="#F5F6F6"/>
<path d="M236.048 195.033H231.388V200.594H236.048V195.033Z" fill="#F5F6F6"/>
<path d="M203.129 195.033H198.469V200.594H203.129V195.033Z" fill="#F5F6F6"/>
<path d="M194.936 195.033H190.277V200.594H194.936V195.033Z" fill="#F5F6F6"/>
<path d="M186.67 195.033H182.01V200.594H186.67V195.033Z" fill="#F5F6F6"/>
<path d="M178.478 195.033H173.818V200.594H178.478V195.033Z" fill="#F5F6F6"/>
<path d="M170.285 195.033H165.625V200.594H170.285V195.033Z" fill="#F5F6F6"/>
<path d="M162.018 195.033H157.359V200.594H162.018V195.033Z" fill="#F5F6F6"/>
<path d="M137.367 195.033H132.707V200.594H137.367V195.033Z" fill="#F5F6F6"/>
<path d="M129.175 195.033H124.515V200.594H129.175V195.033Z" fill="#F5F6F6"/>
<path d="M120.907 195.033H116.248V200.594H120.907V195.033Z" fill="#F5F6F6"/>
<path d="M112.715 195.033H108.056V200.594H112.715V195.033Z" fill="#F5F6F6"/>
<path d="M104.448 195.033H99.7886V200.594H104.448V195.033Z" fill="#F5F6F6"/>
<path d="M96.256 195.033H91.5963V200.594H96.256V195.033Z" fill="#F5F6F6"/>
<path d="M87.989 195.033H83.3293V200.594H87.989V195.033Z" fill="#F5F6F6"/>
<path d="M79.7972 195.033H75.1375V200.594H79.7972V195.033Z" fill="#F5F6F6"/>
<path d="M71.6044 195.033H66.9447V200.594H71.6044V195.033Z" fill="#F5F6F6"/>
<path d="M63.3373 195.033H58.6776V200.594H63.3373V195.033Z" fill="#F5F6F6"/>
<path d="M55.1456 195.033H50.4858V200.594H55.1456V195.033Z" fill="#F5F6F6"/>
<path d="M46.8781 195.033H42.2184V200.594H46.8781V195.033Z" fill="#F5F6F6"/>
<path d="M38.6862 195.033H34.0265V200.594H38.6862V195.033Z" fill="#F5F6F6"/>
<path d="M30.4934 195.033H25.8337V200.594H30.4934V195.033Z" fill="#F5F6F6"/>
<path d="M22.2265 195.033H17.5668V200.594H22.2265V195.033Z" fill="#F5F6F6"/>
<path d="M14.0342 195.033H9.37451V200.594H14.0342V195.033Z" fill="#F5F6F6"/>
<path d="M5.76715 195.033H1.10742V200.594H5.76715V195.033Z" fill="#F5F6F6"/>
<path d="M375.839 185.262H371.18V190.824H375.839V185.262Z" fill="#F5F6F6"/>
<path d="M367.572 185.262H362.912V190.824H367.572V185.262Z" fill="#F5F6F6"/>
<path d="M359.38 185.262H354.721V190.824H359.38V185.262Z" fill="#F5F6F6"/>
<path d="M351.188 185.262H346.529V190.824H351.188V185.262Z" fill="#F5F6F6"/>
<path d="M342.92 185.262H338.261V190.824H342.92V185.262Z" fill="#F5F6F6"/>
<path d="M334.728 185.262H330.069V190.824H334.728V185.262Z" fill="#F5F6F6"/>
<path d="M326.461 185.262H321.802V190.824H326.461V185.262Z" fill="#F5F6F6"/>
<path d="M318.269 185.262H313.609V190.824H318.269V185.262Z" fill="#F5F6F6"/>
<path d="M310.077 185.262H305.417V190.824H310.077V185.262Z" fill="#F5F6F6"/>
<path d="M301.81 185.262H297.15V190.824H301.81V185.262Z" fill="#F5F6F6"/>
<path d="M293.617 185.262H288.958V190.824H293.617V185.262Z" fill="#F5F6F6"/>
<path d="M285.35 185.262H280.691V190.824H285.35V185.262Z" fill="#F5F6F6"/>
<path d="M277.159 185.262H272.499V190.824H277.159V185.262Z" fill="#F5F6F6"/>
<path d="M268.891 185.262H264.231V190.824H268.891V185.262Z" fill="#F5F6F6"/>
<path d="M260.699 185.262H256.039V190.824H260.699V185.262Z" fill="#F5F6F6"/>
<path d="M252.507 185.262H247.847V190.824H252.507V185.262Z" fill="#F5F6F6"/>
<path d="M244.24 185.262H239.58V190.824H244.24V185.262Z" fill="#F5F6F6"/>
<path d="M236.048 185.262H231.388V190.824H236.048V185.262Z" fill="#F5F6F6"/>
<path d="M227.78 185.262H223.12V190.824H227.78V185.262Z" fill="#F5F6F6"/>
<path d="M219.588 185.262H214.928V190.824H219.588V185.262Z" fill="#F5F6F6"/>
<path d="M211.396 185.262H206.737V190.824H211.396V185.262Z" fill="#F5F6F6"/>
<path d="M186.67 185.262H182.01V190.824H186.67V185.262Z" fill="#F5F6F6"/>
<path d="M178.478 185.262H173.818V190.824H178.478V185.262Z" fill="#F5F6F6"/>
<path d="M170.285 185.262H165.625V190.824H170.285V185.262Z" fill="#F5F6F6"/>
<path d="M162.018 185.262H157.359V190.824H162.018V185.262Z" fill="#F5F6F6"/>
<path d="M153.826 185.262H149.167V190.824H153.826V185.262Z" fill="#F5F6F6"/>
<path d="M137.367 185.262H132.707V190.824H137.367V185.262Z" fill="#F5F6F6"/>
<path d="M129.175 185.262H124.515V190.824H129.175V185.262Z" fill="#F5F6F6"/>
<path d="M120.907 185.262H116.248V190.824H120.907V185.262Z" fill="#F5F6F6"/>
<path d="M112.715 185.262H108.056V190.824H112.715V185.262Z" fill="#F5F6F6"/>
<path d="M104.448 185.262H99.7886V190.824H104.448V185.262Z" fill="#F5F6F6"/>
<path d="M96.256 185.262H91.5963V190.824H96.256V185.262Z" fill="#F5F6F6"/>
<path d="M87.989 185.262H83.3293V190.824H87.989V185.262Z" fill="#F5F6F6"/>
<path d="M79.7972 185.262H75.1375V190.824H79.7972V185.262Z" fill="#F5F6F6"/>
<path d="M71.6044 185.262H66.9447V190.824H71.6044V185.262Z" fill="#F5F6F6"/>
<path d="M63.3373 185.262H58.6776V190.824H63.3373V185.262Z" fill="#F5F6F6"/>
<path d="M55.1456 185.262H50.4858V190.824H55.1456V185.262Z" fill="#F5F6F6"/>
<path d="M46.8781 185.262H42.2184V190.824H46.8781V185.262Z" fill="#F5F6F6"/>
<path d="M38.6862 185.262H34.0265V190.824H38.6862V185.262Z" fill="#F5F6F6"/>
<path d="M30.4934 185.262H25.8337V190.824H30.4934V185.262Z" fill="#F5F6F6"/>
<path d="M22.2265 185.262H17.5668V190.824H22.2265V185.262Z" fill="#F5F6F6"/>
<path d="M14.0342 185.262H9.37451V190.824H14.0342V185.262Z" fill="#F5F6F6"/>
<path d="M375.839 175.566H371.18V181.128H375.839V175.566Z" fill="#F5F6F6"/>
<path d="M367.572 175.566H362.912V181.128H367.572V175.566Z" fill="#F5F6F6"/>
<path d="M359.38 175.566H354.721V181.128H359.38V175.566Z" fill="#F5F6F6"/>
<path d="M351.188 175.566H346.529V181.128H351.188V175.566Z" fill="#F5F6F6"/>
<path d="M342.92 175.566H338.261V181.128H342.92V175.566Z" fill="#F5F6F6"/>
<path d="M334.728 175.566H330.069V181.128H334.728V175.566Z" fill="#F5F6F6"/>
<path d="M326.461 175.566H321.802V181.128H326.461V175.566Z" fill="#F5F6F6"/>
<path d="M318.269 175.566H313.609V181.128H318.269V175.566Z" fill="#F5F6F6"/>
<path d="M310.077 175.566H305.417V181.128H310.077V175.566Z" fill="#F5F6F6"/>
<path d="M301.81 175.566H297.15V181.128H301.81V175.566Z" fill="#F5F6F6"/>
<path d="M293.617 175.566H288.958V181.128H293.617V175.566Z" fill="#F5F6F6"/>
<path d="M285.35 175.566H280.691V181.128H285.35V175.566Z" fill="#F5F6F6"/>
<path d="M277.159 175.566H272.499V181.128H277.159V175.566Z" fill="#F5F6F6"/>
<path d="M268.891 175.566H264.231V181.128H268.891V175.566Z" fill="#F5F6F6"/>
<path d="M260.699 175.566H256.039V181.128H260.699V175.566Z" fill="#F5F6F6"/>
<path d="M252.507 175.566H247.847V181.128H252.507V175.566Z" fill="#F5F6F6"/>
<path d="M244.24 175.566H239.58V181.128H244.24V175.566Z" fill="#F5F6F6"/>
<path d="M236.048 175.566H231.388V181.128H236.048V175.566Z" fill="#F5F6F6"/>
<path d="M227.78 175.566H223.12V181.128H227.78V175.566Z" fill="#F5F6F6"/>
<path d="M219.588 175.566H214.928V181.128H219.588V175.566Z" fill="#F5F6F6"/>
<path d="M211.396 175.566H206.737V181.128H211.396V175.566Z" fill="#F5F6F6"/>
<path d="M203.129 175.566H198.469V181.128H203.129V175.566Z" fill="#F5F6F6"/>
<path d="M194.936 175.566H190.277V181.128H194.936V175.566Z" fill="#F5F6F6"/>
<path d="M170.285 175.566H165.625V181.128H170.285V175.566Z" fill="#F5F6F6"/>
<path d="M162.018 175.566H157.359V181.128H162.018V175.566Z" fill="#F5F6F6"/>
<path d="M153.826 175.566H149.167V181.128H153.826V175.566Z" fill="#F5F6F6"/>
<path d="M145.559 175.566H140.899V181.128H145.559V175.566Z" fill="#F5F6F6"/>
<path d="M129.175 175.566H124.515V181.128H129.175V175.566Z" fill="#F5F6F6"/>
<path d="M120.907 175.566H116.248V181.128H120.907V175.566Z" fill="#F5F6F6"/>
<path d="M112.715 175.566H108.056V181.128H112.715V175.566Z" fill="#F5F6F6"/>
<path d="M104.448 175.566H99.7886V181.128H104.448V175.566Z" fill="#F5F6F6"/>
<path d="M96.256 175.566H91.5963V181.128H96.256V175.566Z" fill="#F5F6F6"/>
<path d="M87.989 175.566H83.3293V181.128H87.989V175.566Z" fill="#F5F6F6"/>
<path d="M79.7972 175.566H75.1375V181.128H79.7972V175.566Z" fill="#F5F6F6"/>
<path d="M71.6044 175.566H66.9447V181.128H71.6044V175.566Z" fill="#F5F6F6"/>
<path d="M63.3373 175.566H58.6776V181.128H63.3373V175.566Z" fill="#F5F6F6"/>
<path d="M55.1456 175.566H50.4858V181.128H55.1456V175.566Z" fill="#F5F6F6"/>
<path d="M46.8781 175.566H42.2184V181.128H46.8781V175.566Z" fill="#F5F6F6"/>
<path d="M38.6862 175.566H34.0265V181.128H38.6862V175.566Z" fill="#F5F6F6"/>
<path d="M30.4934 175.566H25.8337V181.128H30.4934V175.566Z" fill="#F5F6F6"/>
<path d="M22.2265 175.566H17.5668V181.128H22.2265V175.566Z" fill="#F5F6F6"/>
<path d="M408.683 165.796H404.023V171.357H408.683V165.796Z" fill="#F5F6F6"/>
<path d="M375.839 165.796H371.18V171.357H375.839V165.796Z" fill="#F5F6F6"/>
<path d="M367.572 165.796H362.912V171.357H367.572V165.796Z" fill="#F5F6F6"/>
<path d="M359.38 165.796H354.721V171.357H359.38V165.796Z" fill="#F5F6F6"/>
<path d="M351.188 165.796H346.529V171.357H351.188V165.796Z" fill="#F5F6F6"/>
<path d="M342.92 165.796H338.261V171.357H342.92V165.796Z" fill="#F5F6F6"/>
<path d="M334.728 165.796H330.069V171.357H334.728V165.796Z" fill="#F5F6F6"/>
<path d="M326.461 165.796H321.802V171.357H326.461V165.796Z" fill="#F5F6F6"/>
<path d="M318.269 165.796H313.609V171.357H318.269V165.796Z" fill="#F5F6F6"/>
<path d="M310.077 165.796H305.417V171.357H310.077V165.796Z" fill="#F5F6F6"/>
<path d="M301.81 165.796H297.15V171.357H301.81V165.796Z" fill="#F5F6F6"/>
<path d="M293.617 165.796H288.958V171.357H293.617V165.796Z" fill="#F5F6F6"/>
<path d="M285.35 165.796H280.691V171.357H285.35V165.796Z" fill="#F5F6F6"/>
<path d="M277.159 165.796H272.499V171.357H277.159V165.796Z" fill="#F5F6F6"/>
<path d="M268.891 165.796H264.231V171.357H268.891V165.796Z" fill="#F5F6F6"/>
<path d="M260.699 165.796H256.039V171.357H260.699V165.796Z" fill="#F5F6F6"/>
<path d="M252.507 165.796H247.847V171.357H252.507V165.796Z" fill="#F5F6F6"/>
<path d="M244.24 165.796H239.58V171.357H244.24V165.796Z" fill="#F5F6F6"/>
<path d="M236.048 165.796H231.388V171.357H236.048V165.796Z" fill="#F5F6F6"/>
<path d="M227.78 165.796H223.12V171.357H227.78V165.796Z" fill="#F5F6F6"/>
<path d="M219.588 165.796H214.928V171.357H219.588V165.796Z" fill="#F5F6F6"/>
<path d="M211.396 165.796H206.737V171.357H211.396V165.796Z" fill="#F5F6F6"/>
<path d="M203.129 165.796H198.469V171.357H203.129V165.796Z" fill="#F5F6F6"/>
<path d="M194.936 165.796H190.277V171.357H194.936V165.796Z" fill="#F5F6F6"/>
<path d="M186.67 165.796H182.01V171.357H186.67V165.796Z" fill="#F5F6F6"/>
<path d="M178.478 165.796H173.818V171.357H178.478V165.796Z" fill="#F5F6F6"/>
<path d="M170.285 165.796H165.625V171.357H170.285V165.796Z" fill="#F5F6F6"/>
<path d="M162.018 165.796H157.359V171.357H162.018V165.796Z" fill="#F5F6F6"/>
<path d="M153.826 165.796H149.167V171.357H153.826V165.796Z" fill="#F5F6F6"/>
<path d="M145.559 165.796H140.899V171.357H145.559V165.796Z" fill="#F5F6F6"/>
<path d="M104.448 165.796H99.7886V171.357H104.448V165.796Z" fill="#F5F6F6"/>
<path d="M79.7972 165.796H75.1375V171.357H79.7972V165.796Z" fill="#F5F6F6"/>
<path d="M71.6044 165.796H66.9447V171.357H71.6044V165.796Z" fill="#F5F6F6"/>
<path d="M63.3373 165.796H58.6776V171.357H63.3373V165.796Z" fill="#F5F6F6"/>
<path d="M55.1456 165.796H50.4858V171.357H55.1456V165.796Z" fill="#F5F6F6"/>
<path d="M46.8781 165.796H42.2184V171.357H46.8781V165.796Z" fill="#F5F6F6"/>
<path d="M38.6862 165.796H34.0265V171.357H38.6862V165.796Z" fill="#F5F6F6"/>
<path d="M30.4934 165.796H25.8337V171.357H30.4934V165.796Z" fill="#F5F6F6"/>
<path d="M425.142 156.025H420.482V161.586H425.142V156.025Z" fill="#F5F6F6"/>
<path d="M400.49 156.025H395.831V161.586H400.49V156.025Z" fill="#F5F6F6"/>
<path d="M375.839 156.025H371.18V161.586H375.839V156.025Z" fill="#F5F6F6"/>
<path d="M367.572 156.025H362.912V161.586H367.572V156.025Z" fill="#F5F6F6"/>
<path d="M359.38 156.025H354.721V161.586H359.38V156.025Z" fill="#F5F6F6"/>
<path d="M351.188 156.025H346.529V161.586H351.188V156.025Z" fill="#F5F6F6"/>
<path d="M342.92 156.025H338.261V161.586H342.92V156.025Z" fill="#F5F6F6"/>
<path d="M334.728 156.025H330.069V161.586H334.728V156.025Z" fill="#F5F6F6"/>
<path d="M326.461 156.025H321.802V161.586H326.461V156.025Z" fill="#F5F6F6"/>
<path d="M318.269 156.025H313.609V161.586H318.269V156.025Z" fill="#F5F6F6"/>
<path d="M310.077 156.025H305.417V161.586H310.077V156.025Z" fill="#F5F6F6"/>
<path d="M301.81 156.025H297.15V161.586H301.81V156.025Z" fill="#F5F6F6"/>
<path d="M293.617 156.025H288.958V161.586H293.617V156.025Z" fill="#F5F6F6"/>
<path d="M285.35 156.025H280.691V161.586H285.35V156.025Z" fill="#F5F6F6"/>
<path d="M277.159 156.025H272.499V161.586H277.159V156.025Z" fill="#F5F6F6"/>
<path d="M268.891 156.025H264.231V161.586H268.891V156.025Z" fill="#F5F6F6"/>
<path d="M260.699 156.025H256.039V161.586H260.699V156.025Z" fill="#F5F6F6"/>
<path d="M252.507 156.025H247.847V161.586H252.507V156.025Z" fill="#F5F6F6"/>
<path d="M244.24 156.025H239.58V161.586H244.24V156.025Z" fill="#F5F6F6"/>
<path d="M236.048 156.025H231.388V161.586H236.048V156.025Z" fill="#F5F6F6"/>
<path d="M227.78 156.025H223.12V161.586H227.78V156.025Z" fill="#F5F6F6"/>
<path d="M219.588 156.025H214.928V161.586H219.588V156.025Z" fill="#F5F6F6"/>
<path d="M211.396 156.025H206.737V161.586H211.396V156.025Z" fill="#F5F6F6"/>
<path d="M203.129 156.025H198.469V161.586H203.129V156.025Z" fill="#F5F6F6"/>
<path d="M194.936 156.025H190.277V161.586H194.936V156.025Z" fill="#F5F6F6"/>
<path d="M186.67 156.025H182.01V161.586H186.67V156.025Z" fill="#F5F6F6"/>
<path d="M178.478 156.025H173.818V161.586H178.478V156.025Z" fill="#F5F6F6"/>
<path d="M170.285 156.025H165.625V161.586H170.285V156.025Z" fill="#F5F6F6"/>
<path d="M162.018 156.025H157.359V161.586H162.018V156.025Z" fill="#F5F6F6"/>
<path d="M153.826 156.025H149.167V161.586H153.826V156.025Z" fill="#F5F6F6"/>
<path d="M71.6044 156.025H66.9447V161.586H71.6044V156.025Z" fill="#F5F6F6"/>
<path d="M63.3373 156.025H58.6776V161.586H63.3373V156.025Z" fill="#F5F6F6"/>
<path d="M55.1456 156.025H50.4858V161.586H55.1456V156.025Z" fill="#F5F6F6"/>
<path d="M46.8781 156.025H42.2184V161.586H46.8781V156.025Z" fill="#F5F6F6"/>
<path d="M433.409 146.256H428.75V151.817H433.409V146.256Z" fill="#F5F6F6"/>
<path d="M400.49 146.256H395.831V151.817H400.49V146.256Z" fill="#F5F6F6"/>
<path d="M375.839 146.256H371.18V151.817H375.839V146.256Z" fill="#F5F6F6"/>
<path d="M367.572 146.256H362.912V151.817H367.572V146.256Z" fill="#F5F6F6"/>
<path d="M359.38 146.256H354.721V151.817H359.38V146.256Z" fill="#F5F6F6"/>
<path d="M351.188 146.256H346.529V151.817H351.188V146.256Z" fill="#F5F6F6"/>
<path d="M342.92 146.256H338.261V151.817H342.92V146.256Z" fill="#F5F6F6"/>
<path d="M334.728 146.256H330.069V151.817H334.728V146.256Z" fill="#F5F6F6"/>
<path d="M326.461 146.256H321.802V151.817H326.461V146.256Z" fill="#F5F6F6"/>
<path d="M318.269 146.256H313.609V151.817H318.269V146.256Z" fill="#F5F6F6"/>
<path d="M310.077 146.256H305.417V151.817H310.077V146.256Z" fill="#F5F6F6"/>
<path d="M301.81 146.256H297.15V151.817H301.81V146.256Z" fill="#F5F6F6"/>
<path d="M293.617 146.256H288.958V151.817H293.617V146.256Z" fill="#F5F6F6"/>
<path d="M285.35 146.256H280.691V151.817H285.35V146.256Z" fill="#F5F6F6"/>
<path d="M277.159 146.256H272.499V151.817H277.159V146.256Z" fill="#F5F6F6"/>
<path d="M268.891 146.256H264.231V151.817H268.891V146.256Z" fill="#F5F6F6"/>
<path d="M260.699 146.256H256.039V151.817H260.699V146.256Z" fill="#F5F6F6"/>
<path d="M252.507 146.256H247.847V151.817H252.507V146.256Z" fill="#F5F6F6"/>
<path d="M244.24 146.256H239.58V151.817H244.24V146.256Z" fill="#F5F6F6"/>
<path d="M236.048 146.256H231.388V151.817H236.048V146.256Z" fill="#F5F6F6"/>
<path d="M227.78 146.256H223.12V151.817H227.78V146.256Z" fill="#F5F6F6"/>
<path d="M219.588 146.256H214.928V151.817H219.588V146.256Z" fill="#F5F6F6"/>
<path d="M211.396 146.256H206.737V151.817H211.396V146.256Z" fill="#F5F6F6"/>
<path d="M203.129 146.256H198.469V151.817H203.129V146.256Z" fill="#F5F6F6"/>
<path d="M178.478 146.256H173.818V151.817H178.478V146.256Z" fill="#F5F6F6"/>
<path d="M170.285 146.256H165.625V151.817H170.285V146.256Z" fill="#F5F6F6"/>
<path d="M162.018 146.256H157.359V151.817H162.018V146.256Z" fill="#F5F6F6"/>
<path d="M153.826 146.256H149.167V151.817H153.826V146.256Z" fill="#F5F6F6"/>
<path d="M145.559 146.256H140.899V151.817H145.559V146.256Z" fill="#F5F6F6"/>
<path d="M137.367 146.256H132.707V151.817H137.367V146.256Z" fill="#F5F6F6"/>
<path d="M129.175 146.256H124.515V151.817H129.175V146.256Z" fill="#F5F6F6"/>
<path d="M87.989 146.256H83.3293V151.817H87.989V146.256Z" fill="#F5F6F6"/>
<path d="M38.6862 146.256H34.0265V151.817H38.6862V146.256Z" fill="#F5F6F6"/>
<path d="M30.4934 146.256H25.8337V151.817H30.4934V146.256Z" fill="#F5F6F6"/>
<path d="M433.409 136.56H428.75V142.122H433.409V136.56Z" fill="#F5F6F6"/>
<path d="M400.49 136.56H395.831V142.122H400.49V136.56Z" fill="#F5F6F6"/>
<path d="M392.299 136.56H387.639V142.122H392.299V136.56Z" fill="#F5F6F6"/>
<path d="M384.032 136.56H379.372V142.122H384.032V136.56Z" fill="#F5F6F6"/>
<path d="M375.839 136.56H371.18V142.122H375.839V136.56Z" fill="#F5F6F6"/>
<path d="M367.572 136.56H362.912V142.122H367.572V136.56Z" fill="#F5F6F6"/>
<path d="M359.38 136.56H354.721V142.122H359.38V136.56Z" fill="#F5F6F6"/>
<path d="M351.188 136.56H346.529V142.122H351.188V136.56Z" fill="#F5F6F6"/>
<path d="M342.92 136.56H338.261V142.122H342.92V136.56Z" fill="#F5F6F6"/>
<path d="M334.728 136.56H330.069V142.122H334.728V136.56Z" fill="#F5F6F6"/>
<path d="M326.461 136.56H321.802V142.122H326.461V136.56Z" fill="#F5F6F6"/>
<path d="M318.269 136.56H313.609V142.122H318.269V136.56Z" fill="#F5F6F6"/>
<path d="M310.077 136.56H305.417V142.122H310.077V136.56Z" fill="#F5F6F6"/>
<path d="M301.81 136.56H297.15V142.122H301.81V136.56Z" fill="#F5F6F6"/>
<path d="M293.617 136.56H288.958V142.122H293.617V136.56Z" fill="#F5F6F6"/>
<path d="M285.35 136.56H280.691V142.122H285.35V136.56Z" fill="#F5F6F6"/>
<path d="M277.159 136.56H272.499V142.122H277.159V136.56Z" fill="#F5F6F6"/>
<path d="M268.891 136.56H264.231V142.122H268.891V136.56Z" fill="#F5F6F6"/>
<path d="M260.699 136.56H256.039V142.122H260.699V136.56Z" fill="#F5F6F6"/>
<path d="M252.507 136.56H247.847V142.122H252.507V136.56Z" fill="#F5F6F6"/>
<path d="M244.24 136.56H239.58V142.122H244.24V136.56Z" fill="#F5F6F6"/>
<path d="M236.048 136.56H231.388V142.122H236.048V136.56Z" fill="#F5F6F6"/>
<path d="M227.78 136.56H223.12V142.122H227.78V136.56Z" fill="#F5F6F6"/>
<path d="M219.588 136.56H214.928V142.122H219.588V136.56Z" fill="#F5F6F6"/>
<path d="M211.396 136.56H206.737V142.122H211.396V136.56Z" fill="#F5F6F6"/>
<path d="M203.129 136.56H198.469V142.122H203.129V136.56Z" fill="#F5F6F6"/>
<path d="M178.478 136.56H173.818V142.122H178.478V136.56Z" fill="#F5F6F6"/>
<path d="M170.285 136.56H165.625V142.122H170.285V136.56Z" fill="#F5F6F6"/>
<path d="M162.018 136.56H157.359V142.122H162.018V136.56Z" fill="#F5F6F6"/>
<path d="M145.559 136.56H140.899V142.122H145.559V136.56Z" fill="#F5F6F6"/>
<path d="M137.367 136.56H132.707V142.122H137.367V136.56Z" fill="#F5F6F6"/>
<path d="M129.175 136.56H124.515V142.122H129.175V136.56Z" fill="#F5F6F6"/>
<path d="M120.907 136.56H116.248V142.122H120.907V136.56Z" fill="#F5F6F6"/>
<path d="M104.448 136.56H99.7886V142.122H104.448V136.56Z" fill="#F5F6F6"/>
<path d="M87.989 136.56H83.3293V142.122H87.989V136.56Z" fill="#F5F6F6"/>
<path d="M46.8781 136.56H42.2184V142.122H46.8781V136.56Z" fill="#F5F6F6"/>
<path d="M38.6862 136.56H34.0265V142.122H38.6862V136.56Z" fill="#F5F6F6"/>
<path d="M30.4934 136.56H25.8337V142.122H30.4934V136.56Z" fill="#F5F6F6"/>
<path d="M441.601 126.789H436.942V132.351H441.601V126.789Z" fill="#F5F6F6"/>
<path d="M416.95 126.789H412.29V132.351H416.95V126.789Z" fill="#F5F6F6"/>
<path d="M408.683 126.789H404.023V132.351H408.683V126.789Z" fill="#F5F6F6"/>
<path d="M400.49 126.789H395.831V132.351H400.49V126.789Z" fill="#F5F6F6"/>
<path d="M392.299 126.789H387.639V132.351H392.299V126.789Z" fill="#F5F6F6"/>
<path d="M384.032 126.789H379.372V132.351H384.032V126.789Z" fill="#F5F6F6"/>
<path d="M375.839 126.789H371.18V132.351H375.839V126.789Z" fill="#F5F6F6"/>
<path d="M367.572 126.789H362.912V132.351H367.572V126.789Z" fill="#F5F6F6"/>
<path d="M359.38 126.789H354.721V132.351H359.38V126.789Z" fill="#F5F6F6"/>
<path d="M351.188 126.789H346.529V132.351H351.188V126.789Z" fill="#F5F6F6"/>
<path d="M342.92 126.789H338.261V132.351H342.92V126.789Z" fill="#F5F6F6"/>
<path d="M334.728 126.789H330.069V132.351H334.728V126.789Z" fill="#F5F6F6"/>
<path d="M326.461 126.789H321.802V132.351H326.461V126.789Z" fill="#F5F6F6"/>
<path d="M318.269 126.789H313.609V132.351H318.269V126.789Z" fill="#F5F6F6"/>
<path d="M310.077 126.789H305.417V132.351H310.077V126.789Z" fill="#F5F6F6"/>
<path d="M301.81 126.789H297.15V132.351H301.81V126.789Z" fill="#F5F6F6"/>
<path d="M293.617 126.789H288.958V132.351H293.617V126.789Z" fill="#F5F6F6"/>
<path d="M285.35 126.789H280.691V132.351H285.35V126.789Z" fill="#F5F6F6"/>
<path d="M277.159 126.789H272.499V132.351H277.159V126.789Z" fill="#F5F6F6"/>
<path d="M268.891 126.789H264.231V132.351H268.891V126.789Z" fill="#F5F6F6"/>
<path d="M260.699 126.789H256.039V132.351H260.699V126.789Z" fill="#F5F6F6"/>
<path d="M252.507 126.789H247.847V132.351H252.507V126.789Z" fill="#F5F6F6"/>
<path d="M244.24 126.789H239.58V132.351H244.24V126.789Z" fill="#F5F6F6"/>
<path d="M236.048 126.789H231.388V132.351H236.048V126.789Z" fill="#F5F6F6"/>
<path d="M227.78 126.789H223.12V132.351H227.78V126.789Z" fill="#F5F6F6"/>
<path d="M219.588 126.789H214.928V132.351H219.588V126.789Z" fill="#F5F6F6"/>
<path d="M211.396 126.789H206.737V132.351H211.396V126.789Z" fill="#F5F6F6"/>
<path d="M203.129 126.789H198.469V132.351H203.129V126.789Z" fill="#F5F6F6"/>
<path d="M194.936 126.789H190.277V132.351H194.936V126.789Z" fill="#F5F6F6"/>
<path d="M170.285 126.789H165.625V132.351H170.285V126.789Z" fill="#F5F6F6"/>
<path d="M162.018 126.789H157.359V132.351H162.018V126.789Z" fill="#F5F6F6"/>
<path d="M120.907 126.789H116.248V132.351H120.907V126.789Z" fill="#F5F6F6"/>
<path d="M112.715 126.789H108.056V132.351H112.715V126.789Z" fill="#F5F6F6"/>
<path d="M104.448 126.789H99.7886V132.351H104.448V126.789Z" fill="#F5F6F6"/>
<path d="M96.256 126.789H91.5963V132.351H96.256V126.789Z" fill="#F5F6F6"/>
<path d="M79.7972 126.789H75.1375V132.351H79.7972V126.789Z" fill="#F5F6F6"/>
<path d="M63.3373 126.789H58.6776V132.351H63.3373V126.789Z" fill="#F5F6F6"/>
<path d="M55.1456 126.789H50.4858V132.351H55.1456V126.789Z" fill="#F5F6F6"/>
<path d="M46.8781 126.789H42.2184V132.351H46.8781V126.789Z" fill="#F5F6F6"/>
<path d="M425.142 117.019H420.482V122.58H425.142V117.019Z" fill="#F5F6F6"/>
<path d="M416.95 117.019H412.29V122.58H416.95V117.019Z" fill="#F5F6F6"/>
<path d="M408.683 117.019H404.023V122.58H408.683V117.019Z" fill="#F5F6F6"/>
<path d="M400.49 117.019H395.831V122.58H400.49V117.019Z" fill="#F5F6F6"/>
<path d="M392.299 117.019H387.639V122.58H392.299V117.019Z" fill="#F5F6F6"/>
<path d="M384.032 117.019H379.372V122.58H384.032V117.019Z" fill="#F5F6F6"/>
<path d="M375.839 117.019H371.18V122.58H375.839V117.019Z" fill="#F5F6F6"/>
<path d="M367.572 117.019H362.912V122.58H367.572V117.019Z" fill="#F5F6F6"/>
<path d="M359.38 117.019H354.721V122.58H359.38V117.019Z" fill="#F5F6F6"/>
<path d="M351.188 117.019H346.529V122.58H351.188V117.019Z" fill="#F5F6F6"/>
<path d="M342.92 117.019H338.261V122.58H342.92V117.019Z" fill="#F5F6F6"/>
<path d="M334.728 117.019H330.069V122.58H334.728V117.019Z" fill="#F5F6F6"/>
<path d="M326.461 117.019H321.802V122.58H326.461V117.019Z" fill="#F5F6F6"/>
<path d="M318.269 117.019H313.609V122.58H318.269V117.019Z" fill="#F5F6F6"/>
<path d="M310.077 117.019H305.417V122.58H310.077V117.019Z" fill="#F5F6F6"/>
<path d="M301.81 117.019H297.15V122.58H301.81V117.019Z" fill="#F5F6F6"/>
<path d="M293.617 117.019H288.958V122.58H293.617V117.019Z" fill="#F5F6F6"/>
<path d="M285.35 117.019H280.691V122.58H285.35V117.019Z" fill="#F5F6F6"/>
<path d="M277.159 117.019H272.499V122.58H277.159V117.019Z" fill="#F5F6F6"/>
<path d="M268.891 117.019H264.231V122.58H268.891V117.019Z" fill="#F5F6F6"/>
<path d="M260.699 117.019H256.039V122.58H260.699V117.019Z" fill="#F5F6F6"/>
<path d="M252.507 117.019H247.847V122.58H252.507V117.019Z" fill="#F5F6F6"/>
<path d="M244.24 117.019H239.58V122.58H244.24V117.019Z" fill="#F5F6F6"/>
<path d="M236.048 117.019H231.388V122.58H236.048V117.019Z" fill="#F5F6F6"/>
<path d="M227.78 117.019H223.12V122.58H227.78V117.019Z" fill="#F5F6F6"/>
<path d="M219.588 117.019H214.928V122.58H219.588V117.019Z" fill="#F5F6F6"/>
<path d="M211.396 117.019H206.737V122.58H211.396V117.019Z" fill="#F5F6F6"/>
<path d="M203.129 117.019H198.469V122.58H203.129V117.019Z" fill="#F5F6F6"/>
<path d="M194.936 117.019H190.277V122.58H194.936V117.019Z" fill="#F5F6F6"/>
<path d="M178.478 117.019H173.818V122.58H178.478V117.019Z" fill="#F5F6F6"/>
<path d="M170.285 117.019H165.625V122.58H170.285V117.019Z" fill="#F5F6F6"/>
<path d="M162.018 117.019H157.359V122.58H162.018V117.019Z" fill="#F5F6F6"/>
<path d="M153.826 117.019H149.167V122.58H153.826V117.019Z" fill="#F5F6F6"/>
<path d="M137.367 117.019H132.707V122.58H137.367V117.019Z" fill="#F5F6F6"/>
<path d="M129.175 117.019H124.515V122.58H129.175V117.019Z" fill="#F5F6F6"/>
<path d="M120.907 117.019H116.248V122.58H120.907V117.019Z" fill="#F5F6F6"/>
<path d="M112.715 117.019H108.056V122.58H112.715V117.019Z" fill="#F5F6F6"/>
<path d="M104.448 117.019H99.7886V122.58H104.448V117.019Z" fill="#F5F6F6"/>
<path d="M96.256 117.019H91.5963V122.58H96.256V117.019Z" fill="#F5F6F6"/>
<path d="M87.989 117.019H83.3293V122.58H87.989V117.019Z" fill="#F5F6F6"/>
<path d="M79.7972 117.019H75.1375V122.58H79.7972V117.019Z" fill="#F5F6F6"/>
<path d="M71.6044 117.019H66.9447V122.58H71.6044V117.019Z" fill="#F5F6F6"/>
<path d="M63.3373 117.019H58.6776V122.58H63.3373V117.019Z" fill="#F5F6F6"/>
<path d="M55.1456 117.019H50.4858V122.58H55.1456V117.019Z" fill="#F5F6F6"/>
<path d="M46.8781 117.019H42.2184V122.58H46.8781V117.019Z" fill="#F5F6F6"/>
<path d="M441.601 107.249H436.942V112.81H441.601V107.249Z" fill="#F5F6F6"/>
<path d="M425.142 107.249H420.482V112.81H425.142V107.249Z" fill="#F5F6F6"/>
<path d="M416.95 107.249H412.29V112.81H416.95V107.249Z" fill="#F5F6F6"/>
<path d="M408.683 107.249H404.023V112.81H408.683V107.249Z" fill="#F5F6F6"/>
<path d="M400.49 107.249H395.831V112.81H400.49V107.249Z" fill="#F5F6F6"/>
<path d="M392.299 107.249H387.639V112.81H392.299V107.249Z" fill="#F5F6F6"/>
<path d="M384.032 107.249H379.372V112.81H384.032V107.249Z" fill="#F5F6F6"/>
<path d="M375.839 107.249H371.18V112.81H375.839V107.249Z" fill="#F5F6F6"/>
<path d="M367.572 107.249H362.912V112.81H367.572V107.249Z" fill="#F5F6F6"/>
<path d="M359.38 107.249H354.721V112.81H359.38V107.249Z" fill="#F5F6F6"/>
<path d="M351.188 107.249H346.529V112.81H351.188V107.249Z" fill="#F5F6F6"/>
<path d="M342.92 107.249H338.261V112.81H342.92V107.249Z" fill="#F5F6F6"/>
<path d="M334.728 107.249H330.069V112.81H334.728V107.249Z" fill="#F5F6F6"/>
<path d="M326.461 107.249H321.802V112.81H326.461V107.249Z" fill="#F5F6F6"/>
<path d="M318.269 107.249H313.609V112.81H318.269V107.249Z" fill="#F5F6F6"/>
<path d="M310.077 107.249H305.417V112.81H310.077V107.249Z" fill="#F5F6F6"/>
<path d="M301.81 107.249H297.15V112.81H301.81V107.249Z" fill="#F5F6F6"/>
<path d="M293.617 107.249H288.958V112.81H293.617V107.249Z" fill="#F5F6F6"/>
<path d="M285.35 107.249H280.691V112.81H285.35V107.249Z" fill="#F5F6F6"/>
<path d="M277.159 107.249H272.499V112.81H277.159V107.249Z" fill="#F5F6F6"/>
<path d="M268.891 107.249H264.231V112.81H268.891V107.249Z" fill="#F5F6F6"/>
<path d="M260.699 107.249H256.039V112.81H260.699V107.249Z" fill="#F5F6F6"/>
<path d="M252.507 107.249H247.847V112.81H252.507V107.249Z" fill="#F5F6F6"/>
<path d="M244.24 107.249H239.58V112.81H244.24V107.249Z" fill="#F5F6F6"/>
<path d="M236.048 107.249H231.388V112.81H236.048V107.249Z" fill="#F5F6F6"/>
<path d="M227.78 107.249H223.12V112.81H227.78V107.249Z" fill="#F5F6F6"/>
<path d="M219.588 107.249H214.928V112.81H219.588V107.249Z" fill="#F5F6F6"/>
<path d="M211.396 107.249H206.737V112.81H211.396V107.249Z" fill="#F5F6F6"/>
<path d="M203.129 107.249H198.469V112.81H203.129V107.249Z" fill="#F5F6F6"/>
<path d="M194.936 107.249H190.277V112.81H194.936V107.249Z" fill="#F5F6F6"/>
<path d="M186.67 107.249H182.01V112.81H186.67V107.249Z" fill="#F5F6F6"/>
<path d="M178.478 107.249H173.818V112.81H178.478V107.249Z" fill="#F5F6F6"/>
<path d="M170.285 107.249H165.625V112.81H170.285V107.249Z" fill="#F5F6F6"/>
<path d="M162.018 107.249H157.359V112.81H162.018V107.249Z" fill="#F5F6F6"/>
<path d="M153.826 107.249H149.167V112.81H153.826V107.249Z" fill="#F5F6F6"/>
<path d="M145.559 107.249H140.899V112.81H145.559V107.249Z" fill="#F5F6F6"/>
<path d="M137.367 107.249H132.707V112.81H137.367V107.249Z" fill="#F5F6F6"/>
<path d="M129.175 107.249H124.515V112.81H129.175V107.249Z" fill="#F5F6F6"/>
<path d="M120.907 107.249H116.248V112.81H120.907V107.249Z" fill="#F5F6F6"/>
<path d="M112.715 107.249H108.056V112.81H112.715V107.249Z" fill="#F5F6F6"/>
<path d="M104.448 107.249H99.7886V112.81H104.448V107.249Z" fill="#F5F6F6"/>
<path d="M96.256 107.249H91.5963V112.81H96.256V107.249Z" fill="#F5F6F6"/>
<path d="M87.989 107.249H83.3293V112.81H87.989V107.249Z" fill="#F5F6F6"/>
<path d="M79.7972 107.249H75.1375V112.81H79.7972V107.249Z" fill="#F5F6F6"/>
<path d="M71.6044 107.249H66.9447V112.81H71.6044V107.249Z" fill="#F5F6F6"/>
<path d="M63.3373 107.249H58.6776V112.81H63.3373V107.249Z" fill="#F5F6F6"/>
<path d="M55.1456 107.249H50.4858V112.81H55.1456V107.249Z" fill="#F5F6F6"/>
<path d="M482.713 97.554H478.053V103.116H482.713V97.554Z" fill="#F5F6F6"/>
<path d="M441.601 97.554H436.942V103.116H441.601V97.554Z" fill="#F5F6F6"/>
<path d="M433.409 97.554H428.75V103.116H433.409V97.554Z" fill="#F5F6F6"/>
<path d="M425.142 97.554H420.482V103.116H425.142V97.554Z" fill="#F5F6F6"/>
<path d="M416.95 97.554H412.29V103.116H416.95V97.554Z" fill="#F5F6F6"/>
<path d="M408.683 97.554H404.023V103.116H408.683V97.554Z" fill="#F5F6F6"/>
<path d="M400.49 97.554H395.831V103.116H400.49V97.554Z" fill="#F5F6F6"/>
<path d="M392.299 97.554H387.639V103.116H392.299V97.554Z" fill="#F5F6F6"/>
<path d="M384.032 97.554H379.372V103.116H384.032V97.554Z" fill="#F5F6F6"/>
<path d="M375.839 97.554H371.18V103.116H375.839V97.554Z" fill="#F5F6F6"/>
<path d="M367.572 97.554H362.912V103.116H367.572V97.554Z" fill="#F5F6F6"/>
<path d="M359.38 97.554H354.721V103.116H359.38V97.554Z" fill="#F5F6F6"/>
<path d="M351.188 97.554H346.529V103.116H351.188V97.554Z" fill="#F5F6F6"/>
<path d="M334.728 97.554H330.069V103.116H334.728V97.554Z" fill="#F5F6F6"/>
<path d="M326.461 97.554H321.802V103.116H326.461V97.554Z" fill="#F5F6F6"/>
<path d="M318.269 97.554H313.609V103.116H318.269V97.554Z" fill="#F5F6F6"/>
<path d="M310.077 97.554H305.417V103.116H310.077V97.554Z" fill="#F5F6F6"/>
<path d="M301.81 97.554H297.15V103.116H301.81V97.554Z" fill="#F5F6F6"/>
<path d="M293.617 97.554H288.958V103.116H293.617V97.554Z" fill="#F5F6F6"/>
<path d="M285.35 97.554H280.691V103.116H285.35V97.554Z" fill="#F5F6F6"/>
<path d="M277.159 97.554H272.499V103.116H277.159V97.554Z" fill="#F5F6F6"/>
<path d="M268.891 97.554H264.231V103.116H268.891V97.554Z" fill="#F5F6F6"/>
<path d="M260.699 97.554H256.039V103.116H260.699V97.554Z" fill="#F5F6F6"/>
<path d="M252.507 97.554H247.847V103.116H252.507V97.554Z" fill="#F5F6F6"/>
<path d="M244.24 97.554H239.58V103.116H244.24V97.554Z" fill="#F5F6F6"/>
<path d="M236.048 97.554H231.388V103.116H236.048V97.554Z" fill="#F5F6F6"/>
<path d="M227.78 97.554H223.12V103.116H227.78V97.554Z" fill="#F5F6F6"/>
<path d="M219.588 97.554H214.928V103.116H219.588V97.554Z" fill="#F5F6F6"/>
<path d="M211.396 97.554H206.737V103.116H211.396V97.554Z" fill="#F5F6F6"/>
<path d="M203.129 97.554H198.469V103.116H203.129V97.554Z" fill="#F5F6F6"/>
<path d="M194.936 97.554H190.277V103.116H194.936V97.554Z" fill="#F5F6F6"/>
<path d="M186.67 97.554H182.01V103.116H186.67V97.554Z" fill="#F5F6F6"/>
<path d="M178.478 97.554H173.818V103.116H178.478V97.554Z" fill="#F5F6F6"/>
<path d="M170.285 97.554H165.625V103.116H170.285V97.554Z" fill="#F5F6F6"/>
<path d="M162.018 97.554H157.359V103.116H162.018V97.554Z" fill="#F5F6F6"/>
<path d="M153.826 97.554H149.167V103.116H153.826V97.554Z" fill="#F5F6F6"/>
<path d="M145.559 97.554H140.899V103.116H145.559V97.554Z" fill="#F5F6F6"/>
<path d="M137.367 97.554H132.707V103.116H137.367V97.554Z" fill="#F5F6F6"/>
<path d="M129.175 97.554H124.515V103.116H129.175V97.554Z" fill="#F5F6F6"/>
<path d="M120.907 97.554H116.248V103.116H120.907V97.554Z" fill="#F5F6F6"/>
<path d="M112.715 97.554H108.056V103.116H112.715V97.554Z" fill="#F5F6F6"/>
<path d="M104.448 97.554H99.7886V103.116H104.448V97.554Z" fill="#F5F6F6"/>
<path d="M96.256 97.554H91.5963V103.116H96.256V97.554Z" fill="#F5F6F6"/>
<path d="M87.989 97.554H83.3293V103.116H87.989V97.554Z" fill="#F5F6F6"/>
<path d="M79.7972 97.554H75.1375V103.116H79.7972V97.554Z" fill="#F5F6F6"/>
<path d="M71.6044 97.554H66.9447V103.116H71.6044V97.554Z" fill="#F5F6F6"/>
<path d="M63.3373 97.554H58.6776V103.116H63.3373V97.554Z" fill="#F5F6F6"/>
<path d="M46.8781 97.554H42.2184V103.116H46.8781V97.554Z" fill="#F5F6F6"/>
<path d="M38.6862 97.554H34.0265V103.116H38.6862V97.554Z" fill="#F5F6F6"/>
<path d="M22.2265 97.554H17.5668V103.116H22.2265V97.554Z" fill="#F5F6F6"/>
<path d="M490.979 87.7832H486.32V93.3448H490.979V87.7832Z" fill="#F5F6F6"/>
<path d="M482.713 87.7832H478.053V93.3448H482.713V87.7832Z" fill="#F5F6F6"/>
<path d="M416.95 87.7832H412.29V93.3448H416.95V87.7832Z" fill="#F5F6F6"/>
<path d="M408.683 87.7832H404.023V93.3448H408.683V87.7832Z" fill="#F5F6F6"/>
<path d="M400.49 87.7832H395.831V93.3448H400.49V87.7832Z" fill="#F5F6F6"/>
<path d="M392.299 87.7832H387.639V93.3448H392.299V87.7832Z" fill="#F5F6F6"/>
<path d="M384.032 87.7832H379.372V93.3448H384.032V87.7832Z" fill="#F5F6F6"/>
<path d="M375.839 87.7832H371.18V93.3448H375.839V87.7832Z" fill="#F5F6F6"/>
<path d="M367.572 87.7832H362.912V93.3448H367.572V87.7832Z" fill="#F5F6F6"/>
<path d="M359.38 87.7832H354.721V93.3448H359.38V87.7832Z" fill="#F5F6F6"/>
<path d="M351.188 87.7832H346.529V93.3448H351.188V87.7832Z" fill="#F5F6F6"/>
<path d="M342.92 87.7832H338.261V93.3448H342.92V87.7832Z" fill="#F5F6F6"/>
<path d="M334.728 87.7832H330.069V93.3448H334.728V87.7832Z" fill="#F5F6F6"/>
<path d="M326.461 87.7832H321.802V93.3448H326.461V87.7832Z" fill="#F5F6F6"/>
<path d="M318.269 87.7832H313.609V93.3448H318.269V87.7832Z" fill="#F5F6F6"/>
<path d="M310.077 87.7832H305.417V93.3448H310.077V87.7832Z" fill="#F5F6F6"/>
<path d="M301.81 87.7832H297.15V93.3448H301.81V87.7832Z" fill="#F5F6F6"/>
<path d="M293.617 87.7832H288.958V93.3448H293.617V87.7832Z" fill="#F5F6F6"/>
<path d="M285.35 87.7832H280.691V93.3448H285.35V87.7832Z" fill="#F5F6F6"/>
<path d="M277.159 87.7832H272.499V93.3448H277.159V87.7832Z" fill="#F5F6F6"/>
<path d="M268.891 87.7832H264.231V93.3448H268.891V87.7832Z" fill="#F5F6F6"/>
<path d="M260.699 87.7832H256.039V93.3448H260.699V87.7832Z" fill="#F5F6F6"/>
<path d="M252.507 87.7832H247.847V93.3448H252.507V87.7832Z" fill="#F5F6F6"/>
<path d="M244.24 87.7832H239.58V93.3448H244.24V87.7832Z" fill="#F5F6F6"/>
<path d="M236.048 87.7832H231.388V93.3448H236.048V87.7832Z" fill="#F5F6F6"/>
<path d="M227.78 87.7832H223.12V93.3448H227.78V87.7832Z" fill="#F5F6F6"/>
<path d="M219.588 87.7832H214.928V93.3448H219.588V87.7832Z" fill="#F5F6F6"/>
<path d="M211.396 87.7832H206.737V93.3448H211.396V87.7832Z" fill="#F5F6F6"/>
<path d="M203.129 87.7832H198.469V93.3448H203.129V87.7832Z" fill="#F5F6F6"/>
<path d="M194.936 87.7832H190.277V93.3448H194.936V87.7832Z" fill="#F5F6F6"/>
<path d="M186.67 87.7832H182.01V93.3448H186.67V87.7832Z" fill="#F5F6F6"/>
<path d="M178.478 87.7832H173.818V93.3448H178.478V87.7832Z" fill="#F5F6F6"/>
<path d="M170.285 87.7832H165.625V93.3448H170.285V87.7832Z" fill="#F5F6F6"/>
<path d="M162.018 87.7832H157.359V93.3448H162.018V87.7832Z" fill="#F5F6F6"/>
<path d="M153.826 87.7832H149.167V93.3448H153.826V87.7832Z" fill="#F5F6F6"/>
<path d="M145.559 87.7832H140.899V93.3448H145.559V87.7832Z" fill="#F5F6F6"/>
<path d="M137.367 87.7832H132.707V93.3448H137.367V87.7832Z" fill="#F5F6F6"/>
<path d="M129.175 87.7832H124.515V93.3448H129.175V87.7832Z" fill="#F5F6F6"/>
<path d="M120.907 87.7832H116.248V93.3448H120.907V87.7832Z" fill="#F5F6F6"/>
<path d="M112.715 87.7832H108.056V93.3448H112.715V87.7832Z" fill="#F5F6F6"/>
<path d="M71.6044 87.7832H66.9447V93.3448H71.6044V87.7832Z" fill="#F5F6F6"/>
<path d="M38.6862 87.7832H34.0265V93.3448H38.6862V87.7832Z" fill="#F5F6F6"/>
<path d="M490.979 78.0125H486.32V83.574H490.979V78.0125Z" fill="#F5F6F6"/>
<path d="M433.409 78.0125H428.75V83.574H433.409V78.0125Z" fill="#F5F6F6"/>
<path d="M425.142 78.0125H420.482V83.574H425.142V78.0125Z" fill="#F5F6F6"/>
<path d="M416.95 78.0125H412.29V83.574H416.95V78.0125Z" fill="#F5F6F6"/>
<path d="M408.683 78.0125H404.023V83.574H408.683V78.0125Z" fill="#F5F6F6"/>
<path d="M400.49 78.0125H395.831V83.574H400.49V78.0125Z" fill="#F5F6F6"/>
<path d="M392.299 78.0125H387.639V83.574H392.299V78.0125Z" fill="#F5F6F6"/>
<path d="M384.032 78.0125H379.372V83.574H384.032V78.0125Z" fill="#F5F6F6"/>
<path d="M375.839 78.0125H371.18V83.574H375.839V78.0125Z" fill="#F5F6F6"/>
<path d="M367.572 78.0125H362.912V83.574H367.572V78.0125Z" fill="#F5F6F6"/>
<path d="M359.38 78.0125H354.721V83.574H359.38V78.0125Z" fill="#F5F6F6"/>
<path d="M351.188 78.0125H346.529V83.574H351.188V78.0125Z" fill="#F5F6F6"/>
<path d="M342.92 78.0125H338.261V83.574H342.92V78.0125Z" fill="#F5F6F6"/>
<path d="M334.728 78.0125H330.069V83.574H334.728V78.0125Z" fill="#F5F6F6"/>
<path d="M326.461 78.0125H321.802V83.574H326.461V78.0125Z" fill="#F5F6F6"/>
<path d="M318.269 78.0125H313.609V83.574H318.269V78.0125Z" fill="#F5F6F6"/>
<path d="M310.077 78.0125H305.417V83.574H310.077V78.0125Z" fill="#F5F6F6"/>
<path d="M301.81 78.0125H297.15V83.574H301.81V78.0125Z" fill="#F5F6F6"/>
<path d="M293.617 78.0125H288.958V83.574H293.617V78.0125Z" fill="#F5F6F6"/>
<path d="M285.35 78.0125H280.691V83.574H285.35V78.0125Z" fill="#F5F6F6"/>
<path d="M277.159 78.0125H272.499V83.574H277.159V78.0125Z" fill="#F5F6F6"/>
<path d="M268.891 78.0125H264.231V83.574H268.891V78.0125Z" fill="#F5F6F6"/>
<path d="M260.699 78.0125H256.039V83.574H260.699V78.0125Z" fill="#F5F6F6"/>
<path d="M252.507 78.0125H247.847V83.574H252.507V78.0125Z" fill="#F5F6F6"/>
<path d="M244.24 78.0125H239.58V83.574H244.24V78.0125Z" fill="#F5F6F6"/>
<path d="M236.048 78.0125H231.388V83.574H236.048V78.0125Z" fill="#F5F6F6"/>
<path d="M227.78 78.0125H223.12V83.574H227.78V78.0125Z" fill="#F5F6F6"/>
<path d="M219.588 78.0125H214.928V83.574H219.588V78.0125Z" fill="#F5F6F6"/>
<path d="M211.396 78.0125H206.737V83.574H211.396V78.0125Z" fill="#F5F6F6"/>
<path d="M203.129 78.0125H198.469V83.574H203.129V78.0125Z" fill="#F5F6F6"/>
<path d="M194.936 78.0125H190.277V83.574H194.936V78.0125Z" fill="#F5F6F6"/>
<path d="M186.67 78.0125H182.01V83.574H186.67V78.0125Z" fill="#F5F6F6"/>
<path d="M178.478 78.0125H173.818V83.574H178.478V78.0125Z" fill="#F5F6F6"/>
<path d="M170.285 78.0125H165.625V83.574H170.285V78.0125Z" fill="#F5F6F6"/>
<path d="M162.018 78.0125H157.359V83.574H162.018V78.0125Z" fill="#F5F6F6"/>
<path d="M153.826 78.0125H149.167V83.574H153.826V78.0125Z" fill="#F5F6F6"/>
<path d="M145.559 78.0125H140.899V83.574H145.559V78.0125Z" fill="#F5F6F6"/>
<path d="M137.367 78.0125H132.707V83.574H137.367V78.0125Z" fill="#F5F6F6"/>
<path d="M129.175 78.0125H124.515V83.574H129.175V78.0125Z" fill="#F5F6F6"/>
<path d="M120.907 78.0125H116.248V83.574H120.907V78.0125Z" fill="#F5F6F6"/>
<path d="M112.715 78.0125H108.056V83.574H112.715V78.0125Z" fill="#F5F6F6"/>
<path d="M87.989 78.0125H83.3293V83.574H87.989V78.0125Z" fill="#F5F6F6"/>
<path d="M79.7972 78.0125H75.1375V83.574H79.7972V78.0125Z" fill="#F5F6F6"/>
<path d="M515.631 68.2417H510.971V73.8033H515.631V68.2417Z" fill="#F5F6F6"/>
<path d="M507.364 68.2417H502.704V73.8033H507.364V68.2417Z" fill="#F5F6F6"/>
<path d="M499.172 68.2417H494.512V73.8033H499.172V68.2417Z" fill="#F5F6F6"/>
<path d="M490.979 68.2417H486.32V73.8033H490.979V68.2417Z" fill="#F5F6F6"/>
<path d="M474.52 68.2417H469.86V73.8033H474.52V68.2417Z" fill="#F5F6F6"/>
<path d="M466.253 68.2417H461.593V73.8033H466.253V68.2417Z" fill="#F5F6F6"/>
<path d="M458.061 68.2417H453.401V73.8033H458.061V68.2417Z" fill="#F5F6F6"/>
<path d="M449.793 68.2417H445.134V73.8033H449.793V68.2417Z" fill="#F5F6F6"/>
<path d="M441.601 68.2417H436.942V73.8033H441.601V68.2417Z" fill="#F5F6F6"/>
<path d="M433.409 68.2417H428.75V73.8033H433.409V68.2417Z" fill="#F5F6F6"/>
<path d="M425.142 68.2417H420.482V73.8033H425.142V68.2417Z" fill="#F5F6F6"/>
<path d="M416.95 68.2417H412.29V73.8033H416.95V68.2417Z" fill="#F5F6F6"/>
<path d="M408.683 68.2417H404.023V73.8033H408.683V68.2417Z" fill="#F5F6F6"/>
<path d="M400.49 68.2417H395.831V73.8033H400.49V68.2417Z" fill="#F5F6F6"/>
<path d="M392.299 68.2417H387.639V73.8033H392.299V68.2417Z" fill="#F5F6F6"/>
<path d="M384.032 68.2417H379.372V73.8033H384.032V68.2417Z" fill="#F5F6F6"/>
<path d="M375.839 68.2417H371.18V73.8033H375.839V68.2417Z" fill="#F5F6F6"/>
<path d="M367.572 68.2417H362.912V73.8033H367.572V68.2417Z" fill="#F5F6F6"/>
<path d="M359.38 68.2417H354.721V73.8033H359.38V68.2417Z" fill="#F5F6F6"/>
<path d="M351.188 68.2417H346.529V73.8033H351.188V68.2417Z" fill="#F5F6F6"/>
<path d="M342.92 68.2417H338.261V73.8033H342.92V68.2417Z" fill="#F5F6F6"/>
<path d="M334.728 68.2417H330.069V73.8033H334.728V68.2417Z" fill="#F5F6F6"/>
<path d="M326.461 68.2417H321.802V73.8033H326.461V68.2417Z" fill="#F5F6F6"/>
<path d="M318.269 68.2417H313.609V73.8033H318.269V68.2417Z" fill="#F5F6F6"/>
<path d="M310.077 68.2417H305.417V73.8033H310.077V68.2417Z" fill="#F5F6F6"/>
<path d="M301.81 68.2417H297.15V73.8033H301.81V68.2417Z" fill="#F5F6F6"/>
<path d="M293.617 68.2417H288.958V73.8033H293.617V68.2417Z" fill="#F5F6F6"/>
<path d="M285.35 68.2417H280.691V73.8033H285.35V68.2417Z" fill="#F5F6F6"/>
<path d="M277.159 68.2417H272.499V73.8033H277.159V68.2417Z" fill="#F5F6F6"/>
<path d="M268.891 68.2417H264.231V73.8033H268.891V68.2417Z" fill="#F5F6F6"/>
<path d="M260.699 68.2417H256.039V73.8033H260.699V68.2417Z" fill="#F5F6F6"/>
<path d="M252.507 68.2417H247.847V73.8033H252.507V68.2417Z" fill="#F5F6F6"/>
<path d="M244.24 68.2417H239.58V73.8033H244.24V68.2417Z" fill="#F5F6F6"/>
<path d="M236.048 68.2417H231.388V73.8033H236.048V68.2417Z" fill="#F5F6F6"/>
<path d="M227.78 68.2417H223.12V73.8033H227.78V68.2417Z" fill="#F5F6F6"/>
<path d="M219.588 68.2417H214.928V73.8033H219.588V68.2417Z" fill="#F5F6F6"/>
<path d="M211.396 68.2417H206.737V73.8033H211.396V68.2417Z" fill="#F5F6F6"/>
<path d="M203.129 68.2417H198.469V73.8033H203.129V68.2417Z" fill="#F5F6F6"/>
<path d="M194.936 68.2417H190.277V73.8033H194.936V68.2417Z" fill="#F5F6F6"/>
<path d="M186.67 68.2417H182.01V73.8033H186.67V68.2417Z" fill="#F5F6F6"/>
<path d="M178.478 68.2417H173.818V73.8033H178.478V68.2417Z" fill="#F5F6F6"/>
<path d="M170.285 68.2417H165.625V73.8033H170.285V68.2417Z" fill="#F5F6F6"/>
<path d="M162.018 68.2417H157.359V73.8033H162.018V68.2417Z" fill="#F5F6F6"/>
<path d="M153.826 68.2417H149.167V73.8033H153.826V68.2417Z" fill="#F5F6F6"/>
<path d="M145.559 68.2417H140.899V73.8033H145.559V68.2417Z" fill="#F5F6F6"/>
<path d="M137.367 68.2417H132.707V73.8033H137.367V68.2417Z" fill="#F5F6F6"/>
<path d="M129.175 68.2417H124.515V73.8033H129.175V68.2417Z" fill="#F5F6F6"/>
<path d="M120.907 68.2417H116.248V73.8033H120.907V68.2417Z" fill="#F5F6F6"/>
<path d="M112.715 68.2417H108.056V73.8033H112.715V68.2417Z" fill="#F5F6F6"/>
<path d="M87.989 68.2417H83.3293V73.8033H87.989V68.2417Z" fill="#F5F6F6"/>
<path d="M79.7972 68.2417H75.1375V73.8033H79.7972V68.2417Z" fill="#F5F6F6"/>
<path d="M71.6044 68.2417H66.9447V73.8033H71.6044V68.2417Z" fill="#F5F6F6"/>
<path d="M63.3373 68.2417H58.6776V73.8033H63.3373V68.2417Z" fill="#F5F6F6"/>
<path d="M556.742 58.5476H552.082V64.1092H556.742V58.5476Z" fill="#F5F6F6"/>
<path d="M540.283 58.5476H535.623V64.1092H540.283V58.5476Z" fill="#F5F6F6"/>
<path d="M532.09 58.5476H527.431V64.1092H532.09V58.5476Z" fill="#F5F6F6"/>
<path d="M523.823 58.5476H519.163V64.1092H523.823V58.5476Z" fill="#F5F6F6"/>
<path d="M515.631 58.5476H510.971V64.1092H515.631V58.5476Z" fill="#F5F6F6"/>
<path d="M507.364 58.5476H502.704V64.1092H507.364V58.5476Z" fill="#F5F6F6"/>
<path d="M499.172 58.5476H494.512V64.1092H499.172V58.5476Z" fill="#F5F6F6"/>
<path d="M490.979 58.5476H486.32V64.1092H490.979V58.5476Z" fill="#F5F6F6"/>
<path d="M482.713 58.5476H478.053V64.1092H482.713V58.5476Z" fill="#F5F6F6"/>
<path d="M474.52 58.5476H469.86V64.1092H474.52V58.5476Z" fill="#F5F6F6"/>
<path d="M466.253 58.5476H461.593V64.1092H466.253V58.5476Z" fill="#F5F6F6"/>
<path d="M458.061 58.5476H453.401V64.1092H458.061V58.5476Z" fill="#F5F6F6"/>
<path d="M449.793 58.5476H445.134V64.1092H449.793V58.5476Z" fill="#F5F6F6"/>
<path d="M441.601 58.5476H436.942V64.1092H441.601V58.5476Z" fill="#F5F6F6"/>
<path d="M433.409 58.5476H428.75V64.1092H433.409V58.5476Z" fill="#F5F6F6"/>
<path d="M425.142 58.5476H420.482V64.1092H425.142V58.5476Z" fill="#F5F6F6"/>
<path d="M416.95 58.5476H412.29V64.1092H416.95V58.5476Z" fill="#F5F6F6"/>
<path d="M408.683 58.5476H404.023V64.1092H408.683V58.5476Z" fill="#F5F6F6"/>
<path d="M400.49 58.5476H395.831V64.1092H400.49V58.5476Z" fill="#F5F6F6"/>
<path d="M392.299 58.5476H387.639V64.1092H392.299V58.5476Z" fill="#F5F6F6"/>
<path d="M384.032 58.5476H379.372V64.1092H384.032V58.5476Z" fill="#F5F6F6"/>
<path d="M375.839 58.5476H371.18V64.1092H375.839V58.5476Z" fill="#F5F6F6"/>
<path d="M367.572 58.5476H362.912V64.1092H367.572V58.5476Z" fill="#F5F6F6"/>
<path d="M359.38 58.5476H354.721V64.1092H359.38V58.5476Z" fill="#F5F6F6"/>
<path d="M351.188 58.5476H346.529V64.1092H351.188V58.5476Z" fill="#F5F6F6"/>
<path d="M342.92 58.5476H338.261V64.1092H342.92V58.5476Z" fill="#F5F6F6"/>
<path d="M334.728 58.5476H330.069V64.1092H334.728V58.5476Z" fill="#F5F6F6"/>
<path d="M326.461 58.5476H321.802V64.1092H326.461V58.5476Z" fill="#F5F6F6"/>
<path d="M318.269 58.5476H313.609V64.1092H318.269V58.5476Z" fill="#F5F6F6"/>
<path d="M310.077 58.5476H305.417V64.1092H310.077V58.5476Z" fill="#F5F6F6"/>
<path d="M301.81 58.5476H297.15V64.1092H301.81V58.5476Z" fill="#F5F6F6"/>
<path d="M293.617 58.5476H288.958V64.1092H293.617V58.5476Z" fill="#F5F6F6"/>
<path d="M285.35 58.5476H280.691V64.1092H285.35V58.5476Z" fill="#F5F6F6"/>
<path d="M277.159 58.5476H272.499V64.1092H277.159V58.5476Z" fill="#F5F6F6"/>
<path d="M268.891 58.5476H264.231V64.1092H268.891V58.5476Z" fill="#F5F6F6"/>
<path d="M260.699 58.5476H256.039V64.1092H260.699V58.5476Z" fill="#F5F6F6"/>
<path d="M252.507 58.5476H247.847V64.1092H252.507V58.5476Z" fill="#F5F6F6"/>
<path d="M244.24 58.5476H239.58V64.1092H244.24V58.5476Z" fill="#F5F6F6"/>
<path d="M236.048 58.5476H231.388V64.1092H236.048V58.5476Z" fill="#F5F6F6"/>
<path d="M227.78 58.5476H223.12V64.1092H227.78V58.5476Z" fill="#F5F6F6"/>
<path d="M219.588 58.5476H214.928V64.1092H219.588V58.5476Z" fill="#F5F6F6"/>
<path d="M211.396 58.5476H206.737V64.1092H211.396V58.5476Z" fill="#F5F6F6"/>
<path d="M203.129 58.5476H198.469V64.1092H203.129V58.5476Z" fill="#F5F6F6"/>
<path d="M194.936 58.5476H190.277V64.1092H194.936V58.5476Z" fill="#F5F6F6"/>
<path d="M186.67 58.5476H182.01V64.1092H186.67V58.5476Z" fill="#F5F6F6"/>
<path d="M178.478 58.5476H173.818V64.1092H178.478V58.5476Z" fill="#F5F6F6"/>
<path d="M170.285 58.5476H165.625V64.1092H170.285V58.5476Z" fill="#F5F6F6"/>
<path d="M162.018 58.5476H157.359V64.1092H162.018V58.5476Z" fill="#F5F6F6"/>
<path d="M137.367 58.5476H132.707V64.1092H137.367V58.5476Z" fill="#F5F6F6"/>
<path d="M129.175 58.5476H124.515V64.1092H129.175V58.5476Z" fill="#F5F6F6"/>
<path d="M120.907 58.5476H116.248V64.1092H120.907V58.5476Z" fill="#F5F6F6"/>
<path d="M104.448 58.5476H99.7886V64.1092H104.448V58.5476Z" fill="#F5F6F6"/>
<path d="M96.256 58.5476H91.5963V64.1092H96.256V58.5476Z" fill="#F5F6F6"/>
<path d="M87.989 58.5476H83.3293V64.1092H87.989V58.5476Z" fill="#F5F6F6"/>
<path d="M79.7972 58.5476H75.1375V64.1092H79.7972V58.5476Z" fill="#F5F6F6"/>
<path d="M5.76715 58.5476H1.10742V64.1092H5.76715V58.5476Z" fill="#F5F6F6"/>
<path d="M548.474 48.7769H543.815V54.3385H548.474V48.7769Z" fill="#F5F6F6"/>
<path d="M540.283 48.7769H535.623V54.3385H540.283V48.7769Z" fill="#F5F6F6"/>
<path d="M532.09 48.7769H527.431V54.3385H532.09V48.7769Z" fill="#F5F6F6"/>
<path d="M523.823 48.7769H519.163V54.3385H523.823V48.7769Z" fill="#F5F6F6"/>
<path d="M515.631 48.7769H510.971V54.3385H515.631V48.7769Z" fill="#F5F6F6"/>
<path d="M507.364 48.7769H502.704V54.3385H507.364V48.7769Z" fill="#F5F6F6"/>
<path d="M499.172 48.7769H494.512V54.3385H499.172V48.7769Z" fill="#F5F6F6"/>
<path d="M490.979 48.7769H486.32V54.3385H490.979V48.7769Z" fill="#F5F6F6"/>
<path d="M482.713 48.7769H478.053V54.3385H482.713V48.7769Z" fill="#F5F6F6"/>
<path d="M474.52 48.7769H469.86V54.3385H474.52V48.7769Z" fill="#F5F6F6"/>
<path d="M466.253 48.7769H461.593V54.3385H466.253V48.7769Z" fill="#F5F6F6"/>
<path d="M458.061 48.7769H453.401V54.3385H458.061V48.7769Z" fill="#F5F6F6"/>
<path d="M449.793 48.7769H445.134V54.3385H449.793V48.7769Z" fill="#F5F6F6"/>
<path d="M441.601 48.7769H436.942V54.3385H441.601V48.7769Z" fill="#F5F6F6"/>
<path d="M433.409 48.7769H428.75V54.3385H433.409V48.7769Z" fill="#F5F6F6"/>
<path d="M425.142 48.7769H420.482V54.3385H425.142V48.7769Z" fill="#F5F6F6"/>
<path d="M416.95 48.7769H412.29V54.3385H416.95V48.7769Z" fill="#F5F6F6"/>
<path d="M408.683 48.7769H404.023V54.3385H408.683V48.7769Z" fill="#F5F6F6"/>
<path d="M400.49 48.7769H395.831V54.3385H400.49V48.7769Z" fill="#F5F6F6"/>
<path d="M392.299 48.7769H387.639V54.3385H392.299V48.7769Z" fill="#F5F6F6"/>
<path d="M384.032 48.7769H379.372V54.3385H384.032V48.7769Z" fill="#F5F6F6"/>
<path d="M375.839 48.7769H371.18V54.3385H375.839V48.7769Z" fill="#F5F6F6"/>
<path d="M367.572 48.7769H362.912V54.3385H367.572V48.7769Z" fill="#F5F6F6"/>
<path d="M359.38 48.7769H354.721V54.3385H359.38V48.7769Z" fill="#F5F6F6"/>
<path d="M351.188 48.7769H346.529V54.3385H351.188V48.7769Z" fill="#F5F6F6"/>
<path d="M342.92 48.7769H338.261V54.3385H342.92V48.7769Z" fill="#F5F6F6"/>
<path d="M334.728 48.7769H330.069V54.3385H334.728V48.7769Z" fill="#F5F6F6"/>
<path d="M326.461 48.7769H321.802V54.3385H326.461V48.7769Z" fill="#F5F6F6"/>
<path d="M318.269 48.7769H313.609V54.3385H318.269V48.7769Z" fill="#F5F6F6"/>
<path d="M310.077 48.7769H305.417V54.3385H310.077V48.7769Z" fill="#F5F6F6"/>
<path d="M301.81 48.7769H297.15V54.3385H301.81V48.7769Z" fill="#F5F6F6"/>
<path d="M293.617 48.7769H288.958V54.3385H293.617V48.7769Z" fill="#F5F6F6"/>
<path d="M285.35 48.7769H280.691V54.3385H285.35V48.7769Z" fill="#F5F6F6"/>
<path d="M277.159 48.7769H272.499V54.3385H277.159V48.7769Z" fill="#F5F6F6"/>
<path d="M268.891 48.7769H264.231V54.3385H268.891V48.7769Z" fill="#F5F6F6"/>
<path d="M260.699 48.7769H256.039V54.3385H260.699V48.7769Z" fill="#F5F6F6"/>
<path d="M244.24 48.7769H239.58V54.3385H244.24V48.7769Z" fill="#F5F6F6"/>
<path d="M236.048 48.7769H231.388V54.3385H236.048V48.7769Z" fill="#F5F6F6"/>
<path d="M227.78 48.7769H223.12V54.3385H227.78V48.7769Z" fill="#F5F6F6"/>
<path d="M219.588 48.7769H214.928V54.3385H219.588V48.7769Z" fill="#F5F6F6"/>
<path d="M211.396 48.7769H206.737V54.3385H211.396V48.7769Z" fill="#F5F6F6"/>
<path d="M203.129 48.7769H198.469V54.3385H203.129V48.7769Z" fill="#F5F6F6"/>
<path d="M194.936 48.7769H190.277V54.3385H194.936V48.7769Z" fill="#F5F6F6"/>
<path d="M186.67 48.7769H182.01V54.3385H186.67V48.7769Z" fill="#F5F6F6"/>
<path d="M170.285 48.7769H165.625V54.3385H170.285V48.7769Z" fill="#F5F6F6"/>
<path d="M153.826 48.7769H149.167V54.3385H153.826V48.7769Z" fill="#F5F6F6"/>
<path d="M145.559 48.7769H140.899V54.3385H145.559V48.7769Z" fill="#F5F6F6"/>
<path d="M137.367 48.7769H132.707V54.3385H137.367V48.7769Z" fill="#F5F6F6"/>
<path d="M129.175 48.7769H124.515V54.3385H129.175V48.7769Z" fill="#F5F6F6"/>
<path d="M120.907 48.7769H116.248V54.3385H120.907V48.7769Z" fill="#F5F6F6"/>
<path d="M112.715 48.7769H108.056V54.3385H112.715V48.7769Z" fill="#F5F6F6"/>
<path d="M104.448 48.7769H99.7886V54.3385H104.448V48.7769Z" fill="#F5F6F6"/>
<path d="M96.256 48.7769H91.5963V54.3385H96.256V48.7769Z" fill="#F5F6F6"/>
<path d="M490.979 39.0061H486.32V44.5677H490.979V39.0061Z" fill="#F5F6F6"/>
<path d="M482.713 39.0061H478.053V44.5677H482.713V39.0061Z" fill="#F5F6F6"/>
<path d="M474.52 39.0061H469.86V44.5677H474.52V39.0061Z" fill="#F5F6F6"/>
<path d="M466.253 39.0061H461.593V44.5677H466.253V39.0061Z" fill="#F5F6F6"/>
<path d="M458.061 39.0061H453.401V44.5677H458.061V39.0061Z" fill="#F5F6F6"/>
<path d="M449.793 39.0061H445.134V44.5677H449.793V39.0061Z" fill="#F5F6F6"/>
<path d="M441.601 39.0061H436.942V44.5677H441.601V39.0061Z" fill="#F5F6F6"/>
<path d="M433.409 39.0061H428.75V44.5677H433.409V39.0061Z" fill="#F5F6F6"/>
<path d="M425.142 39.0061H420.482V44.5677H425.142V39.0061Z" fill="#F5F6F6"/>
<path d="M416.95 39.0061H412.29V44.5677H416.95V39.0061Z" fill="#F5F6F6"/>
<path d="M408.683 39.0061H404.023V44.5677H408.683V39.0061Z" fill="#F5F6F6"/>
<path d="M400.49 39.0061H395.831V44.5677H400.49V39.0061Z" fill="#F5F6F6"/>
<path d="M392.299 39.0061H387.639V44.5677H392.299V39.0061Z" fill="#F5F6F6"/>
<path d="M384.032 39.0061H379.372V44.5677H384.032V39.0061Z" fill="#F5F6F6"/>
<path d="M375.839 39.0061H371.18V44.5677H375.839V39.0061Z" fill="#F5F6F6"/>
<path d="M367.572 39.0061H362.912V44.5677H367.572V39.0061Z" fill="#F5F6F6"/>
<path d="M359.38 39.0061H354.721V44.5677H359.38V39.0061Z" fill="#F5F6F6"/>
<path d="M351.188 39.0061H346.529V44.5677H351.188V39.0061Z" fill="#F5F6F6"/>
<path d="M342.92 39.0061H338.261V44.5677H342.92V39.0061Z" fill="#F5F6F6"/>
<path d="M334.728 39.0061H330.069V44.5677H334.728V39.0061Z" fill="#F5F6F6"/>
<path d="M326.461 39.0061H321.802V44.5677H326.461V39.0061Z" fill="#F5F6F6"/>
<path d="M318.269 39.0061H313.609V44.5677H318.269V39.0061Z" fill="#F5F6F6"/>
<path d="M310.077 39.0061H305.417V44.5677H310.077V39.0061Z" fill="#F5F6F6"/>
<path d="M301.81 39.0061H297.15V44.5677H301.81V39.0061Z" fill="#F5F6F6"/>
<path d="M293.617 39.0061H288.958V44.5677H293.617V39.0061Z" fill="#F5F6F6"/>
<path d="M285.35 39.0061H280.691V44.5677H285.35V39.0061Z" fill="#F5F6F6"/>
<path d="M277.159 39.0061H272.499V44.5677H277.159V39.0061Z" fill="#F5F6F6"/>
<path d="M268.891 39.0061H264.231V44.5677H268.891V39.0061Z" fill="#F5F6F6"/>
<path d="M260.699 39.0061H256.039V44.5677H260.699V39.0061Z" fill="#F5F6F6"/>
<path d="M252.507 39.0061H247.847V44.5677H252.507V39.0061Z" fill="#F5F6F6"/>
<path d="M244.24 39.0061H239.58V44.5677H244.24V39.0061Z" fill="#F5F6F6"/>
<path d="M236.048 39.0061H231.388V44.5677H236.048V39.0061Z" fill="#F5F6F6"/>
<path d="M129.175 39.0061H124.515V44.5677H129.175V39.0061Z" fill="#F5F6F6"/>
<path d="M120.907 39.0061H116.248V44.5677H120.907V39.0061Z" fill="#F5F6F6"/>
<path d="M112.715 39.0061H108.056V44.5677H112.715V39.0061Z" fill="#F5F6F6"/>
<path d="M433.409 29.2356H428.75V34.7972H433.409V29.2356Z" fill="#F5F6F6"/>
<path d="M392.299 29.2356H387.639V34.7972H392.299V29.2356Z" fill="#F5F6F6"/>
<path d="M367.572 29.2356H362.912V34.7972H367.572V29.2356Z" fill="#F5F6F6"/>
<path d="M359.38 29.2356H354.721V34.7972H359.38V29.2356Z" fill="#F5F6F6"/>
<path d="M351.188 29.2356H346.529V34.7972H351.188V29.2356Z" fill="#F5F6F6"/>
<path d="M342.92 29.2356H338.261V34.7972H342.92V29.2356Z" fill="#F5F6F6"/>
<path d="M334.728 29.2356H330.069V34.7972H334.728V29.2356Z" fill="#F5F6F6"/>
<path d="M326.461 29.2356H321.802V34.7972H326.461V29.2356Z" fill="#F5F6F6"/>
<path d="M318.269 29.2356H313.609V34.7972H318.269V29.2356Z" fill="#F5F6F6"/>
<path d="M310.077 29.2356H305.417V34.7972H310.077V29.2356Z" fill="#F5F6F6"/>
<path d="M301.81 29.2356H297.15V34.7972H301.81V29.2356Z" fill="#F5F6F6"/>
<path d="M293.617 29.2356H288.958V34.7972H293.617V29.2356Z" fill="#F5F6F6"/>
<path d="M285.35 29.2356H280.691V34.7972H285.35V29.2356Z" fill="#F5F6F6"/>
<path d="M194.936 29.2356H190.277V34.7972H194.936V29.2356Z" fill="#F5F6F6"/>
<path d="M342.92 19.5405H338.261V25.1021H342.92V19.5405Z" fill="#F5F6F6"/>
<path d="M334.728 19.5405H330.069V25.1021H334.728V19.5405Z" fill="#F5F6F6"/>
<path d="M326.461 19.5405H321.802V25.1021H326.461V19.5405Z" fill="#F5F6F6"/>
<path d="M326.461 9.77075H321.802V15.3324H326.461V9.77075Z" fill="#F5F6F6"/>
<path d="M104.448 9.77075H99.7886V15.3324H104.448V9.77075Z" fill="#F5F6F6"/>
<path d="M96.256 9.77075H91.5963V15.3324H96.256V9.77075Z" fill="#F5F6F6"/>
<path d="M87.989 9.77075H83.3293V15.3324H87.989V9.77075Z" fill="#F5F6F6"/>
<path d="M79.7972 9.77075H75.1375V15.3324H79.7972V9.77075Z" fill="#F5F6F6"/>
</svg>
