<svg xmlns="http://www.w3.org/2000/svg" xmlns:xlink="http://www.w3.org/1999/xlink" version="1.1" id="Layer_1" x="0px" y="0px" style="enable-background:new 0 0 1080 1080;" xml:space="preserve" viewBox="45.2 438.6 989.6 202.5">
<style type="text/css">
	.st0{fill:#F3713D;}
</style>
<g>
	<path d="M348.8,563c-0.3,0.8-0.6,1.5-1,1.9c-0.4,0.4-0.9,0.6-1.6,0.6s-1.2-0.2-1.6-0.6c-0.4-0.4-0.8-1.1-1.1-1.9l-19.7-66.3h-19.1   l22,71.7c1.6,5.2,4,9.2,7.2,11.8c3.2,2.6,7.3,3.9,12.2,3.9c5,0,9.1-1.3,12.3-3.9c3.1-2.6,5.5-6.5,7.1-11.8l22-71.7h-19.1L348.8,563   z"/>
	<path d="M414,488.9c-1.7-1-3.6-1.5-5.6-1.5c-2.1,0-4,0.5-5.7,1.5c-1.8,1-3.1,2.4-4.1,4.1s-1.5,3.6-1.5,5.6c0,2.1,0.5,4,1.5,5.7   c1,1.8,2.4,3.1,4.1,4.1c1.8,1,3.7,1.5,5.7,1.5s3.9-0.5,5.6-1.5s3-2.4,4-4.1c1-1.8,1.5-3.7,1.5-5.7s-0.5-3.9-1.5-5.6   S415.7,489.9,414,488.9z"/>
	<rect x="399.3" y="519.3" width="18.1" height="63"/>
	<path d="M482.1,545.5c2.7-1.8,4.7-3.8,5.9-6c1.2-2.2,1.8-4.7,1.7-7.6c0-3.4-1.3-6.4-4-9c-2.7-2.6-6.6-3.9-11.9-3.9H435v15.3h35   c0.2,0,0.4,0.1,0.6,0.1c0.2,0.1,0.3,0.3,0.3,0.6c0,0.4-0.2,0.6-0.5,0.8l-29.8,19.9c-2.7,1.7-4.7,3.7-5.9,5.9s-1.8,4.8-1.7,7.8   c0.1,3.4,1.5,6.4,4.1,9c2.6,2.6,6.5,3.9,11.8,3.9h40.2v-15.5h-36.5c-0.3,0-0.5-0.1-0.6-0.1c-0.1,0-0.2-0.1-0.2-0.3   c0-0.4,0.2-0.7,0.5-1L482.1,545.5z"/>
	<path d="M547.8,548.4c0,3.3-0.5,6.2-1.5,9c-1,2.7-2.5,4.9-4.6,6.6s-4.7,2.5-7.8,2.5c-3.1,0-5.7-0.8-7.8-2.5c-2-1.6-3.6-3.8-4.6-6.6   c-1-2.7-1.5-5.7-1.5-8.8v-29.3h-18.2v31.3c0,6.1,1.2,11.7,3.6,16.8c2.5,5.1,6,9.1,10.8,12.1s10.6,4.5,17.6,4.5s12.9-1.5,17.7-4.5   c4.8-2.9,8.4-7,10.8-12c2.4-5.1,3.6-10.7,3.6-16.9v-31.3h-18.1V548.4z"/>
	<path d="M628.8,521.9c-5.2-2.9-11.1-4.4-17.6-4.4s-12.3,1.5-17.4,4.5c-5.1,3-9.2,7.1-12.2,12.1s-4.5,10.6-4.5,16.6   c0,6.1,1.3,11.7,4,16.7c2.7,5.1,6.3,9.1,11,12.1s10.1,4.5,16.2,4.5c5.3,0,9.8-1.2,13.5-3.3c2.6-1.6,4.7-3.5,6.5-5.8v7.5h17.2v-31.7   c0-6.4-1.5-12-4.5-17C638,528.8,634,524.8,628.8,521.9z M625.3,558.9c-1.4,2.4-3.3,4.4-5.7,5.9c-2.4,1.5-5.2,2.2-8.3,2.2   s-5.8-0.7-8.2-2.2s-4.3-3.4-5.7-5.9c-1.4-2.4-2.1-5.1-2.1-8.1c0-2.9,0.7-5.6,2.1-8.1c1.4-2.4,3.3-4.4,5.7-5.9s5.1-2.2,8.2-2.2   s5.9,0.7,8.3,2.2s4.3,3.4,5.7,5.9c1.4,2.4,2.1,5.1,2.1,8.1C627.4,553.7,626.7,556.4,625.3,558.9z"/>
	<rect x="663.2" y="490.3" width="18.1" height="92"/>
	<polygon points="693,497.3 693,504.9 720,504.9 720,582.3 728.1,582.3 728.1,504.9 755.2,504.9 755.2,497.3  "/>
	<path d="M786.5,519.6c-4.8,0-8.8,1-12.2,3.1c-3.4,2.1-5.9,5-7.7,8.7s-2.7,8-2.7,12.8v38.1h7.9h0.2v-37.7c0-5.3,1.3-9.5,4.1-12.6   c2.7-3.1,6.4-4.7,11.1-4.7c1.8,0,3.5,0.2,5.2,0.6s3.3,1.1,4.8,2v-8c-1.6-0.7-3.3-1.3-5.1-1.7C790.3,519.8,788.5,519.6,786.5,519.6z   "/>
	<path d="M851.2,523.6c-4.9-2.9-10.4-4.3-16.5-4.3s-11.6,1.4-16.5,4.3c-4.9,2.8-8.8,6.7-11.6,11.6c-2.9,4.9-4.3,10.2-4.3,16.1   s1.3,11.3,4.1,16.2s6.5,8.8,11.2,11.7s10.1,4.4,16,4.4c5.7,0,10.7-1.4,15.1-3.8c4.4-2.7,7.9-6.3,10.4-10.8c0.2-0.3,0.3-0.6,0.5-1   v14.5h7.5v-31.1c0-6-1.4-11.5-4.3-16.3C860,530.3,856.1,526.4,851.2,523.6z M855.9,563.7c-2.1,3.8-5.1,6.8-8.8,9   c-3.8,2.3-7.9,3.4-12.5,3.4c-4.5,0-8.7-1.2-12.4-3.4c-3.7-2.3-6.6-5.3-8.8-9c-2.1-3.7-3.2-7.8-3.2-12.3c0-4.4,1-8.6,3.2-12.3   c2.2-3.8,5.1-6.8,8.8-9c3.7-2.3,7.8-3.4,12.4-3.4s8.8,1.2,12.5,3.4c3.7,2.3,6.6,5.3,8.8,9c2.1,3.7,3.2,7.8,3.2,12.3   S858.1,560,855.9,563.7z"/>
	<path d="M912.5,574.1c-0.3,0.7-0.6,1.3-1.1,1.7c-0.4,0.4-1,0.6-1.8,0.6c-0.7,0-1.3-0.2-1.8-0.6c-0.5-0.5-0.8-1-1.1-1.7L887,520.6   h-8.4l20.7,55.5c0.9,2.5,2.3,4.4,4.1,5.7c1.9,1.3,3.9,1.9,6.1,1.9c2.3,0,4.3-0.6,6.1-1.9c1.8-1.2,3.2-3.2,4.1-5.7l20.9-55.5h-8.4   L912.5,574.1z"/>
	<path d="M993.7,523c-4.5-2.6-9.7-3.9-15.7-3.9s-11.3,1.4-15.9,4.3c-4.6,2.8-8.2,6.7-10.7,11.6s-3.8,10.3-3.8,16.2   c0,6.1,1.3,11.6,4.1,16.5c2.8,4.9,6.6,8.8,11.4,11.6c4.8,2.9,10.3,4.3,16.3,4.3c5.7,0,10.8-1.3,15.5-3.8c4.6-2.6,8.3-6.4,11.1-11.5   l-6.1-3.3c-2.2,3.9-5.1,6.8-8.7,8.5c-3.6,1.7-7.6,2.6-11.8,2.6c-5,0-9.4-1.2-13.2-3.7s-6.6-5.8-8.6-9.9c-1.3-2.6-2-5.3-2.3-8.3   h52.4v-4.7c0-5.9-1.2-11.1-3.7-15.7S998.1,525.6,993.7,523z M955.6,547.8c0.4-4,1.6-7.6,3.5-10.9c1.9-3.2,4.5-5.7,7.7-7.6   c3.2-1.9,7-2.8,11.2-2.8c4.2,0,7.9,0.9,11.1,2.6c3.2,1.8,5.8,4.2,7.7,7.4s2.9,7,3,11.3H955.6z"/>
	<rect x="1026.9" y="492.2" width="7.9" height="90.1"/>
</g>
<path class="st0" d="M284.7,438.7c-12.3,1.3-24.6,2.6-36.9,3.9c-11.5,1.2-23.2,1.9-34.6,3.8c-19.1,3.2-29.6,24.3-21.7,42  c0.9,1.9,1.9,2.6,4,2.3c10.8-1.3,21.7-2.4,32.6-3.7c4.9-0.6,9.7-1.2,14.9-1.8c-0.1,1.1-0.1,1.5-0.2,1.9c-3,7-6,14-9.3,20.9  c-0.6,1.2-2.2,2.1-3.5,2.6c-13.9,5.3-27.9,10.5-41.9,15.6c-2.3,0.8-2.9,2-3,4.3c-0.7,13.4-1.6,26.7-6.5,39.4  c-1.6,4-4.2,7.7-6.9,11.1c-1.7,2.2-2.7,2.9-4.7,2.9s-3-0.7-4.7-2.9c-2.7-3.4-5.3-7.1-6.9-11.1c-4.9-12.7-5.8-26-6.5-39.4  c-0.1-2.3-0.7-3.5-3-4.3c-14-5.1-28-10.3-41.9-15.6c-1.3-0.5-2.9-1.4-3.5-2.6c-3.3-6.9-6.3-13.9-9.3-20.9c-0.1-0.4-0.1-0.8-0.2-1.9  c5.2,0.6,10,1.2,14.9,1.8c10.9,1.3,21.8,2.4,32.6,3.7c2.1,0.3,3.1-0.4,4-2.3c7.9-17.7-2.6-38.8-21.7-42c-11.4-1.9-23.1-2.6-34.6-3.8  c-12.3-1.3-24.6-2.6-36.9-3.9c-1.2-0.1-2.3,0-4.1-0.1c3.9,6.9,7.4,13.3,11,19.8c16.3,29.2,32.6,58.5,48.9,87.7  c15.9,28.5,31.9,56.9,47.8,85.3c3.2,5.7,7.9,9.7,14,9.7c0,0,0.1,0,0.1,0c0,0,0.1,0,0.1,0c6.1,0,10.8-4,14-9.7  c15.9-28.4,31.9-56.8,47.8-85.3c16.3-29.2,32.6-58.5,48.9-87.7c3.6-6.4,7.1-12.9,11-19.8C287,438.8,285.9,438.6,284.7,438.7z"/>
</svg>