<svg width="434" height="229" viewBox="0 0 434 229" fill="none" xmlns="http://www.w3.org/2000/svg">
<rect width="434" height="229" rx="15" fill="#EF916B"/>
<mask id="mask0_1801_1319" style="mask-type:alpha" maskUnits="userSpaceOnUse" x="0" y="0" width="434" height="229">
<rect width="434" height="229" rx="15" fill="#EF916B"/>
</mask>
<g mask="url(#mask0_1801_1319)">
<g opacity="0.3">
<path d="M423.785 -52.6565C421.202 -51.0307 418.648 -49.3953 416.122 -47.7262C414.29 -46.5285 412.476 -45.3212 410.658 -44.1091C408.826 -42.8825 407.012 -41.6415 405.209 -40.415C403.39 -39.174 401.577 -37.933 399.773 -36.692C397.955 -35.451 396.142 -34.1956 394.367 -32.9691C392.876 -31.9493 391.413 -30.9441 389.98 -29.9724C387.811 -28.4813 385.67 -27.0335 383.588 -25.6434C379.807 -23.1037 376.19 -20.742 372.924 -18.7314C372.746 -18.6112 372.568 -18.5101 372.39 -18.3899C369.922 -16.7641 367.325 -15.2874 364.622 -13.9454C364.165 -13.8589 363.708 -13.7675 363.246 -13.6809C362.241 -13.4885 361.269 -13.2817 360.321 -13.046C358.874 -12.69 357.575 -12.3052 356.363 -11.8771C355.151 -11.449 354.073 -10.9777 353.102 -10.487C352.775 -10.3235 352.452 -10.1599 352.14 -9.98679C350.971 -9.32301 349.999 -8.61113 349.143 -7.88963C348.138 -7.04787 347.325 -6.1484 346.647 -5.27779C345.983 -4.4216 345.449 -3.52212 345.021 -2.65151C344.578 -1.78089 344.222 -0.881418 343.914 -0.00599454C343.765 0.436527 343.621 0.86461 343.472 1.30713C343.323 1.74965 343.193 2.19218 343.044 2.6347C342.765 3.50532 342.481 4.39036 342.159 5.26097C341.981 5.79488 341.774 6.32399 341.553 6.84347" stroke="white" stroke-width="1.17722" stroke-linecap="round" stroke-linejoin="round"/>
<path d="M382.733 -25.0567C382.363 -24.821 382.04 -24.5853 381.713 -24.3496C380.621 -23.5078 379.703 -22.6372 378.952 -21.7666C378.231 -20.9104 377.625 -20.0542 377.12 -19.1836C376.634 -18.3274 376.22 -17.4568 375.879 -16.6006C375.523 -15.7445 375.215 -14.8883 374.936 -14.0321C374.671 -13.1759 374.388 -12.3197 374.123 -11.478C373.844 -10.6362 373.546 -9.79446 373.195 -8.95271C372.853 -8.12538 372.439 -7.29806 371.939 -6.48516C371.612 -5.92239 371.218 -5.37886 370.77 -4.83052C370.549 -4.5804 370.328 -4.33029 370.078 -4.06092C369.308 -3.26246 368.365 -2.47843 367.197 -1.72806C366.355 -1.19415 365.412 -0.665047 364.378 -0.164805C362.545 0.556698 360.761 1.21087 358.986 1.79769C355.325 3.03868 351.66 4.14498 348.043 5.15028C347.75 5.23686 347.437 5.31381 347.144 5.40039C347.115 5.40039 347.086 5.41482 347.071 5.41482C343.81 6.28544 340.544 7.11276 337.283 7.86794C333.738 8.68083 330.193 9.40234 326.634 10.0373C326.1 10.1383 325.542 10.2441 324.965 10.3307C322.055 10.8309 319.116 11.2927 316.191 11.6871C312.781 12.1585 309.356 12.5577 305.927 12.8848C302.574 13.1926 299.221 13.4331 295.869 13.6063C292.588 13.7698 289.313 13.8564 286.047 13.8708C282.858 13.8853 279.669 13.842 276.48 13.7073C276.138 13.6929 275.758 13.6784 275.33 13.664C272.612 13.5438 269.895 13.385 267.191 13.1638C264.166 12.9281 261.136 12.6298 258.11 12.2931C255.142 11.9661 252.16 11.5861 249.192 11.1724C246.239 10.7588 243.286 10.3162 240.347 9.84485C237.393 9.37347 234.454 8.85398 231.515 8.33931C228.562 7.79097 225.594 7.24745 222.655 6.67025C219.673 6.07861 216.677 5.47255 213.709 4.86649C212.968 4.70295 212.304 4.57307 211.698 4.43839C209.322 3.95258 206.96 3.44752 204.594 2.93285C201.462 2.25464 198.36 1.57643 195.262 0.878976C192.044 0.157473 188.822 -0.568845 185.618 -1.29035C182.28 -2.05995 178.956 -2.81032 175.637 -3.56549C172.891 -4.20042 170.13 -4.82091 167.326 -5.45583C166.676 -5.60494 165.969 -5.74923 165.229 -5.9272C161.655 -6.72566 158.066 -7.5097 154.435 -8.27449C150.774 -9.0441 147.095 -9.79447 143.377 -10.5208C139.745 -11.2279 136.094 -11.9109 132.434 -12.5458C132.376 -12.5602 132.333 -12.5602 132.27 -12.5747C128.624 -13.2096 124.945 -13.8156 121.284 -14.3784C117.71 -14.9412 114.108 -15.4559 110.519 -15.9272C107.032 -16.3842 103.521 -16.8267 100.019 -17.2259C96.6233 -17.6108 93.213 -17.9667 89.8027 -18.289C86.4645 -18.5968 83.1264 -18.895 79.8074 -19.1596C76.5607 -19.4097 73.2947 -19.6454 70.0335 -19.8522C66.8444 -20.0446 63.6265 -20.237 60.4327 -20.4006C57.2725 -20.5641 54.0979 -20.7084 50.9521 -20.8287C49.2686 -20.9008 47.5851 -20.9633 45.916 -21.021C44.4682 -21.0788 43.006 -21.1221 41.5726 -21.1846C38.4557 -21.2856 35.3099 -21.377 32.2267 -21.478C29.1098 -21.579 25.9641 -21.6848 22.8953 -21.8051C19.7495 -21.9253 16.5749 -22.0696 13.535 -22.262C13.0636 -22.2765 12.573 -22.3053 12.1016 -22.3342C9.35506 -22.5122 6.65183 -22.7334 4.09771 -22.9835C2.23623 -23.1615 0.45171 -23.3828 -1.21737 -23.6185C-2.70847 -23.8253 -4.113 -24.061 -5.4117 -24.2967C-6.7537 -24.5468 -7.9514 -24.8113 -9.0577 -25.0951C-10.8134 -25.5377 -12.2323 -25.9946 -13.4011 -26.4516C-13.9495 -26.6728 -14.4353 -26.8797 -14.8634 -27.0865C-14.8634 -27.1009 -15.455 -27.3655 -16.2968 -27.9138C-16.9173 -28.6209 -17.4319 -29.3616 -17.8745 -30.0831C-18.3747 -30.9105 -18.7884 -31.7666 -19.1155 -32.6084C-19.457 -33.4501 -19.7071 -34.3208 -19.8995 -35.1625C-20.1063 -36.0043 -20.241 -36.8749 -20.3276 -37.7311C-20.4142 -38.5873 -20.4478 -39.4579 -20.4286 -40.3141C-20.4142 -41.1847 -20.342 -42.0697 -20.2218 -42.9403C-20.0871 -43.8109 -19.9139 -44.696 -19.6734 -45.5858C-19.4377 -46.4709 -19.1395 -47.3703 -18.7884 -48.2602C-18.4036 -49.1452 -17.961 -50.064 -17.3983 -50.949C-16.8355 -51.8485 -16.1573 -52.7672 -15.3011 -53.6378C-14.4161 -54.5517 -13.3386 -55.456 -11.963 -56.2977C-11.7273 -56.4469 -11.4916 -56.5912 -11.2414 -56.7403C-9.82249 -57.5387 -8.16785 -58.2602 -6.16207 -58.9096C-4.58438 -59.4098 -2.83834 -59.8523 -0.948004 -60.2371C1.56283 -60.723 4.26606 -61.0933 7.0703 -61.3723C7.67636 -61.4445 8.29685 -61.4926 8.91735 -61.5503C12.0487 -61.8148 15.3099 -61.9928 18.547 -62.0842C21.6639 -62.1852 24.8674 -62.2333 28.0131 -62.2333C31.13 -62.2333 34.2902 -62.19 37.4071 -62.1131C40.524 -62.0361 43.6697 -61.9351 46.753 -61.8052C49.8843 -61.6705 53.03 -61.5262 56.1469 -61.3338C58.9993 -61.1703 61.8468 -60.9923 64.6655 -60.7999C64.9733 -60.7711 65.286 -60.7566 65.5938 -60.7278C68.7829 -60.5065 71.9863 -60.2708 75.161 -60.0207C78.4077 -59.7706 81.6449 -59.506 84.8916 -59.2222C88.2009 -58.9433 91.5054 -58.6595 94.8147 -58.3661C96.7195 -58.1881 98.6387 -58.0101 100.543 -57.8514C102.02 -57.7167 103.511 -57.5868 104.988 -57.4377C108.456 -57.1299 111.943 -56.8028 115.43 -56.495C118.99 -56.1679 122.564 -55.8456 126.138 -55.5329C128.456 -55.3261 130.774 -55.1337 133.093 -54.9413C134.42 -54.8211 135.753 -54.7201 137.095 -54.6142C140.77 -54.3064 144.478 -54.037 148.187 -53.7869C151.862 -53.5368 155.556 -53.3155 159.279 -53.1231C162.867 -52.9452 166.498 -52.796 170.135 -52.7095C173.603 -52.6229 177.119 -52.5604 180.606 -52.5604C183.959 -52.5459 187.34 -52.5604 190.693 -52.6181C193.925 -52.6614 197.177 -52.7383 200.409 -52.8393C203.555 -52.9596 206.701 -53.075 209.832 -53.2386C212.906 -53.3877 215.974 -53.5464 219.034 -53.7532C222.059 -53.9457 225.075 -54.1525 228.072 -54.3882C229.577 -54.5084 231.068 -54.6239 232.559 -54.7585C234.05 -54.8932 235.541 -55.0231 237.033 -55.1578C240.015 -55.4367 242.997 -55.7494 245.95 -56.0717C248.961 -56.4132 251.963 -56.7643 254.916 -57.1491C255.08 -57.178 255.258 -57.1924 255.416 -57.2213C258.312 -57.6061 261.16 -58.0053 263.969 -58.4478C266.316 -58.8182 268.62 -59.1886 270.91 -59.5974C271.679 -59.7321 272.43 -59.862 273.199 -60.0111C276.388 -60.6027 279.447 -61.2376 282.487 -61.9014C282.545 -61.9159 282.608 -61.9303 282.665 -61.9447C285.811 -62.6518 288.779 -63.3781 291.761 -64.1429C291.982 -64.2006 292.204 -64.2631 292.425 -64.3209C294.964 -64.9846 297.355 -65.6196 299.851 -66.3122C300.722 -66.5479 301.593 -66.7836 302.463 -67.0193C303.334 -67.255 304.205 -67.4762 305.075 -67.7119C305.946 -67.9476 306.816 -68.1689 307.701 -68.4046C309.356 -68.8327 311.025 -69.2463 312.738 -69.66C313.844 -69.9245 314.955 -70.1939 316.09 -70.444C318.394 -70.9587 320.741 -71.4637 323.166 -71.9207C324.094 -72.0987 325.013 -72.2766 325.955 -72.4354C328.495 -72.8923 331.078 -73.306 333.724 -73.6908C335.378 -73.9409 337.033 -74.1622 338.716 -74.3834C340.592 -74.6191 342.483 -74.8404 344.402 -75.0472C347.947 -75.4464 351.535 -75.7879 355.152 -76.0958C355.802 -76.1391 356.437 -76.1968 357.086 -76.2449C360.025 -76.495 363.007 -76.7019 365.975 -76.9087C369.592 -77.1444 373.224 -77.3656 376.86 -77.558C379.679 -77.7216 382.488 -77.8659 385.306 -78.0006C386.134 -78.0439 386.961 -78.0727 387.788 -78.1208C391.434 -78.2988 395.085 -78.4767 398.746 -78.6355C402.392 -78.8134 406.057 -78.977 409.717 -79.1502C412.978 -79.2993 416.259 -79.4436 419.539 -79.5927C419.938 -79.6215 420.323 -79.636 420.722 -79.6504C424.397 -79.8284 428.077 -79.9919 431.752 -80.1651C435.446 -80.3286 439.135 -80.5066 442.844 -80.6653C446.446 -80.8288 450.064 -80.9924 453.666 -81.1367C453.767 -81.1511 453.873 -81.1511 453.96 -81.1511C457.697 -81.3147 461.415 -81.459 465.138 -81.6081C468.876 -81.7572 472.608 -81.8871 476.346 -82.0073C480.083 -82.1276 483.816 -82.2286 487.567 -82.3007C489.843 -82.344 492.118 -82.3729 494.388 -82.4017" stroke="white" stroke-width="1.17722" stroke-linecap="round" stroke-linejoin="round"/>
<path d="M-36.9954 -23.2866C-33.9073 -20.9538 -30.8818 -18.8854 -27.8852 -17.1009C-24.446 -15.0326 -21.0309 -13.2625 -17.6831 -11.7859C-17.4619 -11.6848 -17.2406 -11.5935 -17.0049 -11.4924C-13.888 -10.136 -10.8048 -8.98161 -7.74562 -8.02442C-5.14821 -7.21153 -2.56042 -6.51888 -0.0062974 -5.91281C0.657486 -5.7637 1.32127 -5.61941 1.97062 -5.48473C5.18853 -4.80652 8.37757 -4.2726 11.5378 -3.85894C14.6979 -3.45971 17.8437 -3.15187 20.9894 -2.94504C24.1208 -2.72378 27.2521 -2.57466 30.3834 -2.47365C33.5003 -2.38707 36.6316 -2.32454 39.7582 -2.29568C42.8847 -2.26682 46.0208 -2.22354 49.1666 -2.19468C52.3267 -2.16582 55.4869 -2.12253 58.676 -2.07443C61.865 -2.02633 65.0685 -1.98785 68.3056 -1.91089C71.538 -1.85317 74.804 -1.76177 78.094 -1.66076C81.3889 -1.57418 84.7222 -1.4395 88.1085 -1.29039C91.4755 -1.14128 94.8858 -0.963302 98.3586 -0.756472C101.812 -0.535211 105.314 -0.285101 108.873 0.01312C112.433 0.306531 116.021 0.662484 119.667 1.06172C123.313 1.46095 126.993 1.91789 130.696 2.4518C134.405 2.96648 138.138 3.55811 141.86 4.22189C145.598 4.88567 149.316 5.61199 152.996 6.42007C156.69 7.21853 160.321 8.08915 163.881 9.01748C167.455 9.94581 170.956 10.9223 174.367 11.9276C177.791 12.9473 181.144 13.9814 184.439 15.03C187.719 16.093 190.952 17.156 194.112 18.2335C197.286 19.3109 200.418 20.3884 203.486 21.4802C206.574 22.5577 209.614 23.6351 212.626 24.7126C215.651 25.79 218.638 26.853 221.606 27.9161C224.574 28.9791 227.527 30.0277 230.48 31.0618C233.419 32.096 236.358 33.1157 239.311 34.1017C242.25 35.107 245.189 36.0787 248.157 37.0407C251.11 38.0027 254.078 38.931 257.075 39.8305C258.566 40.273 260.057 40.7155 261.563 41.1436C263.068 41.5861 264.603 42.0142 266.127 42.4279C269.187 43.2552 272.27 44.0537 275.401 44.7896C278.532 45.5448 281.707 46.223 284.925 46.8723C288.143 47.5073 291.409 48.0989 294.699 48.628C298.008 49.1619 301.327 49.6189 304.713 50.0181C308.08 50.4318 311.476 50.7733 314.915 51.0378C318.34 51.3024 321.799 51.5092 325.281 51.6439C328.768 51.7786 332.28 51.8218 335.81 51.8074C339.341 51.793 342.886 51.7064 346.46 51.5285C350.019 51.3649 353.607 51.1148 357.196 50.7877C360.784 50.4462 364.386 50.047 368.004 49.5611C371.606 49.0753 375.238 48.5126 378.86 47.8632C382.491 47.2283 386.123 46.4876 389.759 45.6939C393.391 44.881 397.022 44.0104 400.673 43.0484C404.305 42.0864 407.956 41.0859 411.616 40.0085C415.262 38.9454 418.927 37.8247 422.588 36.6703C426.248 35.5015 429.928 34.3086 433.617 33.0964C437.292 31.8699 440.986 30.6433 444.675 29.3879C448.384 28.1469 452.088 26.8915 455.796 25.6505C459.519 24.4096 463.237 23.183 466.96 21.9757C470.683 20.7636 474.416 19.5995 478.139 18.4596C481.876 17.3244 485.594 16.2421 489.317 15.2128C493.04 14.1931 496.758 13.2359 500.452 12.346C504.161 11.461 507.85 10.6625 511.511 9.95544C515.185 9.23394 518.836 8.59902 522.468 8.03625C526.099 7.45904 529.717 6.97323 533.305 6.53071C536.908 6.10261 540.481 5.71781 544.055 5.39553C547.615 5.06845 551.174 4.8039 554.719 4.56821C558.1 4.36138 561.482 4.18342 564.849 4.0343C565.012 4.01987 565.19 4.01988 565.349 4.00545C568.88 3.85634 572.425 3.75533 575.95 3.66394C579.495 3.57736 583.04 3.51482 586.581 3.48596C590.121 3.4571 593.685 3.44267 597.259 3.44267C600.818 3.4571 604.407 3.47152 608.009 3.50038C611.612 3.52925 615.229 3.55812 618.865 3.60141C622.497 3.63027 626.148 3.67355 629.823 3.70241C633.498 3.7457 637.177 3.77456 640.881 3.82266C644.589 3.85152 648.308 3.89481 652.031 3.92367C655.768 3.96696 659.486 4.01025 663.223 4.04392C664.82 4.05835 666.412 4.07278 668.009 4.08721C670.135 4.11607 672.247 4.13051 674.359 4.15937C678.067 4.18823 681.742 4.23152 685.388 4.26038C689.02 4.30367 692.622 4.33253 696.167 4.38063C699.727 4.40949 703.209 4.45277 706.639 4.48163C710.068 4.51049 713.416 4.55378 716.697 4.58264C717.211 4.58264 717.716 4.59707 718.231 4.59707C720.977 4.62593 723.666 4.6548 726.292 4.68366C728.433 4.69809 730.53 4.72695 732.598 4.74138" stroke="white" stroke-width="1.17722" stroke-linecap="round" stroke-linejoin="round"/>
<path d="M369.664 -16.6968C368.688 -16.0041 367.86 -15.3067 367.153 -14.5852C366.312 -13.7434 365.604 -12.8584 365.013 -11.9878C364.436 -11.1316 363.921 -10.261 363.478 -9.39035C363.036 -8.53417 362.637 -7.66356 362.252 -6.79295C361.867 -5.93676 361.482 -5.06615 361.083 -4.20997C360.996 -4.01757 360.905 -3.82516 360.818 -3.63276C360.491 -2.96898 360.155 -2.3052 359.784 -1.64142C359.313 -0.799664 358.765 0.0420896 358.13 0.883843C357.702 1.44662 357.23 2.00458 356.682 2.56735" stroke="white" stroke-width="1.17722" stroke-linecap="round" stroke-linejoin="round"/>
<path d="M402.03 -38.2457C401.174 -37.6685 400.433 -37.0625 399.813 -36.4612C398.956 -35.6195 398.278 -34.7633 397.773 -33.8927C397.287 -33.0509 396.931 -32.1947 396.725 -31.3241C396.518 -30.4824 396.397 -29.6262 396.383 -28.77C396.383 -27.9282 396.441 -27.0721 396.59 -26.2303C396.739 -25.3886 396.917 -24.5468 397.153 -23.7195C397.388 -22.8921 397.638 -22.0648 397.908 -21.2375C398.028 -20.8383 398.158 -20.4246 398.278 -20.0254C398.398 -19.6261 398.499 -19.2269 398.605 -18.8132C398.798 -18.0436 398.913 -17.25 398.913 -16.4804C398.899 -15.7252 398.778 -14.9604 398.499 -14.2053C398.235 -13.4645 397.922 -12.7141 397.557 -11.9734C397.201 -11.2327 396.922 -10.4823 396.758 -9.72712C396.595 -8.92866 396.787 -8.14462 397.465 -7.37983C398.249 -6.49479 399.962 -5.75404 402.016 -5.14797C402.372 -5.04696 402.737 -4.94115 403.107 -4.84014C404.526 -4.46977 406.147 -4.13307 407.759 -3.84928C409.37 -3.56549 411.082 -3.31536 412.766 -3.07967C415.556 -2.69487 418.552 -2.33893 421.434 -2.03109C422.174 -1.95894 422.896 -1.88197 423.632 -1.80982C427.206 -1.43945 430.957 -1.10275 434.575 -0.775667C436.393 -0.612127 438.221 -0.467821 440.053 -0.30428C441.9 -0.155169 443.728 0.00355239 445.561 0.152663C446.98 0.272914 448.413 0.388349 449.827 0.5086C451.261 0.64328 452.68 0.75873 454.108 0.878981C454.935 0.951131 455.763 1.02809 456.59 1.10024C460.265 1.42732 464.031 1.76402 467.668 2.13439C471.376 2.50476 475.123 2.904 478.745 3.36095C478.966 3.38981 479.173 3.41867 479.394 3.4331C481.164 3.66879 482.925 3.90448 484.652 4.1546C486.393 4.40473 488.091 4.68852 489.774 4.9675C490.765 5.14547 491.737 5.32343 492.728 5.5014C494.103 5.76596 495.445 6.03532 496.773 6.3143C498.115 6.59328 499.399 6.87707 500.717 7.18491C500.732 7.18491 500.761 7.19934 500.789 7.19934C501.809 7.43503 502.8 7.67072 503.786 7.90641C504.777 8.15654 505.763 8.39223 506.754 8.64716C507.552 8.83956 508.336 9.0464 509.13 9.2388C509.924 9.4312 510.727 9.63802 511.521 9.83042C511.622 9.85928 511.727 9.88814 511.828 9.90257" stroke="white" stroke-width="1.17722" stroke-linecap="round" stroke-linejoin="round"/>
<path d="M291.664 48.1423C292.684 48.1134 293.703 48.099 294.723 48.0845C298.061 48.0413 301.399 47.998 304.752 47.9643C308.148 47.9354 311.558 47.921 314.968 47.921C318.422 47.921 321.895 47.921 325.348 47.9499C328.85 47.9643 332.361 47.9932 335.878 48.0365C339.423 48.0797 342.967 48.1375 346.508 48.2144C350.082 48.2866 353.655 48.3635 357.229 48.4646C360.832 48.5511 364.435 48.6714 368.023 48.7916C369.456 48.8494 370.904 48.8926 372.333 48.9552" stroke="white" stroke-width="1.17722" stroke-linecap="round" stroke-linejoin="round"/>
<path d="M267.591 42.8272C270.202 42.7261 272.819 42.6347 275.445 42.5482C278.62 42.4472 281.809 42.3558 284.998 42.2836C288.259 42.2115 291.54 42.1345 294.806 42.0912C297.552 42.0479 300.299 42.0191 303.031 41.9902C303.637 41.9758 304.228 41.9758 304.835 41.9758C308.23 41.9469 311.641 41.9325 315.051 41.9325C318.505 41.9181 321.977 41.9325 325.431 41.9469C328.947 41.9758 332.444 42.0046 335.96 42.0479C339.505 42.1057 343.05 42.1682 346.59 42.2403C350.164 42.2981 353.738 42.3894 357.312 42.4904C358.226 42.5049 359.159 42.5337 360.073 42.5626C362.747 42.6348 365.431 42.7262 368.106 42.8127C371.708 42.9474 375.325 43.0917 378.928 43.2408C382.545 43.4043 386.177 43.5823 389.784 43.7747C392.002 43.895 394.2 44.0104 396.413 44.1451" stroke="white" stroke-width="1.17722" stroke-linecap="round" stroke-linejoin="round"/>
<path d="M170.188 -4.79685C173.391 -4.64774 176.628 -4.53229 179.846 -4.45533C183.199 -4.38318 186.551 -4.33508 189.904 -4.32065C193.136 -4.32065 196.373 -4.33508 199.606 -4.36394C202.737 -4.40723 205.883 -4.46496 209.014 -4.55635C212.073 -4.6285 215.142 -4.71988 218.187 -4.82089C221.198 -4.94114 224.214 -5.05658 227.21 -5.17683C230.178 -5.31151 233.16 -5.44139 236.128 -5.57607C239.081 -5.72518 242.049 -5.86947 245.003 -6.01858C247.97 -6.1677 250.938 -6.312 253.906 -6.46111C255.219 -6.53326 256.532 -6.59579 257.85 -6.66794C259.519 -6.75452 261.203 -6.83148 262.872 -6.91806C265.912 -7.06717 268.956 -7.21147 271.996 -7.36058C275.084 -7.50969 278.197 -7.63956 281.313 -7.75981C284.488 -7.88006 287.691 -7.98108 290.866 -8.06766C294.113 -8.15424 297.422 -8.2312 300.674 -8.27449C303.969 -8.31778 307.408 -8.3322 310.703 -8.30334C312.386 -8.28891 314.113 -8.26006 315.811 -8.21677C317.494 -8.15905 319.221 -8.08209 320.876 -7.98108C322.766 -7.86083 324.685 -7.68766 326.427 -7.4183C328.23 -7.13932 329.808 -6.78339 331.092 -6.29757C331.448 -6.16289 331.771 -6.01859 332.069 -5.86948C332.867 -5.47024 333.459 -5.02773 333.901 -4.55635C334.329 -4.11383 334.642 -3.62801 334.844 -3.16625C335.243 -2.29563 335.421 -1.34806 335.493 -0.477446C335.58 0.393167 335.595 1.30707 335.58 2.18249C335.58 2.62502 335.566 3.06754 335.551 3.51006C335.537 3.95259 335.508 4.3951 335.479 4.83762C335.421 5.72266 335.316 6.62214 335.171 7.49756C335.128 7.79097 335.07 8.08921 335.008 8.38262" stroke="white" stroke-width="1.17722" stroke-linecap="round" stroke-linejoin="round"/>
<path d="M199.942 1.92281C202.924 1.89395 205.907 1.85066 208.889 1.7737C211.948 1.70155 215.002 1.61017 218.061 1.50916C221.058 1.42258 224.074 1.30233 227.071 1.18208C228.504 1.13879 229.952 1.08107 231.38 1.01854C232.915 0.960822 234.454 0.88385 235.988 0.826129C238.942 0.691449 241.91 0.576014 244.863 0.441334C247.831 0.306653 250.784 0.176788 253.752 0.0565379C256.734 -0.0781426 259.731 -0.193593 262.718 -0.313843C265.743 -0.434094 268.788 -0.520667 271.813 -0.607247C274.902 -0.708258 278.028 -0.770799 281.116 -0.814089C284.276 -0.85738 287.494 -0.857379 290.654 -0.828519C293.887 -0.785229 297.21 -0.70826 300.414 -0.549529C302.097 -0.462949 303.795 -0.342703 305.45 -0.208022C307.105 -0.0733414 308.759 0.0998269 310.337 0.325898C312.598 0.619309 314.724 1.01854 316.614 1.52359C318.033 1.90839 319.26 2.35092 320.308 2.83673C321.299 3.29368 322.112 3.77948 322.79 4.28454C323.353 4.71263 323.839 5.16958 324.238 5.61211C324.652 6.06906 324.993 6.526 325.272 6.98777C325.806 7.87281 326.172 8.79154 326.407 9.67658C326.45 9.81126 326.479 9.94112 326.508 10.0758" stroke="white" stroke-width="1.17722" stroke-linecap="round" stroke-linejoin="round"/>
<path d="M227.839 7.66597C230.513 7.56496 233.183 7.45915 235.843 7.35813C238.796 7.25712 241.764 7.13688 244.717 7.03106C247.671 6.91081 250.638 6.80978 253.606 6.70396C256.574 6.61738 259.571 6.526 262.553 6.45385C265.564 6.3817 268.623 6.31917 271.634 6.29031C274.722 6.26145 277.834 6.27588 280.922 6.3336C284.082 6.37689 287.3 6.49713 290.417 6.68953C293.712 6.89637 297.031 7.18979 300.105 7.63231C302.63 8.00268 304.977 8.45962 307.074 9.03683C308.094 9.31581 309.022 9.62846 309.893 9.96516C311.355 10.5279 312.553 11.134 313.539 11.7978C313.64 11.8699 313.746 11.9469 313.847 12.0046" stroke="white" stroke-width="1.17722" stroke-linecap="round" stroke-linejoin="round"/>
<path d="M364.343 -13.7723C363.781 -13.5799 363.237 -13.3731 362.718 -13.1663C362.318 -13.0027 361.919 -12.8392 361.534 -12.666C359.687 -11.8676 358.153 -10.997 356.854 -10.0975C355.628 -9.25574 354.656 -8.3707 353.857 -7.48565C353.088 -6.62947 352.453 -5.74441 351.938 -4.8738C351.597 -4.28217 351.274 -3.67611 350.996 -3.08929C350.846 -2.8103 350.731 -2.52651 350.596 -2.24753C350.197 -1.37692 349.827 -0.506309 349.461 0.378735C349.105 1.24935 348.72 2.11996 348.326 2.99057C347.956 3.78904 347.542 4.60193 347.085 5.41001" stroke="white" stroke-width="1.17722" stroke-linecap="round" stroke-linejoin="round"/>
<path d="M249.827 37.5843C252.246 37.4496 254.685 37.3197 257.123 37.1995C260.149 37.0359 263.194 36.9061 266.234 36.7714C267.696 36.7137 269.144 36.6512 270.606 36.5934C272.246 36.5213 273.901 36.4588 275.551 36.4155C278.725 36.2952 281.914 36.2086 285.103 36.1365C288.365 36.0499 291.645 35.9729 294.911 35.9297C298.249 35.8719 301.602 35.8286 304.94 35.795C308.336 35.7805 311.746 35.7661 315.156 35.7661C318.61 35.7661 322.083 35.7805 325.536 35.8094C329.053 35.8238 332.549 35.8671 336.066 35.9297C339.611 35.9729 343.156 36.0307 346.696 36.1221C350.27 36.1942 353.843 36.2856 357.417 36.3866C361.005 36.4876 364.608 36.6079 368.196 36.7281C371.814 36.8628 375.431 37.0071 379.033 37.1562C382.651 37.3197 386.268 37.4977 389.87 37.6901C390.813 37.7334 391.761 37.7767 392.704 37.8392C395.392 37.9883 398.062 38.1471 400.736 38.3106C404.368 38.5463 407.999 38.7964 411.621 39.0658C412.463 39.1379 413.319 39.2005 414.161 39.2726" stroke="white" stroke-width="1.17722" stroke-linecap="round" stroke-linejoin="round"/>
<path d="M234.217 32.375C235.915 32.2548 237.627 32.1249 239.34 32.0046C242.308 31.7978 245.275 31.591 248.257 31.413C248.743 31.3841 249.234 31.3553 249.72 31.3264C252.216 31.1629 254.727 31.033 257.238 30.8839C260.278 30.7204 263.308 30.5568 266.348 30.427C268.282 30.3259 270.215 30.249 272.154 30.1768C273.323 30.1191 274.501 30.0758 275.67 30.0277C278.859 29.9075 282.048 29.8065 285.237 29.7199C288.498 29.6333 291.764 29.5708 295.045 29.5131C298.383 29.4553 301.721 29.4265 305.073 29.3928C308.469 29.3639 311.88 29.3639 315.29 29.3784C318.744 29.3784 322.216 29.4072 325.67 29.4361C329.172 29.4794 332.683 29.5371 336.185 29.5996C339.73 29.6574 343.275 29.7487 346.815 29.8353C350.389 29.9219 353.963 30.0133 357.536 30.1287C361.125 30.249 364.727 30.3644 368.316 30.4991C371.918 30.6338 375.535 30.7925 379.138 30.9416C381.885 31.0763 384.631 31.2062 387.378 31.3409C388.248 31.3841 389.119 31.4274 389.99 31.4755C393.621 31.6679 397.238 31.8748 400.86 32.1105C404.492 32.3317 408.123 32.5818 411.731 32.8512C412.409 32.8945 413.073 32.9378 413.741 33.0003C416.724 33.2216 419.691 33.4573 422.645 33.7218C425.035 33.9287 427.416 34.1355 429.792 34.3712" stroke="white" stroke-width="1.17722" stroke-linecap="round" stroke-linejoin="round"/>
<path d="M117.469 0.830866C118.191 0.595175 118.96 0.373912 119.744 0.167081C120.379 -0.0108898 121.028 -0.174435 121.692 -0.333165C123.433 -0.775687 125.386 -1.23263 127.171 -1.66072C128.484 -1.96856 129.783 -2.29564 131.053 -2.62273C131.808 -2.81513 132.544 -3.00753 133.284 -3.21436C135.247 -3.76271 137.022 -4.3832 138.436 -5.09027C139.114 -5.43178 139.619 -5.79734 139.913 -6.18214C140.192 -6.58137 140.283 -6.98061 140.192 -7.37984C140.105 -7.86566 139.614 -8.34184 138.979 -8.76993C138.33 -9.19802 137.503 -9.61169 136.632 -9.9965C135.276 -10.6026 133.621 -11.1653 131.923 -11.6656C130.682 -12.0215 129.383 -12.3726 128.056 -12.6997C125.838 -13.2481 123.52 -13.7339 121.129 -14.1908C119.032 -14.5901 116.892 -14.9604 114.708 -15.2971C113.318 -15.5184 111.918 -15.7252 110.499 -15.9176C109.73 -16.0186 108.965 -16.1245 108.195 -16.2255" stroke="white" stroke-width="1.17722" stroke-linecap="round" stroke-linejoin="round"/>
<path d="M189.635 16.7473C191.154 16.526 192.66 16.3192 194.185 16.1123C195.411 15.9488 196.638 15.7708 197.86 15.6121C199.808 15.362 201.756 15.0974 203.694 14.8281C204.921 14.6645 206.147 14.4865 207.369 14.3278C209.245 14.0777 211.121 13.8131 212.968 13.5293C214.546 13.3081 216.114 13.058 217.677 12.8223C219.168 12.5866 220.674 12.322 222.093 12.0382C223.689 11.7304 225.282 11.3745 226.686 10.9752C227.172 10.8405 227.648 10.6818 228.062 10.5183C228.461 10.3403 228.817 10.1623 229.053 9.95551C229.538 9.52741 229.409 9.09932 228.846 8.68565C228.552 8.46439 228.124 8.25757 227.663 8.0796C227.191 7.8872 226.657 7.72366 226.114 7.56493C225.051 7.25708 223.81 6.95886 222.612 6.69431C221.857 6.53077 221.078 6.36723 220.279 6.2085" stroke="white" stroke-width="1.17722" stroke-linecap="round" stroke-linejoin="round"/>
<path d="M388.99 -29.2943C388.946 -29.2799 388.918 -29.251 388.889 -29.2222C387.677 -28.3948 386.671 -27.5387 385.863 -26.6536C385.094 -25.8119 384.444 -24.9412 383.944 -24.0851C383.473 -23.2866 383.088 -22.4737 382.775 -21.68C382.761 -21.6223 382.732 -21.5598 382.717 -21.5021C382.41 -20.6603 382.14 -19.7897 381.933 -18.9335C381.741 -18.0918 381.549 -17.2356 381.399 -16.3938C381.236 -15.5521 381.072 -14.7103 380.885 -13.8686C380.707 -13.0557 380.486 -12.2139 380.192 -11.401C379.913 -10.5881 379.543 -9.77524 379.043 -8.98159C378.557 -8.19755 377.907 -7.41833 377.066 -6.66315C376.195 -5.87912 375.175 -5.12877 373.934 -4.40245C372.737 -3.72424 371.438 -3.04603 370.038 -2.39187C369.904 -2.33415 369.774 -2.27161 369.639 -2.19946C367.97 -1.44428 366.214 -0.708356 364.382 0.0179572C363.439 0.373899 362.506 0.739455 361.577 1.10983C360.635 1.4802 359.716 1.85058 358.788 2.21614C358.701 2.245 358.624 2.27386 358.552 2.30272C357.609 2.67309 356.676 3.07232 355.849 3.47155C355.021 3.87078 354.237 4.29888 353.617 4.7414C352.982 5.18392 352.64 5.6553 352.91 6.13149C353.16 6.6173 353.958 7.03097 354.978 7.38691C355.892 7.69475 357.061 7.96412 358.196 8.18538C359.822 8.51246 361.664 8.77701 363.424 8.99827C365.194 9.23396 367.07 9.44078 368.889 9.61875C370.808 9.82559 372.818 10.018 374.781 10.1815C376.392 10.3306 378.028 10.4605 379.653 10.5952C383.198 10.8886 386.917 11.158 390.476 11.4225C392.28 11.5572 394.093 11.6871 395.897 11.8218C397.715 11.9564 399.514 12.0719 401.332 12.2065C404.329 12.4278 407.325 12.6346 410.327 12.8559C410.962 12.8992 411.582 12.9425 412.203 12.9906C415.834 13.2551 419.5 13.5389 423.117 13.8323C426.763 14.1257 430.428 14.424 434.06 14.7462C435.209 14.8472 436.349 14.9531 437.484 15.0541C440.024 15.2898 442.535 15.5399 445.046 15.7948C448.235 16.1363 451.395 16.473 454.541 16.8434C455.041 16.9011 455.546 16.9781 456.046 17.0358C459.413 17.4495 462.694 17.8776 465.984 18.349C466.354 18.4067 466.705 18.45 467.076 18.5125C469.543 18.8684 471.948 19.2532 474.372 19.6477" stroke="white" stroke-width="1.17722" stroke-linecap="round" stroke-linejoin="round"/>
<path d="M204.833 21.9613C207.444 21.6534 210.09 21.3696 212.731 21.0762C213.438 21.0041 214.164 20.9271 214.885 20.8405C217.189 20.6049 219.493 20.3547 221.797 20.119C223.51 19.9411 225.237 19.7631 226.949 19.5851C228.219 19.4504 229.489 19.3206 230.773 19.2003C233.741 18.8925 236.723 18.5654 239.691 18.2576C240.148 18.2143 240.605 18.171 241.047 18.1085C243.587 17.8439 246.141 17.5601 248.637 17.2667C249.878 17.1176 251.119 16.9733 252.346 16.8097C253.587 16.6606 254.813 16.5019 256.04 16.3384C256.588 16.2662 257.146 16.1893 257.695 16.1027C259.099 15.8958 260.634 15.6457 261.903 15.3619C262.567 15.2128 263.26 15.0349 263.794 14.8473C264.058 14.7463 264.308 14.626 264.486 14.5057C264.679 14.3855 264.765 14.2556 264.751 14.1065C264.737 13.9863 264.602 13.8708 264.409 13.7506C264.217 13.6496 263.967 13.5582 263.702 13.4716C263.188 13.2936 262.534 13.1445 261.932 13.0291C260.749 12.7789 259.32 12.5577 258.051 12.3653C256.81 12.1873 255.468 12.0093 254.198 11.8506C253.962 11.8218 253.726 11.7929 253.491 11.764" stroke="white" stroke-width="1.17722" stroke-linecap="round" stroke-linejoin="round"/>
<path d="M326.541 10.1624C325.3 10.4413 324.016 10.7396 322.847 11.0474C322.256 11.1965 321.65 11.3552 321.106 11.5188C320.543 11.6968 320 11.8747 319.528 12.0671C319.187 12.2018 318.879 12.3605 318.715 12.5241C318.538 12.7165 318.552 12.8945 318.788 13.058C319.009 13.2215 319.379 13.3514 319.778 13.4717C320.178 13.5727 320.635 13.6785 321.092 13.7651C321.876 13.9142 322.746 14.0296 323.574 14.1354C324.401 14.2557 325.286 14.3423 326.142 14.4433C327.277 14.5635 328.489 14.6645 329.644 14.7704C331.905 14.9772 334.31 15.1552 336.585 15.3187C340.024 15.5688 343.718 15.8045 347.172 16.0258C348.956 16.1268 350.731 16.2326 352.515 16.3336C354.3 16.4346 356.075 16.5404 357.859 16.6415C359.644 16.7425 361.448 16.8483 363.237 16.9493C365.041 17.0359 366.825 17.1417 368.629 17.2427C370.37 17.3293 372.131 17.4351 373.872 17.5217C375.733 17.6227 377.581 17.7285 379.437 17.8295C383.054 18.0364 386.657 18.2432 390.274 18.4645C393.891 18.6713 397.523 18.8925 401.13 19.1282C404.632 19.3495 408.129 19.5852 411.616 19.8353C411.751 19.8497 411.881 19.8497 412.015 19.8642C415.661 20.1287 419.312 20.3981 422.929 20.6915C426.59 20.9849 430.241 21.312 433.872 21.6535C433.992 21.6679 434.108 21.6679 434.214 21.6824C437.788 22.0239 441.333 22.375 444.844 22.7598C446.171 22.9089 447.504 23.0532 448.817 23.2168C451.179 23.4813 453.511 23.7795 455.844 24.0874C456.951 24.2365 458.076 24.3808 459.168 24.5299" stroke="white" stroke-width="1.17722" stroke-linecap="round" stroke-linejoin="round"/>
<path d="M376.69 -21.1124C375.863 -20.5641 375.127 -20.0206 374.473 -19.4578C373.718 -18.794 373.054 -18.1302 372.482 -17.4472C372.318 -17.2548 372.155 -17.0624 372.01 -16.87C371.361 -16.0138 370.798 -15.1432 370.327 -14.2726C369.855 -13.4164 369.442 -12.5458 369.071 -11.6896C368.701 -10.8334 368.35 -9.97723 368.008 -9.10662C367.667 -8.25043 367.316 -7.40868 366.945 -6.5525C366.561 -5.71075 366.132 -4.86899 365.647 -4.02724C365.161 -3.19991 364.569 -2.35816 363.877 -1.54527C363.184 -0.732372 362.342 0.0805219 361.322 0.859745C361.221 0.946326 361.116 1.02328 360.995 1.10986" stroke="white" stroke-width="1.17722" stroke-linecap="round" stroke-linejoin="round"/>
<path d="M219.465 27.161C220.187 27.1033 220.913 27.0263 221.634 26.9686C224.602 26.6896 227.584 26.4347 230.581 26.1845C230.995 26.1413 231.394 26.1124 231.808 26.0835C234.362 25.8623 236.916 25.6554 239.484 25.463C242.159 25.2562 244.843 25.0494 247.532 24.857C247.825 24.8426 248.109 24.8137 248.402 24.7993C251.399 24.578 254.395 24.3712 257.397 24.1788C260.437 23.9719 263.467 23.7795 266.522 23.616C267.421 23.5583 268.325 23.515 269.225 23.4525C271.423 23.3322 273.64 23.2312 275.839 23.1254C279.042 22.9763 282.202 22.8608 285.42 22.755C288.681 22.654 291.933 22.5626 295.228 22.5193C298.566 22.4616 301.904 22.4327 305.242 22.4327C308.653 22.4327 312.048 22.4472 315.459 22.4905C318.912 22.5193 322.371 22.577 325.824 22.654C329.326 22.7261 332.837 22.8175 336.339 22.9041C339.884 23.0051 343.429 23.111 346.955 23.2312C350.529 23.3515 354.102 23.4813 357.662 23.616C361.265 23.7651 364.853 23.895 368.441 24.0585C372.058 24.2076 375.661 24.3664 379.264 24.5443C379.591 24.5588 379.927 24.5732 380.254 24.5876C383.549 24.7512 386.839 24.9147 390.12 25.0879C393.737 25.2947 397.369 25.5015 400.976 25.7228C404.608 25.9585 408.239 26.1942 411.861 26.4635C412.217 26.4924 412.554 26.5068 412.91 26.5357C416.205 26.7714 419.495 27.0359 422.775 27.3053C425.786 27.5554 428.788 27.82 431.77 28.1182C432.419 28.1759 433.069 28.2384 433.703 28.2962C437.349 28.6665 440.952 29.0369 444.54 29.4457" stroke="white" stroke-width="1.17722" stroke-linecap="round" stroke-linejoin="round"/>
<path d="M172.919 11.5091C173.405 11.437 173.91 11.3456 174.396 11.259C176.123 10.9656 177.849 10.6673 179.596 10.3739C181.279 10.095 182.963 9.79673 184.646 9.50332C185.459 9.35421 186.286 9.2099 187.114 9.06079C188.383 8.83953 189.639 8.60385 190.865 8.36816C192.106 8.13247 193.333 7.88235 194.511 7.61298C194.646 7.58412 194.761 7.55527 194.896 7.52641C196.046 7.27629 197.186 6.99249 198.234 6.68465C199.268 6.37681 200.245 6.03529 201.039 5.66492C201.76 5.32341 202.251 4.95785 202.337 4.54419C202.438 4.13053 202.145 3.7313 201.645 3.36093C201.318 3.11081 200.889 2.87511 200.404 2.66828C199.918 2.44702 199.384 2.24019 198.807 2.04779C197.7 1.66298 196.416 1.29262 195.161 0.970346C194.805 0.883766 194.454 0.777937 194.098 0.691357C192.741 0.349845 191.337 0.0275751 189.947 -0.299506C189.798 -0.328366 189.653 -0.357223 189.504 -0.400513" stroke="white" stroke-width="1.17722" stroke-linecap="round" stroke-linejoin="round"/>
<path d="M395.358 -33.6665C394.973 -33.402 394.617 -33.1326 394.28 -32.868C393.732 -32.4399 393.246 -31.9974 392.818 -31.5549C391.991 -30.7131 391.313 -29.857 390.807 -28.9863C390.307 -28.1302 389.922 -27.274 389.639 -26.4178C389.374 -25.5616 389.182 -24.7054 389.061 -23.8492C388.941 -23.0075 388.869 -22.1513 388.84 -21.3096C388.826 -20.4678 388.811 -19.6261 388.826 -18.7843C388.826 -17.9714 388.811 -17.1441 388.768 -16.3168C388.725 -15.5183 388.619 -14.7054 388.441 -13.9117C388.249 -13.1277 387.941 -12.3292 387.465 -11.5645C386.979 -10.8093 386.358 -10.0445 385.531 -9.31818C384.704 -8.56301 383.775 -7.82707 382.755 -7.10075C382.077 -6.62937 381.413 -6.158 380.73 -5.68181C380.331 -5.41725 379.932 -5.13346 379.547 -4.86891C378.455 -4.11374 377.464 -3.33451 376.729 -2.55048C376.358 -2.15125 376.122 -1.72316 376.079 -1.3095C376.05 -0.881407 376.228 -0.467737 376.613 -0.0685048C376.921 0.239337 377.412 0.523127 378.003 0.787678C378.595 1.0378 379.287 1.27349 380.043 1.48032C381.64 1.93727 383.588 2.32207 385.464 2.64915C387.161 2.92814 388.98 3.1975 390.75 3.41876C392.505 3.65445 394.324 3.86129 396.127 4.05369C397.912 4.24609 399.759 4.42405 401.563 4.60202C404.901 4.90986 408.383 5.22251 411.75 5.50149C411.972 5.53035 412.193 5.54478 412.428 5.55921C414.247 5.72275 416.06 5.86706 417.878 6.01617C419.696 6.16528 421.51 6.30959 423.328 6.47313C426.974 6.76654 430.625 7.06476 434.271 7.38703C437.075 7.62272 439.87 7.87284 442.659 8.12777C443.53 8.19993 444.401 8.27688 445.257 8.36346C448.951 8.7194 452.64 9.08496 456.286 9.48419C458.547 9.71988 460.803 9.98443 463.049 10.2538C464.483 10.4318 465.901 10.6097 467.316 10.8021C470.168 11.1869 472.929 11.5717 475.704 11.9998C476.604 12.1489 477.474 12.2788 478.364 12.4279C480.418 12.7694 482.41 13.1061 484.435 13.4765C486.104 13.7844 487.729 14.097 489.35 14.4048C489.928 14.5251 490.5 14.6405 491.092 14.7608" stroke="white" stroke-width="1.17722" stroke-linecap="round" stroke-linejoin="round"/>
<path d="M152.159 6.23263C152.438 6.17491 152.736 6.11236 153.03 6.05464C154.55 5.72756 156.089 5.40529 157.609 5.07821C159.648 4.65012 161.683 4.2076 163.679 3.76508C163.828 3.72179 163.987 3.69293 164.151 3.64483C166.084 3.20231 167.975 2.71649 169.749 2.19701C170.663 1.93246 171.534 1.64867 172.304 1.3264C173.088 1.01856 173.766 0.677048 174.314 0.321106C174.449 0.234526 174.579 0.128697 174.685 0.0421171C174.848 -0.0925635 174.963 -0.236856 175.04 -0.385967C175.204 -0.650518 175.218 -0.919881 175.127 -1.19886C175.069 -1.3624 174.978 -1.50671 174.848 -1.67025C174.776 -1.77126 174.67 -1.87707 174.569 -1.97808C174.035 -2.49276 173.092 -2.98338 172.087 -3.41147C171.067 -3.83957 169.889 -4.25322 168.706 -4.62359C167.537 -4.99397 166.315 -5.36433 165.074 -5.70103C163.006 -6.27824 160.793 -6.82177 158.576 -7.34125C157.2 -7.64909 155.815 -7.96176 154.425 -8.2696C153.804 -8.40428 153.184 -8.53414 152.563 -8.66882" stroke="white" stroke-width="1.17722" stroke-linecap="round" stroke-linejoin="round"/>
<path d="M364.627 -13.9503C363.757 -13.4164 362.973 -12.8873 362.28 -12.3245C362.237 -12.2812 362.194 -12.2524 362.131 -12.2043C361.14 -11.3914 360.327 -10.5641 359.664 -9.7223C358.971 -8.86612 358.394 -7.98108 357.893 -7.11047C357.408 -6.23985 356.951 -5.36923 356.551 -4.49861C356.138 -3.628 355.739 -2.75739 355.354 -1.90121C354.954 -1.03059 354.541 -0.159982 354.098 0.696202C353.641 1.55239 353.136 2.423 352.578 3.26475C352.4 3.51487 352.237 3.75057 352.044 4.0055" stroke="white" stroke-width="1.17722" stroke-linecap="round" stroke-linejoin="round"/>
</g>
</g>
<path d="M0 115H434V214C434 222.284 427.284 229 419 229H15C6.71574 229 0 222.284 0 214V115Z" fill="#FE7138"/>
<path d="M31.577 26.7529C30.996 26.1221 30.3762 25.6572 29.7177 25.3584C29.0591 25.054 28.3314 24.9019 27.5345 24.9019C26.8926 24.9019 26.2645 25.0319 25.6503 25.292C25.0415 25.5521 24.5131 25.9146 24.0648 26.3794C23.6 26.8608 23.2513 27.4004 23.0189 27.998C22.7865 28.5902 22.6703 29.2459 22.6703 29.9653C22.6703 30.5298 22.7395 31.05 22.8778 31.5259C23.0162 32.0018 23.2237 32.439 23.5004 32.8374C23.9873 33.5291 24.585 34.0632 25.2933 34.4395C26.0072 34.8102 26.7764 34.9956 27.601 34.9956C28.3757 34.9956 29.0951 34.8351 29.7592 34.5142C30.4232 34.1932 31.0292 33.7145 31.577 33.0781V34.9956C30.9738 35.4328 30.3236 35.7648 29.6263 35.9917C28.9346 36.2131 28.218 36.3237 27.4764 36.3237C26.8345 36.3237 26.2092 36.2269 25.6005 36.0332C24.9917 35.8451 24.4218 35.5684 23.8905 35.2031C23.0051 34.5889 22.3272 33.8335 21.8568 32.937C21.392 32.0405 21.1595 31.0555 21.1595 29.9819C21.1595 29.0467 21.3145 28.1973 21.6244 27.4336C21.9398 26.6644 22.4185 25.9671 23.0604 25.3418C23.6802 24.7441 24.3664 24.2987 25.119 24.0054C25.8716 23.7065 26.6934 23.5571 27.5844 23.5571C28.2872 23.5571 28.9678 23.665 29.6263 23.8809C30.2849 24.0911 30.9351 24.4204 31.577 24.8687V26.7529ZM34.7981 28.4048V32.1401C34.7981 33.2303 34.9585 33.994 35.2795 34.4312C35.606 34.8628 36.1539 35.0786 36.9231 35.0786C37.6923 35.0786 38.2346 34.8656 38.55 34.4395C38.871 34.0078 39.0315 33.2414 39.0315 32.1401V28.4048H40.3596V32.8374C40.3596 33.9829 40.0663 34.8517 39.4797 35.4438C38.8931 36.0304 38.0298 36.3237 36.8899 36.3237C35.761 36.3237 34.9032 36.0277 34.3166 35.4355C33.73 34.8434 33.4367 33.9774 33.4367 32.8374V28.4048H34.7981ZM42.5513 36V28.4048H43.7051V29.9819C44.0538 29.3234 44.4245 28.853 44.8174 28.5708C45.2103 28.2886 45.689 28.1475 46.2535 28.1475C46.4084 28.1475 46.5578 28.1613 46.7017 28.189C46.8456 28.2111 46.9895 28.2471 47.1334 28.2969L46.7017 29.4673C46.5523 29.4175 46.4112 29.3815 46.2784 29.3594C46.1456 29.3317 46.0183 29.3179 45.8965 29.3179C45.2103 29.3179 44.6957 29.5669 44.3526 30.0649C44.0095 30.5575 43.8379 31.3018 43.8379 32.2979V36H42.5513ZM48.1879 36V28.4048H49.3417V29.9819C49.6903 29.3234 50.0611 28.853 50.454 28.5708C50.8469 28.2886 51.3256 28.1475 51.89 28.1475C52.045 28.1475 52.1944 28.1613 52.3383 28.189C52.4822 28.2111 52.626 28.2471 52.7699 28.2969L52.3383 29.4673C52.1889 29.4175 52.0478 29.3815 51.9149 29.3594C51.7821 29.3317 51.6548 29.3179 51.5331 29.3179C50.8469 29.3179 50.3323 29.5669 49.9892 30.0649C49.6461 30.5575 49.4745 31.3018 49.4745 32.2979V36H48.1879ZM59.1951 31.3433C59.1508 30.6737 58.9267 30.159 58.5227 29.7993C58.1243 29.4341 57.5764 29.2515 56.8791 29.2515C56.2483 29.2515 55.7226 29.4424 55.302 29.8242C54.8814 30.2005 54.6379 30.7069 54.5715 31.3433H59.1951ZM60.5896 32.3975H54.5715V32.5137C54.5715 33.3271 54.8039 33.9857 55.2688 34.4893C55.7336 34.9873 56.3396 35.2363 57.0867 35.2363C57.5958 35.2363 58.0551 35.1007 58.4646 34.8296C58.8741 34.5529 59.2366 34.1379 59.552 33.5845L60.5398 34.2485C60.1579 34.9347 59.671 35.4521 59.0788 35.8008C58.4867 36.1494 57.8005 36.3237 57.0203 36.3237C55.8637 36.3237 54.9285 35.9419 54.2146 35.1782C53.5007 34.4146 53.1438 33.4129 53.1438 32.1733C53.1438 30.9836 53.498 30.0096 54.2063 29.2515C54.9146 28.4933 55.8249 28.1143 56.9372 28.1143C58.0606 28.1143 58.9488 28.474 59.6018 29.1934C60.2603 29.9128 60.5896 30.895 60.5896 32.1401V32.3975ZM62.2169 36V28.4048H63.4869V29.5752C63.8134 29.0882 64.2063 28.7257 64.6656 28.4878C65.1249 28.2498 65.6562 28.1309 66.2594 28.1309C67.1558 28.1309 67.8559 28.3688 68.3595 28.8447C68.863 29.3206 69.1148 29.9819 69.1148 30.8286V36H67.7867V31.5259C67.7867 30.7567 67.6234 30.1867 67.297 29.8159C66.976 29.4396 66.4779 29.2515 65.8028 29.2515C65.4154 29.2515 65.0613 29.3234 64.7403 29.4673C64.4249 29.6056 64.162 29.8049 63.9517 30.0649C63.7913 30.2642 63.675 30.491 63.6031 30.7456C63.5367 31.0002 63.5035 31.4429 63.5035 32.0737V36H62.2169ZM71.5556 29.4756H70.1611V28.4048H71.5556V25.3418H72.8837V28.4048H74.2782V29.4756H72.8837V36H71.5556V29.4756ZM81.3429 32.2231C81.3429 33.0754 81.5781 33.7588 82.0484 34.2734C82.5188 34.7881 83.1414 35.0454 83.9161 35.0454C84.6742 35.0454 85.2691 34.8102 85.7008 34.3398C86.138 33.8695 86.3565 33.2165 86.3565 32.3809C86.3565 31.4456 86.138 30.7124 85.7008 30.1812C85.2691 29.6499 84.6659 29.3843 83.8912 29.3843C83.0999 29.3843 82.4773 29.6361 82.0235 30.1396C81.5698 30.6432 81.3429 31.3377 81.3429 32.2231ZM80.0895 39.7021V28.4048H81.3263V29.8325C81.6196 29.2847 82.0069 28.8641 82.4884 28.5708C82.9698 28.2775 83.5066 28.1309 84.0987 28.1309C85.1944 28.1309 86.0743 28.5044 86.7384 29.2515C87.4024 29.9985 87.7345 30.9891 87.7345 32.2231C87.7345 33.4793 87.408 34.4782 86.755 35.2197C86.1075 35.9557 85.2387 36.3237 84.1485 36.3237C83.5232 36.3237 82.9781 36.1826 82.5133 35.9004C82.0484 35.6126 81.6694 35.1865 81.3761 34.6221V39.7021H80.0895ZM89.5444 36V23.1338H90.8725V36H89.5444ZM99.0657 32.2729C99.0657 31.4152 98.8305 30.7262 98.3601 30.2061C97.8953 29.6803 97.2866 29.4175 96.534 29.4175C95.7537 29.4175 95.145 29.6582 94.7078 30.1396C94.2706 30.6211 94.052 31.2935 94.052 32.1567C94.052 33.0754 94.2706 33.7837 94.7078 34.2817C95.1505 34.7798 95.7758 35.0288 96.5838 35.0288C97.3585 35.0288 97.9645 34.7881 98.4016 34.3066C98.8444 33.8197 99.0657 33.1418 99.0657 32.2729ZM100.327 28.4048V36H99.0657V34.6221C98.7613 35.1755 98.3712 35.5988 97.8953 35.8921C97.4249 36.1799 96.8964 36.3237 96.3098 36.3237C95.2197 36.3237 94.3398 35.9502 93.6702 35.2031C93.0061 34.4505 92.6741 33.4572 92.6741 32.2231C92.6741 30.9725 92.9978 29.9792 93.6453 29.2432C94.2928 28.5016 95.1588 28.1309 96.2434 28.1309C96.8798 28.1309 97.4305 28.2747 97.8953 28.5625C98.3657 28.8447 98.7447 29.2681 99.0325 29.8325V28.4048H100.327ZM102.594 36V28.4048H103.864V29.5752C104.19 29.0882 104.583 28.7257 105.043 28.4878C105.502 28.2498 106.033 28.1309 106.636 28.1309C107.533 28.1309 108.233 28.3688 108.736 28.8447C109.24 29.3206 109.492 29.9819 109.492 30.8286V36H108.164V31.5259C108.164 30.7567 108 30.1867 107.674 29.8159C107.353 29.4396 106.855 29.2515 106.18 29.2515C105.792 29.2515 105.438 29.3234 105.117 29.4673C104.802 29.6056 104.539 29.8049 104.329 30.0649C104.168 30.2642 104.052 30.491 103.98 30.7456C103.914 31.0002 103.88 31.4429 103.88 32.0737V36H102.594Z" fill="white"/>
<g clip-path="url(#clip0_1801_1319)">
<path d="M413 92H375C374.447 92 374 92.4475 374 93V95C374 95.5525 374.447 96 375 96H413C413.552 96 414 95.5525 414 95V93C414 92.4475 413.552 92 413 92ZM379.034 85.3294C379.427 85.7569 379.978 85.9994 380.555 85.9988L388.714 85.9875C389.358 85.9867 389.992 85.8342 390.566 85.5425L408.751 76.3144C410.422 75.4663 411.921 74.2556 412.94 72.67C414.084 70.89 414.209 69.6019 413.757 68.6919C413.306 67.7813 412.211 67.1125 410.116 66.9763C408.251 66.855 406.395 67.3463 404.724 68.1938L398.567 71.3181L384.898 66.1894C384.734 66.0787 384.543 66.0139 384.345 66.0017C384.147 65.9895 383.95 66.0303 383.773 66.12L379.664 68.2056C378.997 68.5438 378.836 69.4338 379.341 69.9888L389.104 76.12L382.654 79.3938L378.132 77.1144C377.976 77.0359 377.804 76.995 377.629 76.9953C377.455 76.9955 377.283 77.0367 377.127 77.1156L374.619 78.3888C373.967 78.72 373.795 79.5838 374.271 80.1438L379.034 85.3294Z" fill="white"/>
</g>
<defs>
<clipPath id="clip0_1801_1319">
<rect width="40" height="40" fill="white" transform="translate(374 60)"/>
</clipPath>
</defs>
</svg>
