<svg width="27" height="31" viewBox="0 0 27 31" fill="none" xmlns="http://www.w3.org/2000/svg">
<path d="M14.1554 25.376C14.1625 25.9962 12.7386 25.9727 8.08731 25.2951C3.16416 24.5747 2.10436 24.2366 2.35013 23.5343C2.69999 22.5726 14.1182 24.3735 14.1554 25.376Z" fill="#FD8553"/>
<path d="M19.0791 3.96459C20.9315 4.07576 21.1506 4.40761 22.115 8.54662C23.1156 12.8206 23.1462 13.6369 22.3608 13.8908C20.9348 14.3452 20.3071 13.2983 18.8059 8.07358C17.7005 4.21825 17.7118 3.88252 19.0791 3.96459Z" fill="#FD8553"/>
<path d="M8.4556 9.71861C9.78863 9.78092 10.2579 10.0747 11.7333 11.7479C16.0909 16.728 19.5987 19.9396 17.0063 19.7663C15.9478 19.7028 15.0422 18.8605 9.75136 13.2047C6.84135 10.0644 6.67165 9.64694 8.4556 9.71861Z" fill="#FD8553"/>
</svg>
