<svg width="376" height="61" viewBox="0 0 376 61" fill="none" xmlns="http://www.w3.org/2000/svg">
<path d="M12.8232 45.1577C63.933 23.6693 213.997 -11.999 365.066 45.1577" stroke="#FFDBCD" stroke-width="1.88945" stroke-dasharray="8.5 8.5"/>
<circle cx="362.774" cy="47.0308" r="13.2261" fill="#0E131F"/>
<circle cx="188.945" cy="13.9664" r="13.2261" fill="#FD6F35"/>
<circle cx="13.2261" cy="45.1421" r="13.2261" fill="#0E131F"/>
<g clip-path="url(#clip0_1658_2876)">
<path d="M15.096 43.9091L18.5183 42.9923C18.6993 42.94 18.8889 42.9244 19.076 42.9462C19.2631 42.9681 19.444 43.0271 19.6081 43.1197C19.7722 43.2123 19.9161 43.3367 20.0315 43.4857C20.1469 43.6346 20.2315 43.805 20.2803 43.987C20.329 44.169 20.341 44.3589 20.3155 44.5455C20.29 44.7322 20.2275 44.9119 20.1318 45.0742C20.036 45.2364 19.9088 45.3779 19.7577 45.4904C19.6065 45.6029 19.4345 45.6842 19.2516 45.7294L8.98553 48.4807L5.83252 44.9238L7.88517 44.3739L9.6211 45.3758L11.6737 44.826L9.02167 40.4019L11.075 39.8513L15.096 43.9091Z" stroke="white" stroke-width="0.850251" stroke-linecap="round" stroke-linejoin="round"/>
<path d="M6.84937 51.52H19.6031" stroke="white" stroke-width="0.661307" stroke-linecap="round" stroke-linejoin="round"/>
</g>
<g clip-path="url(#clip1_1658_2876)">
<path d="M365.011 46.8971L368.433 47.8147C368.615 47.8605 368.787 47.9421 368.937 48.0548C369.088 48.1675 369.214 48.309 369.309 48.4711C369.405 48.6331 369.467 48.8125 369.492 48.9988C369.517 49.1851 369.505 49.3745 369.456 49.556C369.408 49.7376 369.323 49.9076 369.208 50.0563C369.093 50.2049 368.95 50.3292 368.786 50.4219C368.623 50.5145 368.442 50.5737 368.256 50.596C368.069 50.6183 367.88 50.6033 367.699 50.5518L357.433 47.8012L356.48 43.1446L358.533 43.6945L359.535 45.4304L361.589 45.9802L361.504 40.8228L363.557 41.3733L365.011 46.8971Z" stroke="white" stroke-width="0.850251" stroke-linecap="round" stroke-linejoin="round"/>
<path d="M356.397 53.4087H369.151" stroke="white" stroke-width="0.661307" stroke-linecap="round" stroke-linejoin="round"/>
</g>
<g clip-path="url(#clip2_1658_2876)">
<path d="M191.779 12.5484H194.613C194.989 12.5484 195.349 12.6977 195.615 12.9635C195.881 13.2292 196.03 13.5897 196.03 13.9655C196.03 14.3413 195.881 14.7018 195.615 14.9675C195.349 15.2333 194.989 15.3826 194.613 15.3826H191.779L188.945 20.3424H186.819L188.236 15.3826H185.402L183.985 16.7997H181.859L183.276 13.9655L181.859 11.1313H183.985L185.402 12.5484H188.236L186.819 7.58862H188.945L191.779 12.5484Z" stroke="white" stroke-width="0.850251" stroke-linecap="round" stroke-linejoin="round"/>
</g>
<defs>
<clipPath id="clip0_1658_2876">
<rect width="17.005" height="17.005" fill="white" transform="translate(4.72363 36.6406)"/>
</clipPath>
<clipPath id="clip1_1658_2876">
<rect width="17.005" height="17.005" fill="white" transform="translate(354.271 38.5293)"/>
</clipPath>
<clipPath id="clip2_1658_2876">
<rect width="17.005" height="17.005" fill="white" transform="translate(180.442 5.46289)"/>
</clipPath>
</defs>
</svg>
