<svg width="27" height="31" viewBox="0 0 27 31" fill="none" xmlns="http://www.w3.org/2000/svg">
<path d="M14.1554 25.3759C14.1625 25.996 12.7386 25.9725 8.08731 25.295C3.16416 24.5746 2.10436 24.2365 2.35013 23.5342C2.69999 22.5725 14.1182 24.3733 14.1554 25.3759Z" fill="#0E131F"/>
<path d="M19.0791 3.96459C20.9315 4.07576 21.1506 4.40761 22.115 8.54662C23.1156 12.8206 23.1462 13.6369 22.3608 13.8908C20.9348 14.3452 20.3071 13.2983 18.8059 8.07358C17.7005 4.21825 17.7118 3.88252 19.0791 3.96459Z" fill="#0E131F"/>
<path d="M8.4556 9.71873C9.78863 9.78104 10.2579 10.0748 11.7333 11.748C16.0909 16.7281 19.5987 19.9397 17.0063 19.7664C15.9478 19.7029 15.0422 18.8606 9.75136 13.2048C6.84135 10.0645 6.67165 9.64707 8.4556 9.71873Z" fill="#0E131F"/>
</svg>
