<svg width="317" height="80" viewBox="0 0 317 80" fill="none" xmlns="http://www.w3.org/2000/svg">
<path d="M10.8975 68.5748L68.3122 12.3184L101.083 40.4466L133.854 68.5748L191.269 12.3184L248.684 68.5748L306.099 12.3184" stroke="white" stroke-width="1.78592" stroke-dasharray="8.04 8.04"/>
<ellipse cx="10.8988" cy="68.5729" rx="10.8997" ry="10.7155" fill="#FD8553"/>
<ellipse cx="69.4857" cy="11.4245" rx="11.3539" ry="10.7155" fill="#2B2F3A"/>
<ellipse cx="135.337" cy="68.5729" rx="10.8997" ry="10.7155" fill="#2B2F3A"/>
<g clip-path="url(#clip0_1658_4993)">
<path d="M12.2964 67.284L14.8555 66.6581C14.9909 66.6224 15.1327 66.6117 15.2726 66.6267C15.4126 66.6416 15.5478 66.6819 15.6705 66.7451C15.7932 66.8083 15.9009 66.8932 15.9872 66.9949C16.0735 67.0966 16.1367 67.2129 16.1732 67.3371C16.2096 67.4614 16.2186 67.591 16.1995 67.7184C16.1804 67.8459 16.1337 67.9685 16.0621 68.0793C15.9905 68.19 15.8954 68.2866 15.7824 68.3634C15.6694 68.4402 15.5407 68.4957 15.4039 68.5266L7.72696 70.4047L5.36914 67.9766L6.90411 67.6013L8.20224 68.2852L9.73721 67.9099L7.75399 64.8897L9.28949 64.5139L12.2964 67.284Z" stroke="white" stroke-width="0.803664" stroke-linecap="round" stroke-linejoin="round"/>
<path d="M6.12964 72.4797H15.6669" stroke="white" stroke-width="0.625072" stroke-linecap="round" stroke-linejoin="round"/>
</g>
<ellipse cx="249.784" cy="68.5729" rx="10.8997" ry="10.7155" fill="#2B2F3A"/>
<ellipse cx="306.1" cy="11.4245" rx="10.8997" ry="10.7155" fill="#FD8553"/>
<ellipse cx="190.29" cy="11.4245" rx="11.3539" ry="10.7155" fill="#2B2F3A"/>
<g clip-path="url(#clip1_1658_4993)">
<path d="M131.099 70.5455C131.099 70.8021 131.226 71.0481 131.453 71.2295C131.68 71.411 131.989 71.5129 132.31 71.5129C132.631 71.5129 132.939 71.411 133.166 71.2295C133.393 71.0481 133.521 70.8021 133.521 70.5455C133.521 70.2889 133.393 70.0429 133.166 69.8615C132.939 69.68 132.631 69.5781 132.31 69.5781C131.989 69.5781 131.68 69.68 131.453 69.8615C131.226 70.0429 131.099 70.2889 131.099 70.5455Z" stroke="white" stroke-width="1.33944" stroke-linecap="round" stroke-linejoin="round"/>
<path d="M137.153 70.5455C137.153 70.8021 137.281 71.0481 137.508 71.2295C137.735 71.411 138.043 71.5129 138.364 71.5129C138.686 71.5129 138.994 71.411 139.221 71.2295C139.448 71.0481 139.575 70.8021 139.575 70.5455C139.575 70.2889 139.448 70.0429 139.221 69.8615C138.994 69.68 138.686 69.5781 138.364 69.5781C138.043 69.5781 137.735 69.68 137.508 69.8615C137.281 70.0429 137.153 70.2889 137.153 70.5455Z" stroke="white" stroke-width="1.33944" stroke-linecap="round" stroke-linejoin="round"/>
<path d="M131.098 70.5452H129.887V67.643M129.887 67.643L131.098 65.2246H136.548L138.97 67.643M129.887 67.643H138.97M138.97 67.643H139.575C139.897 67.643 140.205 67.745 140.432 67.9264C140.659 68.1078 140.786 68.3539 140.786 68.6104V70.5452H139.575M137.153 70.5452H133.52M135.337 67.643V65.2246" stroke="white" stroke-width="0.803664" stroke-linecap="round" stroke-linejoin="round"/>
</g>
<g clip-path="url(#clip2_1658_4993)">
<path d="M245.888 70.5455C245.888 70.8021 245.991 71.0481 246.176 71.2295C246.36 71.411 246.611 71.5129 246.872 71.5129C247.133 71.5129 247.383 71.411 247.567 71.2295C247.752 71.0481 247.856 70.8021 247.856 70.5455C247.856 70.2889 247.752 70.0429 247.567 69.8615C247.383 69.68 247.133 69.5781 246.872 69.5781C246.611 69.5781 246.36 69.68 246.176 69.8615C245.991 70.0429 245.888 70.2889 245.888 70.5455Z" stroke="white" stroke-width="0.803664" stroke-linecap="round" stroke-linejoin="round"/>
<path d="M250.808 70.5455C250.808 70.8021 250.911 71.0481 251.096 71.2295C251.28 71.411 251.531 71.5129 251.792 71.5129C252.053 71.5129 252.303 71.411 252.487 71.2295C252.672 71.0481 252.776 70.8021 252.776 70.5455C252.776 70.2889 252.672 70.0429 252.487 69.8615C252.303 69.68 252.053 69.5781 251.792 69.5781C251.531 69.5781 251.28 69.68 251.096 69.8615C250.911 70.0429 250.808 70.2889 250.808 70.5455Z" stroke="white" stroke-width="0.803664" stroke-linecap="round" stroke-linejoin="round"/>
<path d="M245.888 70.5452H244.904V67.643M244.904 67.643L245.888 65.2246H250.316L252.284 67.643M244.904 67.643H252.284M252.284 67.643H252.776C253.037 67.643 253.288 67.745 253.472 67.9264C253.657 68.1078 253.76 68.3539 253.76 68.6104V70.5452H252.776M250.808 70.5452H247.856M249.332 67.643V65.2246" stroke="white" stroke-width="0.803664" stroke-linecap="round" stroke-linejoin="round"/>
</g>
<g clip-path="url(#clip3_1658_4993)">
<path d="M185.975 16.1133H195.513" stroke="white" stroke-width="0.803664" stroke-linecap="round" stroke-linejoin="round"/>
<path d="M187.035 16.1124V8.8199L191.274 6.73633V16.1124" stroke="white" stroke-width="0.803664" stroke-linecap="round" stroke-linejoin="round"/>
<path d="M194.453 16.1148V10.9058L191.274 8.82227" stroke="white" stroke-width="0.803664" stroke-linecap="round" stroke-linejoin="round"/>
<path d="M189.154 9.86328V9.87065" stroke="white" stroke-width="1.33944" stroke-linecap="round" stroke-linejoin="round"/>
<path d="M189.154 11.4258V11.4331" stroke="white" stroke-width="1.33944" stroke-linecap="round" stroke-linejoin="round"/>
<path d="M189.154 12.9883V12.9956" stroke="white" stroke-width="1.33944" stroke-linecap="round" stroke-linejoin="round"/>
<path d="M189.154 14.5505V14.5579" stroke="white" stroke-width="1.33944" stroke-linecap="round" stroke-linejoin="round"/>
</g>
<g clip-path="url(#clip4_1658_4993)">
<path d="M307.497 10.5171L310.056 9.84305C310.191 9.80462 310.333 9.79311 310.473 9.8092C310.613 9.82528 310.748 9.86864 310.871 9.93673C310.994 10.0048 311.101 10.0963 311.188 10.2058C311.274 10.3152 311.337 10.4405 311.374 10.5743C311.41 10.7081 311.419 10.8477 311.4 10.9849C311.381 11.1222 311.334 11.2543 311.263 11.3736C311.191 11.4928 311.096 11.5969 310.983 11.6796C310.87 11.7623 310.741 11.822 310.604 11.8553L302.927 13.8779L300.57 11.263L302.105 10.8588L303.403 11.5953L304.938 11.1911L302.954 7.93867L304.49 7.53394L307.497 10.5171Z" stroke="white" stroke-width="0.803664" stroke-linecap="round" stroke-linejoin="round"/>
<path d="M301.33 16.1125H310.867" stroke="white" stroke-width="0.625072" stroke-linecap="round" stroke-linejoin="round"/>
</g>
<g clip-path="url(#clip5_1658_4993)">
<path d="M70.1302 11.3257L72.5066 12.0003C72.6332 12.034 72.7522 12.094 72.8566 12.1768C72.9611 12.2597 73.0489 12.3637 73.1151 12.4829C73.1812 12.602 73.2243 12.7339 73.2418 12.8708C73.2593 13.0077 73.2509 13.147 73.2171 13.2805C73.1833 13.4139 73.1247 13.539 73.0448 13.6482C72.965 13.7575 72.8653 13.8489 72.7518 13.917C72.6382 13.9851 72.513 14.0287 72.3834 14.045C72.2538 14.0614 72.1224 14.0504 71.9969 14.0125L64.8683 11.9904L64.2065 8.56707L65.6324 8.97129L66.3281 10.2475L67.7539 10.6517L67.6948 6.86011L69.1207 7.26484L70.1302 11.3257Z" stroke="white" stroke-width="0.803664" stroke-linecap="round" stroke-linejoin="round"/>
<path d="M64.1489 16.1125H73.005" stroke="white" stroke-width="0.625072" stroke-linecap="round" stroke-linejoin="round"/>
</g>
<defs>
<clipPath id="clip0_1658_4993">
<rect width="12.7164" height="11.6085" fill="white" transform="translate(4.54004 62.3223)"/>
</clipPath>
<clipPath id="clip1_1658_4993">
<rect width="14.533" height="11.6085" fill="white" transform="translate(128.07 62.3223)"/>
</clipPath>
<clipPath id="clip2_1658_4993">
<rect width="11.808" height="11.6085" fill="white" transform="translate(243.428 62.3223)"/>
</clipPath>
<clipPath id="clip3_1658_4993">
<rect width="12.7164" height="12.5014" fill="white" transform="translate(184.385 5.17383)"/>
</clipPath>
<clipPath id="clip4_1658_4993">
<rect width="12.7164" height="12.5014" fill="white" transform="translate(299.74 5.17383)"/>
</clipPath>
<clipPath id="clip5_1658_4993">
<rect width="11.808" height="12.5014" fill="white" transform="translate(62.6729 5.17383)"/>
</clipPath>
</defs>
</svg>
